G04 #@! TF.FileFunction,Soldermask,Bot*
%FSLAX46Y46*%
G04 Gerber Fmt 4.6, Leading zero omitted, Abs format (unit mm)*
G04 Created by KiCad (PCBNEW 4.0.7) date Sun Sep 24 15:37:13 2017*
%MOMM*%
%LPD*%
G01*
G04 APERTURE LIST*
%ADD10C,0.100000*%
%ADD11C,0.800000*%
%ADD12R,1.727200X2.032000*%
%ADD13O,1.727200X2.032000*%
%ADD14C,1.500000*%
%ADD15C,2.000000*%
%ADD16C,1.800000*%
%ADD17C,3.600000*%
%ADD18C,3.100000*%
%ADD19O,1.500000X0.900000*%
%ADD20R,1.500000X0.900000*%
%ADD21C,6.400000*%
%ADD22C,0.600000*%
%ADD23C,1.050000*%
%ADD24R,4.900000X1.800000*%
G04 APERTURE END LIST*
D10*
D11*
X161100000Y-119200000D03*
X161100000Y-115600000D03*
X158300000Y-121100000D03*
X157000000Y-119400000D03*
X159400000Y-112300000D03*
X157400000Y-105800000D03*
X159900000Y-108700000D03*
X165800000Y-107900000D03*
X165700000Y-93900000D03*
X141200000Y-103900000D03*
X145100000Y-87200000D03*
X147900000Y-84400000D03*
X160500000Y-82200000D03*
X165800000Y-79900000D03*
X160500000Y-73800000D03*
X156500000Y-70100000D03*
X156600000Y-66400000D03*
X152100000Y-66300000D03*
X160800000Y-63100000D03*
X165800000Y-66000000D03*
X165800000Y-51900000D03*
X161900000Y-40700000D03*
X139500000Y-35900000D03*
X139500000Y-41100000D03*
X139500000Y-48600000D03*
X139500000Y-56100000D03*
X139600000Y-62700000D03*
X136600000Y-66200000D03*
X133900000Y-69000000D03*
X133800000Y-72700000D03*
X133800000Y-78200000D03*
X133900000Y-81200000D03*
X133900000Y-84500000D03*
X134000000Y-89400000D03*
X141100000Y-92200000D03*
X141700000Y-96400000D03*
X141400000Y-100000000D03*
X138300000Y-103100000D03*
X134600000Y-103100000D03*
X134600000Y-109600000D03*
X137600000Y-124200000D03*
X137600000Y-120800000D03*
X134600000Y-115400000D03*
X132800000Y-118200000D03*
X76000000Y-124700000D03*
X68900000Y-106900000D03*
X69900000Y-118600000D03*
X72200000Y-117100000D03*
X72200000Y-111800000D03*
X72100000Y-105500000D03*
X74900000Y-103800000D03*
X74900000Y-110400000D03*
X74900000Y-116200000D03*
X126000000Y-118200000D03*
X118500000Y-118200000D03*
X111000000Y-118200000D03*
X103500000Y-118200000D03*
X96000000Y-118200000D03*
X88500000Y-118200000D03*
X81000000Y-118200000D03*
X78700000Y-116000000D03*
X78700000Y-110200000D03*
X78700000Y-103600000D03*
X78700000Y-96800000D03*
X78700000Y-89200000D03*
X78700000Y-81000000D03*
X74700000Y-71700000D03*
X78600000Y-74500000D03*
X84400000Y-56700000D03*
X79200000Y-61700000D03*
X82500000Y-61700000D03*
X84400000Y-59700000D03*
X89500000Y-55000000D03*
X93300000Y-55000000D03*
X102800000Y-54300000D03*
X100000000Y-55000000D03*
X103400000Y-52600000D03*
X103300000Y-42600000D03*
X103300000Y-40300000D03*
X103200000Y-36000000D03*
X119100000Y-33900000D03*
X122900000Y-33900000D03*
X125600000Y-33900000D03*
D12*
X115640000Y-34820000D03*
D13*
X113100000Y-34820000D03*
X110560000Y-34820000D03*
D11*
X130200000Y-34000000D03*
X133100000Y-34000000D03*
X133000000Y-40500000D03*
X133000000Y-46100000D03*
X133000000Y-51600000D03*
X131000000Y-55900000D03*
X133000000Y-56500000D03*
X126100000Y-66800000D03*
X132900000Y-61900000D03*
X129300000Y-64200000D03*
X126100000Y-70500000D03*
X126100000Y-78000000D03*
X126100000Y-85500000D03*
X130400000Y-90300000D03*
X134500000Y-94300000D03*
X137400000Y-94400000D03*
X139300000Y-96200000D03*
X139400000Y-98600000D03*
X136900000Y-100900000D03*
X132200000Y-100900000D03*
X127700000Y-101000000D03*
X124500000Y-103900000D03*
X104100000Y-60700000D03*
X104100000Y-68200000D03*
X104100000Y-75700000D03*
X104100000Y-83200000D03*
X104100000Y-90700000D03*
X104100000Y-98200000D03*
X121000000Y-107000000D03*
X113000000Y-107000000D03*
X106000000Y-107000000D03*
X98000000Y-107000000D03*
X91000000Y-107000000D03*
X86750000Y-98100000D03*
X86750000Y-90600000D03*
X86750000Y-83100000D03*
X86750000Y-75600000D03*
X86750000Y-68100000D03*
X86750000Y-60600000D03*
X93900000Y-57100000D03*
X96700000Y-57100000D03*
X100200000Y-57100000D03*
X103100000Y-57100000D03*
X104500000Y-55900000D03*
X105700000Y-54300000D03*
X105700000Y-52100000D03*
X105600000Y-42700000D03*
X105600000Y-44300000D03*
X105800000Y-36000000D03*
X107000000Y-33700000D03*
X161500000Y-32000000D03*
X155000000Y-32000000D03*
X147500000Y-32000000D03*
X140000000Y-32000000D03*
X81800000Y-43600000D03*
X79300000Y-43600000D03*
X81800000Y-41100000D03*
X79300000Y-41100000D03*
X76800000Y-41100000D03*
X81800000Y-38600000D03*
X79300000Y-38600000D03*
X76800000Y-38600000D03*
X81800000Y-36100000D03*
X79300000Y-36100000D03*
X76800000Y-36100000D03*
X103000000Y-32000000D03*
X96500000Y-32000000D03*
X59000000Y-32000000D03*
X89000000Y-32000000D03*
X81500000Y-32000000D03*
X74000000Y-32000000D03*
X66500000Y-32000000D03*
X156500000Y-128000000D03*
X149000000Y-128000000D03*
X141500000Y-128000000D03*
X134000000Y-128000000D03*
X126500000Y-128000000D03*
X119000000Y-128000000D03*
X111500000Y-128000000D03*
X104000000Y-128000000D03*
X96500000Y-128000000D03*
X89000000Y-128000000D03*
X81500000Y-128000000D03*
X74000000Y-128000000D03*
X66500000Y-128000000D03*
D14*
X130290000Y-54220000D03*
X129450000Y-39190000D03*
X130770000Y-48750000D03*
X122550000Y-51075000D03*
X125375000Y-43575000D03*
D15*
X159730000Y-93550000D03*
X146900000Y-92550000D03*
D16*
X57840000Y-72950000D03*
X55300000Y-72950000D03*
X57840000Y-75490000D03*
X55300000Y-75490000D03*
X57840000Y-78030000D03*
X55300000Y-78030000D03*
X57840000Y-80570000D03*
X55300000Y-80570000D03*
X57840000Y-83110000D03*
X55300000Y-83110000D03*
X57840000Y-85650000D03*
X55300000Y-85650000D03*
X57840000Y-88190000D03*
X55300000Y-88190000D03*
X57840000Y-90730000D03*
X55300000Y-90730000D03*
X57840000Y-93270000D03*
X55300000Y-93270000D03*
X57840000Y-95810000D03*
X55300000Y-95810000D03*
X57840000Y-98350000D03*
X55300000Y-98350000D03*
X57840000Y-100890000D03*
X55300000Y-100890000D03*
X57840000Y-103430000D03*
X55300000Y-103430000D03*
X57840000Y-105970000D03*
X55300000Y-105970000D03*
X57840000Y-108510000D03*
X55300000Y-108510000D03*
X57840000Y-111050000D03*
X55300000Y-111050000D03*
D17*
X52760000Y-67870000D03*
X52760000Y-116130000D03*
D14*
X62000000Y-55000000D03*
X59000000Y-55000000D03*
D18*
X54680000Y-55000000D03*
D14*
X62000000Y-45000000D03*
X59000000Y-45000000D03*
D18*
X54680000Y-45000000D03*
D19*
X69500000Y-38700000D03*
X69500000Y-37430000D03*
D20*
X69500000Y-39970000D03*
D19*
X75325000Y-93105000D03*
X75325000Y-91835000D03*
D20*
X75325000Y-94375000D03*
D19*
X143050000Y-57370000D03*
X143050000Y-58640000D03*
D20*
X143050000Y-56100000D03*
D21*
X165000000Y-125000000D03*
D22*
X167400000Y-125000000D03*
X166697056Y-126697056D03*
X165000000Y-127400000D03*
X163302944Y-126697056D03*
X162600000Y-125000000D03*
X163302944Y-123302944D03*
X165000000Y-122600000D03*
X166697056Y-123302944D03*
D21*
X165000000Y-35000000D03*
D22*
X167400000Y-35000000D03*
X166697056Y-36697056D03*
X165000000Y-37400000D03*
X163302944Y-36697056D03*
X162600000Y-35000000D03*
X163302944Y-33302944D03*
X165000000Y-32600000D03*
X166697056Y-33302944D03*
D21*
X55000000Y-35000000D03*
D22*
X57400000Y-35000000D03*
X56697056Y-36697056D03*
X55000000Y-37400000D03*
X53302944Y-36697056D03*
X52600000Y-35000000D03*
X53302944Y-33302944D03*
X55000000Y-32600000D03*
X56697056Y-33302944D03*
D21*
X55000000Y-125000000D03*
D22*
X57400000Y-125000000D03*
X56697056Y-126697056D03*
X55000000Y-127400000D03*
X53302944Y-126697056D03*
X52600000Y-125000000D03*
X53302944Y-123302944D03*
X55000000Y-122600000D03*
X56697056Y-123302944D03*
D23*
X96735000Y-99510000D03*
X96735000Y-80510000D03*
X115735000Y-80510000D03*
X115735000Y-90010000D03*
X115735000Y-99510000D03*
D11*
X59000000Y-128000000D03*
D24*
X165750000Y-49250000D03*
X165750000Y-40750000D03*
X165750000Y-63250000D03*
X165750000Y-54750000D03*
X165750000Y-119250000D03*
X165750000Y-110750000D03*
X165750000Y-105250000D03*
X165750000Y-96750000D03*
X165750000Y-91250000D03*
X165750000Y-82750000D03*
X165750000Y-77250000D03*
X165750000Y-68750000D03*
M02*
