G04 #@! TF.FileFunction,Legend,Top*
%FSLAX46Y46*%
G04 Gerber Fmt 4.6, Leading zero omitted, Abs format (unit mm)*
G04 Created by KiCad (PCBNEW 4.0.7) date Sun Sep 24 15:37:13 2017*
%MOMM*%
%LPD*%
G01*
G04 APERTURE LIST*
%ADD10C,0.100000*%
%ADD11C,0.200000*%
%ADD12C,0.150000*%
%ADD13C,0.120000*%
%ADD14C,0.125000*%
G04 APERTURE END LIST*
D10*
D11*
X145692858Y-78592857D02*
X145807143Y-78592857D01*
X145921429Y-78650000D01*
X145978572Y-78707143D01*
X146035715Y-78821429D01*
X146092858Y-79050000D01*
X146092858Y-79335714D01*
X146035715Y-79564286D01*
X145978572Y-79678571D01*
X145921429Y-79735714D01*
X145807143Y-79792857D01*
X145692858Y-79792857D01*
X145578572Y-79735714D01*
X145521429Y-79678571D01*
X145464286Y-79564286D01*
X145407143Y-79335714D01*
X145407143Y-79050000D01*
X145464286Y-78821429D01*
X145521429Y-78707143D01*
X145578572Y-78650000D01*
X145692858Y-78592857D01*
X146092858Y-76292857D02*
X145407143Y-76292857D01*
X145750001Y-76292857D02*
X145750001Y-75092857D01*
X145635715Y-75264286D01*
X145521429Y-75378571D01*
X145407143Y-75435714D01*
X145335714Y-77414286D02*
X145507143Y-77471429D01*
X145564286Y-77528571D01*
X145621429Y-77642857D01*
X145621429Y-77814286D01*
X145564286Y-77928571D01*
X145507143Y-77985714D01*
X145392857Y-78042857D01*
X144935714Y-78042857D01*
X144935714Y-76842857D01*
X145335714Y-76842857D01*
X145450000Y-76900000D01*
X145507143Y-76957143D01*
X145564286Y-77071429D01*
X145564286Y-77185714D01*
X145507143Y-77300000D01*
X145450000Y-77357143D01*
X145335714Y-77414286D01*
X144935714Y-77414286D01*
X146214286Y-77700000D02*
X146785715Y-77700000D01*
X146100001Y-78042857D02*
X146500001Y-76842857D01*
X146900001Y-78042857D01*
X111642858Y-111928571D02*
X112142858Y-113428571D01*
X112642858Y-111928571D01*
X114000001Y-113285714D02*
X113928572Y-113357143D01*
X113714286Y-113428571D01*
X113571429Y-113428571D01*
X113357144Y-113357143D01*
X113214286Y-113214286D01*
X113142858Y-113071429D01*
X113071429Y-112785714D01*
X113071429Y-112571429D01*
X113142858Y-112285714D01*
X113214286Y-112142857D01*
X113357144Y-112000000D01*
X113571429Y-111928571D01*
X113714286Y-111928571D01*
X113928572Y-112000000D01*
X114000001Y-112071429D01*
X115428572Y-112000000D02*
X115285715Y-111928571D01*
X115071429Y-111928571D01*
X114857144Y-112000000D01*
X114714286Y-112142857D01*
X114642858Y-112285714D01*
X114571429Y-112571429D01*
X114571429Y-112785714D01*
X114642858Y-113071429D01*
X114714286Y-113214286D01*
X114857144Y-113357143D01*
X115071429Y-113428571D01*
X115214286Y-113428571D01*
X115428572Y-113357143D01*
X115500001Y-113285714D01*
X115500001Y-112785714D01*
X115214286Y-112785714D01*
X117285715Y-113428571D02*
X117285715Y-112428571D01*
X117285715Y-112714286D02*
X117357143Y-112571429D01*
X117428572Y-112500000D01*
X117571429Y-112428571D01*
X117714286Y-112428571D01*
X118785714Y-113357143D02*
X118642857Y-113428571D01*
X118357143Y-113428571D01*
X118214286Y-113357143D01*
X118142857Y-113214286D01*
X118142857Y-112642857D01*
X118214286Y-112500000D01*
X118357143Y-112428571D01*
X118642857Y-112428571D01*
X118785714Y-112500000D01*
X118857143Y-112642857D01*
X118857143Y-112785714D01*
X118142857Y-112928571D01*
X119357143Y-112428571D02*
X119714286Y-113428571D01*
X120071428Y-112428571D01*
X122571428Y-113428571D02*
X121714285Y-113428571D01*
X122142857Y-113428571D02*
X122142857Y-111928571D01*
X122000000Y-112142857D01*
X121857142Y-112285714D01*
X121714285Y-112357143D01*
X123214285Y-113285714D02*
X123285713Y-113357143D01*
X123214285Y-113428571D01*
X123142856Y-113357143D01*
X123214285Y-113285714D01*
X123214285Y-113428571D01*
X124214285Y-111928571D02*
X124357142Y-111928571D01*
X124499999Y-112000000D01*
X124571428Y-112071429D01*
X124642857Y-112214286D01*
X124714285Y-112500000D01*
X124714285Y-112857143D01*
X124642857Y-113142857D01*
X124571428Y-113285714D01*
X124499999Y-113357143D01*
X124357142Y-113428571D01*
X124214285Y-113428571D01*
X124071428Y-113357143D01*
X123999999Y-113285714D01*
X123928571Y-113142857D01*
X123857142Y-112857143D01*
X123857142Y-112500000D01*
X123928571Y-112214286D01*
X123999999Y-112071429D01*
X124071428Y-112000000D01*
X124214285Y-111928571D01*
X60000000Y-33000000D02*
X160000000Y-33000000D01*
X60000000Y-127000000D02*
X160000000Y-127000000D01*
X134033000Y-62390000D02*
X134033000Y-117790000D01*
X78633000Y-62390000D02*
X134033000Y-62390000D01*
X78633000Y-117790000D02*
X78633000Y-62390000D01*
X134033000Y-117790000D02*
X78633000Y-117790000D01*
D12*
X114370000Y-33550000D02*
X109290000Y-33550000D01*
X109290000Y-33550000D02*
X109290000Y-36090000D01*
X109290000Y-36090000D02*
X114370000Y-36090000D01*
X117190000Y-36370000D02*
X115640000Y-36370000D01*
X114370000Y-36090000D02*
X114370000Y-33550000D01*
X115640000Y-33270000D02*
X117190000Y-33270000D01*
X117190000Y-33270000D02*
X117190000Y-36370000D01*
X75339000Y-52861000D02*
G75*
G03X79911000Y-52861000I2286000J2286000D01*
G01*
X79911000Y-48289000D02*
G75*
G03X75339000Y-48289000I-2286000J-2286000D01*
G01*
X81275000Y-54225000D02*
X81275000Y-51975000D01*
X81275000Y-46925000D02*
X81275000Y-49175000D01*
X73975000Y-54225000D02*
X73975000Y-51975000D01*
X73975000Y-46925000D02*
X73975000Y-49175000D01*
X81275000Y-54225000D02*
X73975000Y-54225000D01*
X73975000Y-46925000D02*
X81275000Y-46925000D01*
D13*
X83825000Y-44937500D02*
X85325000Y-44937500D01*
X85325000Y-44937500D02*
X85325000Y-43987500D01*
X85325000Y-43987500D02*
X90450000Y-43987500D01*
X83825000Y-34537500D02*
X85325000Y-34537500D01*
X85325000Y-34537500D02*
X85325000Y-35487500D01*
X85325000Y-35487500D02*
X86425000Y-35487500D01*
X86750000Y-53150000D02*
X86050000Y-53150000D01*
X86050000Y-51950000D02*
X86750000Y-51950000D01*
D12*
X94464000Y-55539000D02*
G75*
G03X94464000Y-60111000I2286000J-2286000D01*
G01*
X99036000Y-60111000D02*
G75*
G03X99036000Y-55539000I-2286000J2286000D01*
G01*
X93100000Y-61475000D02*
X95350000Y-61475000D01*
X100400000Y-61475000D02*
X98150000Y-61475000D01*
X93100000Y-54175000D02*
X95350000Y-54175000D01*
X100400000Y-54175000D02*
X98150000Y-54175000D01*
X93100000Y-61475000D02*
X93100000Y-54175000D01*
X100400000Y-54175000D02*
X100400000Y-61475000D01*
X155010000Y-56000000D02*
X155010000Y-47400000D01*
X155010000Y-56000000D02*
X161610000Y-56000000D01*
X161610000Y-56000000D02*
X161610000Y-47400000D01*
X155010000Y-47400000D02*
X161610000Y-47400000D01*
D13*
X151600000Y-52050000D02*
X150600000Y-52050000D01*
X150600000Y-50690000D02*
X151600000Y-50690000D01*
X147880000Y-52190000D02*
X148880000Y-52190000D01*
X148880000Y-53550000D02*
X147880000Y-53550000D01*
X146870000Y-61750000D02*
X146870000Y-60750000D01*
X148230000Y-60750000D02*
X148230000Y-61750000D01*
X145680000Y-64310000D02*
X144680000Y-64310000D01*
X144680000Y-62950000D02*
X145680000Y-62950000D01*
X151620000Y-59190000D02*
X151620000Y-61190000D01*
X154580000Y-61190000D02*
X154580000Y-59190000D01*
X156640000Y-59230000D02*
X155940000Y-59230000D01*
X155940000Y-58030000D02*
X156640000Y-58030000D01*
X159980000Y-56230000D02*
X160680000Y-56230000D01*
X160680000Y-57430000D02*
X159980000Y-57430000D01*
X151560000Y-56270000D02*
X153560000Y-56270000D01*
X153560000Y-53310000D02*
X151560000Y-53310000D01*
X155390000Y-57660000D02*
X154690000Y-57660000D01*
X154690000Y-56460000D02*
X155390000Y-56460000D01*
D12*
X144750000Y-96850000D02*
X144750000Y-90250000D01*
X144750000Y-90250000D02*
X161650000Y-90250000D01*
X161730000Y-90250000D02*
X161730000Y-96850000D01*
X161650000Y-96850000D02*
X144750000Y-96850000D01*
D10*
X50000000Y-118200000D02*
X51000000Y-118200000D01*
X50000000Y-65800000D02*
X51000000Y-65800000D01*
D13*
X88825000Y-51950000D02*
X89525000Y-51950000D01*
X89525000Y-53150000D02*
X88825000Y-53150000D01*
X50000000Y-51300000D02*
X63350000Y-51300000D01*
X63350000Y-51300000D02*
X63350000Y-58700000D01*
X63350000Y-58700000D02*
X50000000Y-58700000D01*
X50000000Y-58700000D02*
X50000000Y-51300000D01*
X50000000Y-41300000D02*
X63350000Y-41300000D01*
X63350000Y-41300000D02*
X63350000Y-48700000D01*
X63350000Y-48700000D02*
X50000000Y-48700000D01*
X50000000Y-48700000D02*
X50000000Y-41300000D01*
D12*
X61275000Y-117800000D02*
X61275000Y-117850000D01*
X65425000Y-117800000D02*
X65425000Y-117945000D01*
X65425000Y-122950000D02*
X65425000Y-122805000D01*
X61275000Y-122950000D02*
X61275000Y-122805000D01*
X61275000Y-117800000D02*
X65425000Y-117800000D01*
X61275000Y-122950000D02*
X65425000Y-122950000D01*
X61275000Y-117850000D02*
X59875000Y-117850000D01*
X63785000Y-77620000D02*
X63785000Y-77645000D01*
X67935000Y-77620000D02*
X67935000Y-77735000D01*
X67935000Y-86520000D02*
X67935000Y-86405000D01*
X63785000Y-86520000D02*
X63785000Y-86405000D01*
X63785000Y-77620000D02*
X67935000Y-77620000D01*
X63785000Y-86520000D02*
X67935000Y-86520000D01*
X63785000Y-77645000D02*
X62410000Y-77645000D01*
X68375000Y-63875000D02*
X76975000Y-63875000D01*
X68375000Y-63875000D02*
X68375000Y-70475000D01*
X68375000Y-70475000D02*
X76975000Y-70475000D01*
X76975000Y-63875000D02*
X76975000Y-70475000D01*
D13*
X145480000Y-124000000D02*
X145480000Y-125800000D01*
X148700000Y-125800000D02*
X148700000Y-123350000D01*
X139340000Y-121500000D02*
X139340000Y-123300000D01*
X142560000Y-123300000D02*
X142560000Y-120850000D01*
D12*
X146987500Y-114462500D02*
X151437500Y-114462500D01*
X145462500Y-107562500D02*
X151437500Y-107562500D01*
X148325000Y-78800000D02*
X148450000Y-78800000D01*
X148325000Y-74150000D02*
X148550000Y-74150000D01*
X153575000Y-74150000D02*
X153350000Y-74150000D01*
X153575000Y-78800000D02*
X153350000Y-78800000D01*
X148325000Y-78800000D02*
X148325000Y-74150000D01*
X153575000Y-78800000D02*
X153575000Y-74150000D01*
X148450000Y-78800000D02*
X148450000Y-80150000D01*
D13*
X152400000Y-97240000D02*
X150600000Y-97240000D01*
X150600000Y-100460000D02*
X153050000Y-100460000D01*
X154500000Y-89685000D02*
X156300000Y-89685000D01*
X156300000Y-86465000D02*
X153850000Y-86465000D01*
D12*
X135700000Y-75175000D02*
X135765000Y-75175000D01*
X139950000Y-75175000D02*
X139885000Y-75175000D01*
X139950000Y-78425000D02*
X139885000Y-78425000D01*
X135700000Y-78425000D02*
X135700000Y-75175000D01*
X139950000Y-78425000D02*
X139950000Y-75175000D01*
X135700000Y-78425000D02*
X135700000Y-79350000D01*
D13*
X154125000Y-42440000D02*
X152325000Y-42440000D01*
X152325000Y-45660000D02*
X154775000Y-45660000D01*
X124335000Y-60600000D02*
X124335000Y-58800000D01*
X121115000Y-58800000D02*
X121115000Y-61250000D01*
X128100000Y-51665000D02*
X126300000Y-51665000D01*
X126300000Y-54885000D02*
X128750000Y-54885000D01*
D12*
X122825000Y-49375000D02*
X125025000Y-49375000D01*
X122050000Y-45125000D02*
X125025000Y-45125000D01*
D13*
X120230000Y-38340000D02*
X120230000Y-40140000D01*
X123450000Y-40140000D02*
X123450000Y-37690000D01*
X112210000Y-53030000D02*
X110410000Y-53030000D01*
X110410000Y-56250000D02*
X112860000Y-56250000D01*
X106850000Y-55590000D02*
X106850000Y-56520000D01*
X106850000Y-58750000D02*
X106850000Y-57820000D01*
X106850000Y-58750000D02*
X109010000Y-58750000D01*
X106850000Y-55590000D02*
X108310000Y-55590000D01*
D12*
X99825000Y-49975000D02*
X100000000Y-49975000D01*
X99825000Y-46625000D02*
X100075000Y-46625000D01*
X103175000Y-46625000D02*
X102925000Y-46625000D01*
X103175000Y-49975000D02*
X102925000Y-49975000D01*
X99825000Y-49975000D02*
X99825000Y-46625000D01*
X103175000Y-49975000D02*
X103175000Y-46625000D01*
X100000000Y-49975000D02*
X100000000Y-51225000D01*
X139425000Y-95250000D02*
X139425000Y-90250000D01*
X135425000Y-95250000D02*
X139425000Y-95250000D01*
X135425000Y-90250000D02*
X135425000Y-95250000D01*
X139425000Y-90250000D02*
X135425000Y-90250000D01*
D13*
X62290000Y-116640000D02*
X62290000Y-115640000D01*
X63650000Y-115640000D02*
X63650000Y-116640000D01*
X64750000Y-113620000D02*
X65750000Y-113620000D01*
X65750000Y-114980000D02*
X64750000Y-114980000D01*
X64750000Y-112020000D02*
X65750000Y-112020000D01*
X65750000Y-113380000D02*
X64750000Y-113380000D01*
X71430000Y-78510000D02*
X71430000Y-79510000D01*
X70070000Y-79510000D02*
X70070000Y-78510000D01*
X74125000Y-82755000D02*
X73125000Y-82755000D01*
X73125000Y-81395000D02*
X74125000Y-81395000D01*
X74125000Y-84655000D02*
X73125000Y-84655000D01*
X73125000Y-83295000D02*
X74125000Y-83295000D01*
X74125000Y-86505000D02*
X73125000Y-86505000D01*
X73125000Y-85145000D02*
X74125000Y-85145000D01*
X74125000Y-88505000D02*
X73125000Y-88505000D01*
X73125000Y-87145000D02*
X74125000Y-87145000D01*
X70575000Y-76805000D02*
X69575000Y-76805000D01*
X69575000Y-75445000D02*
X70575000Y-75445000D01*
X70575000Y-75255000D02*
X69575000Y-75255000D01*
X69575000Y-73895000D02*
X70575000Y-73895000D01*
X54850000Y-59645000D02*
X55850000Y-59645000D01*
X55850000Y-61005000D02*
X54850000Y-61005000D01*
X54825000Y-61845000D02*
X55825000Y-61845000D01*
X55825000Y-63205000D02*
X54825000Y-63205000D01*
X86775000Y-49505000D02*
X88775000Y-49505000D01*
X88775000Y-51645000D02*
X86775000Y-51645000D01*
X65530000Y-51150000D02*
X65530000Y-52150000D01*
X64170000Y-52150000D02*
X64170000Y-51150000D01*
X64170000Y-49450000D02*
X64170000Y-48450000D01*
X65530000Y-48450000D02*
X65530000Y-49450000D01*
X154375000Y-106170000D02*
X155375000Y-106170000D01*
X155375000Y-107530000D02*
X154375000Y-107530000D01*
X154375000Y-109395000D02*
X155375000Y-109395000D01*
X155375000Y-110755000D02*
X154375000Y-110755000D01*
X154600000Y-112620000D02*
X155600000Y-112620000D01*
X155600000Y-113980000D02*
X154600000Y-113980000D01*
X155205000Y-76450000D02*
X155205000Y-77450000D01*
X153845000Y-77450000D02*
X153845000Y-76450000D01*
X150650000Y-67570000D02*
X151650000Y-67570000D01*
X151650000Y-68930000D02*
X150650000Y-68930000D01*
X148320000Y-71000000D02*
X148320000Y-70000000D01*
X149680000Y-70000000D02*
X149680000Y-71000000D01*
X154375000Y-107770000D02*
X155375000Y-107770000D01*
X155375000Y-109130000D02*
X154375000Y-109130000D01*
X154600000Y-111020000D02*
X155600000Y-111020000D01*
X155600000Y-112380000D02*
X154600000Y-112380000D01*
X154375000Y-114220000D02*
X155375000Y-114220000D01*
X155375000Y-115580000D02*
X154375000Y-115580000D01*
X153930000Y-81540000D02*
X153930000Y-82540000D01*
X152570000Y-82540000D02*
X152570000Y-81540000D01*
X154000000Y-71070000D02*
X155000000Y-71070000D01*
X155000000Y-72430000D02*
X154000000Y-72430000D01*
X150630000Y-81520000D02*
X150630000Y-82520000D01*
X149270000Y-82520000D02*
X149270000Y-81520000D01*
X143370000Y-109140000D02*
X143370000Y-108140000D01*
X144730000Y-108140000D02*
X144730000Y-109140000D01*
X141760000Y-112600000D02*
X141760000Y-111600000D01*
X143120000Y-111600000D02*
X143120000Y-112600000D01*
X139870000Y-71175000D02*
X139870000Y-70175000D01*
X141230000Y-70175000D02*
X141230000Y-71175000D01*
X141450000Y-72870000D02*
X142450000Y-72870000D01*
X142450000Y-74230000D02*
X141450000Y-74230000D01*
X156175000Y-44320000D02*
X157175000Y-44320000D01*
X157175000Y-45680000D02*
X156175000Y-45680000D01*
X157725000Y-42120000D02*
X158725000Y-42120000D01*
X158725000Y-43480000D02*
X157725000Y-43480000D01*
X150225000Y-44030000D02*
X149225000Y-44030000D01*
X149225000Y-42670000D02*
X150225000Y-42670000D01*
X152225000Y-40370000D02*
X153225000Y-40370000D01*
X153225000Y-41730000D02*
X152225000Y-41730000D01*
X140855000Y-80725000D02*
X140855000Y-81725000D01*
X139495000Y-81725000D02*
X139495000Y-80725000D01*
X136005000Y-80725000D02*
X136005000Y-81725000D01*
X134645000Y-81725000D02*
X134645000Y-80725000D01*
X156025000Y-41730000D02*
X155025000Y-41730000D01*
X155025000Y-40370000D02*
X156025000Y-40370000D01*
X149550000Y-40370000D02*
X150550000Y-40370000D01*
X150550000Y-41730000D02*
X149550000Y-41730000D01*
X158725000Y-41730000D02*
X157725000Y-41730000D01*
X157725000Y-40370000D02*
X158725000Y-40370000D01*
X138345000Y-88900000D02*
X138345000Y-87900000D01*
X139705000Y-87900000D02*
X139705000Y-88900000D01*
X135095000Y-88900000D02*
X135095000Y-87900000D01*
X136455000Y-87900000D02*
X136455000Y-88900000D01*
X147155000Y-38425000D02*
X147155000Y-39425000D01*
X145795000Y-39425000D02*
X145795000Y-38425000D01*
X137400000Y-100205000D02*
X136400000Y-100205000D01*
X136400000Y-98845000D02*
X137400000Y-98845000D01*
X120125000Y-98845000D02*
X121125000Y-98845000D01*
X121125000Y-100205000D02*
X120125000Y-100205000D01*
X143730000Y-52425000D02*
X143730000Y-53425000D01*
X142370000Y-53425000D02*
X142370000Y-52425000D01*
X147130000Y-57400000D02*
X147130000Y-58400000D01*
X145770000Y-58400000D02*
X145770000Y-57400000D01*
X117400000Y-56770000D02*
X118400000Y-56770000D01*
X118400000Y-58130000D02*
X117400000Y-58130000D01*
X118400000Y-59805000D02*
X117400000Y-59805000D01*
X117400000Y-58445000D02*
X118400000Y-58445000D01*
X118400000Y-61480000D02*
X117400000Y-61480000D01*
X117400000Y-60120000D02*
X118400000Y-60120000D01*
X128050000Y-61480000D02*
X127050000Y-61480000D01*
X127050000Y-60120000D02*
X128050000Y-60120000D01*
X128980000Y-57950000D02*
X128980000Y-58950000D01*
X127620000Y-58950000D02*
X127620000Y-57950000D01*
X124850000Y-50070000D02*
X125850000Y-50070000D01*
X125850000Y-51430000D02*
X124850000Y-51430000D01*
X128050000Y-56880000D02*
X127050000Y-56880000D01*
X127050000Y-55520000D02*
X128050000Y-55520000D01*
X129550000Y-51430000D02*
X128550000Y-51430000D01*
X128550000Y-50070000D02*
X129550000Y-50070000D01*
X127050000Y-48320000D02*
X128050000Y-48320000D01*
X128050000Y-49680000D02*
X127050000Y-49680000D01*
X127050000Y-44470000D02*
X128050000Y-44470000D01*
X128050000Y-45830000D02*
X127050000Y-45830000D01*
X126450000Y-38510000D02*
X127450000Y-38510000D01*
X127450000Y-39870000D02*
X126450000Y-39870000D01*
X126450000Y-36810000D02*
X127450000Y-36810000D01*
X127450000Y-38170000D02*
X126450000Y-38170000D01*
X110460000Y-51430000D02*
X111460000Y-51430000D01*
X111460000Y-52790000D02*
X110460000Y-52790000D01*
X111460000Y-51080000D02*
X110460000Y-51080000D01*
X110460000Y-49720000D02*
X111460000Y-49720000D01*
X112420000Y-39120000D02*
X112420000Y-38120000D01*
X113780000Y-38120000D02*
X113780000Y-39120000D01*
X125960000Y-41590000D02*
X124960000Y-41590000D01*
X124960000Y-40230000D02*
X125960000Y-40230000D01*
X119180000Y-37080000D02*
X118180000Y-37080000D01*
X118180000Y-35720000D02*
X119180000Y-35720000D01*
X119700000Y-47380000D02*
X118700000Y-47380000D01*
X118700000Y-46020000D02*
X119700000Y-46020000D01*
X119700000Y-49105000D02*
X118700000Y-49105000D01*
X118700000Y-47745000D02*
X119700000Y-47745000D01*
X118180000Y-37460000D02*
X119180000Y-37460000D01*
X119180000Y-38820000D02*
X118180000Y-38820000D01*
X103975000Y-33345000D02*
X104975000Y-33345000D01*
X104975000Y-34705000D02*
X103975000Y-34705000D01*
X91730000Y-55550000D02*
X91730000Y-56550000D01*
X90370000Y-56550000D02*
X90370000Y-55550000D01*
X104025000Y-45170000D02*
X105025000Y-45170000D01*
X105025000Y-46530000D02*
X104025000Y-46530000D01*
X104025000Y-49870000D02*
X105025000Y-49870000D01*
X105025000Y-51230000D02*
X104025000Y-51230000D01*
X102305000Y-55550000D02*
X102305000Y-56550000D01*
X100945000Y-56550000D02*
X100945000Y-55550000D01*
X99605000Y-45850000D02*
X99605000Y-46850000D01*
X98245000Y-46850000D02*
X98245000Y-45850000D01*
X105025000Y-48105000D02*
X104025000Y-48105000D01*
X104025000Y-46745000D02*
X105025000Y-46745000D01*
X105025000Y-49655000D02*
X104025000Y-49655000D01*
X104025000Y-48295000D02*
X105025000Y-48295000D01*
X71350000Y-40500000D02*
X71350000Y-36900000D01*
X71338478Y-40538478D02*
G75*
G02X66900000Y-38700000I-1838478J1838478D01*
G01*
X71338478Y-36861522D02*
G75*
G03X66900000Y-38700000I-1838478J-1838478D01*
G01*
X77175000Y-94905000D02*
X77175000Y-91305000D01*
X77163478Y-94943478D02*
G75*
G02X72725000Y-93105000I-1838478J1838478D01*
G01*
X77163478Y-91266522D02*
G75*
G03X72725000Y-93105000I-1838478J-1838478D01*
G01*
X141200000Y-55570000D02*
X141200000Y-59170000D01*
X141211522Y-55531522D02*
G75*
G02X145650000Y-57370000I1838478J-1838478D01*
G01*
X141211522Y-59208478D02*
G75*
G03X145650000Y-57370000I1838478J1838478D01*
G01*
D12*
X100339000Y-40861000D02*
G75*
G03X104911000Y-40861000I2286000J2286000D01*
G01*
X104911000Y-36289000D02*
G75*
G03X100339000Y-36289000I-2286000J-2286000D01*
G01*
X106275000Y-42225000D02*
X106275000Y-39975000D01*
X106275000Y-34925000D02*
X106275000Y-37175000D01*
X98975000Y-42225000D02*
X98975000Y-39975000D01*
X98975000Y-34925000D02*
X98975000Y-37175000D01*
X106275000Y-42225000D02*
X98975000Y-42225000D01*
X98975000Y-34925000D02*
X106275000Y-34925000D01*
X148812500Y-105362500D02*
X147612500Y-105362500D01*
X147612500Y-104162500D02*
X148812500Y-104162500D01*
X149362500Y-116762500D02*
X150562500Y-116762500D01*
X150562500Y-117962500D02*
X149362500Y-117962500D01*
X144775000Y-73425000D02*
X144775000Y-72225000D01*
X145975000Y-72225000D02*
X145975000Y-73425000D01*
X138150000Y-71075000D02*
X136950000Y-71075000D01*
X136950000Y-69875000D02*
X138150000Y-69875000D01*
X134225000Y-76075000D02*
X134225000Y-74875000D01*
X135425000Y-74875000D02*
X135425000Y-76075000D01*
X150430000Y-50540000D02*
X149230000Y-50540000D01*
X149230000Y-49340000D02*
X150430000Y-49340000D01*
X145450000Y-42825000D02*
X145450000Y-44025000D01*
X143700000Y-44025000D02*
X143700000Y-42825000D01*
X144475000Y-46250000D02*
X143275000Y-46250000D01*
X143275000Y-45050000D02*
X144475000Y-45050000D01*
X145450000Y-47300000D02*
X145450000Y-48500000D01*
X143700000Y-48500000D02*
X143700000Y-47300000D01*
X144350000Y-62600000D02*
X143150000Y-62600000D01*
X143150000Y-61400000D02*
X144350000Y-61400000D01*
X119050000Y-50300000D02*
X119050000Y-51500000D01*
X117850000Y-51500000D02*
X117850000Y-50300000D01*
D13*
X140285000Y-75715000D02*
X140285000Y-79535000D01*
X140285000Y-79535000D02*
X142065000Y-79535000D01*
X142065000Y-79535000D02*
X142065000Y-75715000D01*
X140285000Y-75715000D02*
X142065000Y-75715000D01*
X142285000Y-75715000D02*
X142285000Y-79535000D01*
X142285000Y-79535000D02*
X144065000Y-79535000D01*
X144065000Y-79535000D02*
X144065000Y-75715000D01*
X142285000Y-75715000D02*
X144065000Y-75715000D01*
X116530000Y-40550000D02*
X116530000Y-36730000D01*
X116530000Y-36730000D02*
X114750000Y-36730000D01*
X114750000Y-36730000D02*
X114750000Y-40550000D01*
X116530000Y-40550000D02*
X114750000Y-40550000D01*
X61365000Y-61790000D02*
X65185000Y-61790000D01*
X65185000Y-61790000D02*
X65185000Y-60010000D01*
X65185000Y-60010000D02*
X61365000Y-60010000D01*
X61365000Y-61790000D02*
X61365000Y-60010000D01*
X51325000Y-59825000D02*
X51325000Y-60825000D01*
X51325000Y-60825000D02*
X53425000Y-60825000D01*
X51325000Y-59825000D02*
X53425000Y-59825000D01*
X51325000Y-62025000D02*
X51325000Y-63025000D01*
X51325000Y-63025000D02*
X53425000Y-63025000D01*
X51325000Y-62025000D02*
X53425000Y-62025000D01*
X136740000Y-83020000D02*
X136740000Y-83950000D01*
X136740000Y-86180000D02*
X136740000Y-85250000D01*
X136740000Y-86180000D02*
X138900000Y-86180000D01*
X136740000Y-83020000D02*
X138200000Y-83020000D01*
X65650000Y-117340000D02*
X64950000Y-117340000D01*
X64950000Y-116140000D02*
X65650000Y-116140000D01*
X60600000Y-77850000D02*
X60600000Y-77150000D01*
X61800000Y-77150000D02*
X61800000Y-77850000D01*
X70125000Y-82625000D02*
X70125000Y-83625000D01*
X71825000Y-83625000D02*
X71825000Y-82625000D01*
X70125000Y-86325000D02*
X70125000Y-87325000D01*
X71825000Y-87325000D02*
X71825000Y-86325000D01*
X68625000Y-75025000D02*
X68625000Y-75725000D01*
X67425000Y-75725000D02*
X67425000Y-75025000D01*
X61800000Y-80050000D02*
X61800000Y-80750000D01*
X60600000Y-80750000D02*
X60600000Y-80050000D01*
X110055000Y-41075000D02*
X110055000Y-39075000D01*
X107095000Y-39075000D02*
X107095000Y-41075000D01*
X89545000Y-58550000D02*
X89545000Y-60550000D01*
X92505000Y-60550000D02*
X92505000Y-58550000D01*
X107300000Y-35925000D02*
X107300000Y-35225000D01*
X108500000Y-35225000D02*
X108500000Y-35925000D01*
X94350000Y-100100000D02*
X93650000Y-100100000D01*
X93650000Y-98900000D02*
X94350000Y-98900000D01*
X97000000Y-37650000D02*
X97000000Y-36950000D01*
X98200000Y-36950000D02*
X98200000Y-37650000D01*
X95600000Y-53250000D02*
X94900000Y-53250000D01*
X94900000Y-52050000D02*
X95600000Y-52050000D01*
X93557500Y-35537500D02*
X93557500Y-37537500D01*
X96517500Y-37537500D02*
X96517500Y-35537500D01*
X66230000Y-68400000D02*
X66230000Y-66400000D01*
X63270000Y-66400000D02*
X63270000Y-68400000D01*
X91312500Y-37637500D02*
X91312500Y-36937500D01*
X92512500Y-36937500D02*
X92512500Y-37637500D01*
X68050000Y-66300000D02*
X68050000Y-67000000D01*
X66850000Y-67000000D02*
X66850000Y-66300000D01*
X89575000Y-33500000D02*
X90275000Y-33500000D01*
X90275000Y-34700000D02*
X89575000Y-34700000D01*
X68050000Y-69100000D02*
X68050000Y-69800000D01*
X66850000Y-69800000D02*
X66850000Y-69100000D01*
X91725000Y-45745000D02*
X89725000Y-45745000D01*
X89725000Y-48705000D02*
X91725000Y-48705000D01*
X72125000Y-60445000D02*
X70125000Y-60445000D01*
X70125000Y-63405000D02*
X72125000Y-63405000D01*
X91312500Y-41037500D02*
X91312500Y-40337500D01*
X92512500Y-40337500D02*
X92512500Y-41037500D01*
X66850000Y-64225000D02*
X66850000Y-63525000D01*
X68050000Y-63525000D02*
X68050000Y-64225000D01*
X72630000Y-56300000D02*
X72630000Y-54300000D01*
X69670000Y-54300000D02*
X69670000Y-56300000D01*
X82295000Y-48075000D02*
X82295000Y-50075000D01*
X85255000Y-50075000D02*
X85255000Y-48075000D01*
X69720000Y-44150000D02*
X69720000Y-46150000D01*
X72680000Y-46150000D02*
X72680000Y-44150000D01*
X68255000Y-56300000D02*
X68255000Y-54300000D01*
X65295000Y-54300000D02*
X65295000Y-56300000D01*
X65220000Y-44150000D02*
X65220000Y-46150000D01*
X68180000Y-46150000D02*
X68180000Y-44150000D01*
X150050000Y-123200000D02*
X150750000Y-123200000D01*
X150750000Y-124400000D02*
X150050000Y-124400000D01*
X144000000Y-120700000D02*
X144700000Y-120700000D01*
X144700000Y-121900000D02*
X144000000Y-121900000D01*
X145060000Y-103260000D02*
X145060000Y-104260000D01*
X146760000Y-104260000D02*
X146760000Y-103260000D01*
X151912500Y-103912500D02*
X150912500Y-103912500D01*
X150912500Y-105612500D02*
X151912500Y-105612500D01*
X151037500Y-114787500D02*
X151737500Y-114787500D01*
X151737500Y-115987500D02*
X151037500Y-115987500D01*
X150812500Y-106037500D02*
X151512500Y-106037500D01*
X151512500Y-107237500D02*
X150812500Y-107237500D01*
X147437500Y-115987500D02*
X146737500Y-115987500D01*
X146737500Y-114787500D02*
X147437500Y-114787500D01*
X147437500Y-107237500D02*
X146737500Y-107237500D01*
X146737500Y-106037500D02*
X147437500Y-106037500D01*
X155075000Y-73925000D02*
X155075000Y-74625000D01*
X153875000Y-74625000D02*
X153875000Y-73925000D01*
X146337500Y-118212500D02*
X147337500Y-118212500D01*
X147337500Y-116512500D02*
X146337500Y-116512500D01*
X152200000Y-81670000D02*
X152200000Y-82370000D01*
X151000000Y-82370000D02*
X151000000Y-81670000D01*
X153270000Y-87530000D02*
X153270000Y-88230000D01*
X152070000Y-88230000D02*
X152070000Y-87530000D01*
X153600000Y-99400000D02*
X153600000Y-98700000D01*
X154800000Y-98700000D02*
X154800000Y-99400000D01*
X151200000Y-70150000D02*
X151900000Y-70150000D01*
X151900000Y-71350000D02*
X151200000Y-71350000D01*
X146225000Y-72025000D02*
X146225000Y-73025000D01*
X147925000Y-73025000D02*
X147925000Y-72025000D01*
X153525000Y-116500000D02*
X152525000Y-116500000D01*
X152525000Y-118200000D02*
X153525000Y-118200000D01*
X143875000Y-71100000D02*
X144875000Y-71100000D01*
X144875000Y-69400000D02*
X143875000Y-69400000D01*
X137850000Y-69550000D02*
X137150000Y-69550000D01*
X137150000Y-68350000D02*
X137850000Y-68350000D01*
X137250000Y-71375000D02*
X137950000Y-71375000D01*
X137950000Y-72575000D02*
X137250000Y-72575000D01*
X161525000Y-43400000D02*
X160825000Y-43400000D01*
X160825000Y-42200000D02*
X161525000Y-42200000D01*
X159475000Y-46020000D02*
X161475000Y-46020000D01*
X161475000Y-43980000D02*
X159475000Y-43980000D01*
X135425000Y-77875000D02*
X135425000Y-78575000D01*
X134225000Y-78575000D02*
X134225000Y-77875000D01*
X139100000Y-80875000D02*
X139100000Y-81575000D01*
X137900000Y-81575000D02*
X137900000Y-80875000D01*
X137600000Y-80875000D02*
X137600000Y-81575000D01*
X136400000Y-81575000D02*
X136400000Y-80875000D01*
X148025000Y-49030000D02*
X150025000Y-49030000D01*
X150025000Y-46070000D02*
X148025000Y-46070000D01*
X134225000Y-73050000D02*
X134225000Y-72350000D01*
X135425000Y-72350000D02*
X135425000Y-73050000D01*
X150125000Y-45600000D02*
X149425000Y-45600000D01*
X149425000Y-44400000D02*
X150125000Y-44400000D01*
X138025000Y-88075000D02*
X138025000Y-88775000D01*
X136825000Y-88775000D02*
X136825000Y-88075000D01*
X147575000Y-41650000D02*
X146875000Y-41650000D01*
X146875000Y-40450000D02*
X147575000Y-40450000D01*
X148730000Y-51970000D02*
X148030000Y-51970000D01*
X148030000Y-50770000D02*
X148730000Y-50770000D01*
X143725000Y-39550000D02*
X143725000Y-40550000D01*
X145425000Y-40550000D02*
X145425000Y-39550000D01*
X136750000Y-96625000D02*
X136750000Y-97325000D01*
X135550000Y-97325000D02*
X135550000Y-96625000D01*
X138400000Y-96625000D02*
X138400000Y-97325000D01*
X137200000Y-97325000D02*
X137200000Y-96625000D01*
X140775000Y-44150000D02*
X140775000Y-45150000D01*
X142475000Y-45150000D02*
X142475000Y-44150000D01*
X145325000Y-61600000D02*
X145325000Y-60900000D01*
X146525000Y-60900000D02*
X146525000Y-61600000D01*
X143075000Y-51325000D02*
X144075000Y-51325000D01*
X144075000Y-49625000D02*
X143075000Y-49625000D01*
X143450000Y-59975000D02*
X144150000Y-59975000D01*
X144150000Y-61175000D02*
X143450000Y-61175000D01*
X145175000Y-52575000D02*
X145175000Y-53275000D01*
X143975000Y-53275000D02*
X143975000Y-52575000D01*
X141150000Y-57750000D02*
X141150000Y-58450000D01*
X139950000Y-58450000D02*
X139950000Y-57750000D01*
X115335000Y-76650000D02*
X114635000Y-76650000D01*
X114635000Y-75450000D02*
X115335000Y-75450000D01*
X115125000Y-60400000D02*
X115125000Y-59700000D01*
X116325000Y-59700000D02*
X116325000Y-60400000D01*
X121375000Y-57600000D02*
X120675000Y-57600000D01*
X120675000Y-56400000D02*
X121375000Y-56400000D01*
X119425000Y-60400000D02*
X119425000Y-59700000D01*
X120625000Y-59700000D02*
X120625000Y-60400000D01*
X124850000Y-55925000D02*
X123850000Y-55925000D01*
X123850000Y-57625000D02*
X124850000Y-57625000D01*
X125900000Y-59700000D02*
X125900000Y-60400000D01*
X124700000Y-60400000D02*
X124700000Y-59700000D01*
X129445000Y-58300000D02*
X129445000Y-60300000D01*
X132405000Y-60300000D02*
X132405000Y-58300000D01*
X123875000Y-53825000D02*
X123875000Y-53125000D01*
X125075000Y-53125000D02*
X125075000Y-53825000D01*
X121225000Y-55075000D02*
X122225000Y-55075000D01*
X122225000Y-53375000D02*
X121225000Y-53375000D01*
X129400000Y-44075000D02*
X128700000Y-44075000D01*
X128700000Y-42875000D02*
X129400000Y-42875000D01*
X127225000Y-46225000D02*
X127925000Y-46225000D01*
X127925000Y-47425000D02*
X127225000Y-47425000D01*
X126200000Y-36430000D02*
X127200000Y-36430000D01*
X127200000Y-34730000D02*
X126200000Y-34730000D01*
X125310000Y-38090000D02*
X125310000Y-38790000D01*
X124110000Y-38790000D02*
X124110000Y-38090000D01*
X123390000Y-42450000D02*
X123390000Y-43150000D01*
X122190000Y-43150000D02*
X122190000Y-42450000D01*
X118120000Y-40550000D02*
X118120000Y-41550000D01*
X119820000Y-41550000D02*
X119820000Y-40550000D01*
X122390000Y-34730000D02*
X121390000Y-34730000D01*
X121390000Y-36430000D02*
X122390000Y-36430000D01*
X108210000Y-55260000D02*
X107510000Y-55260000D01*
X107510000Y-54060000D02*
X108210000Y-54060000D01*
X120400000Y-44650000D02*
X120400000Y-43950000D01*
X121600000Y-43950000D02*
X121600000Y-44650000D01*
X121100000Y-51700000D02*
X121100000Y-50700000D01*
X119400000Y-50700000D02*
X119400000Y-51700000D01*
X108210000Y-60280000D02*
X107510000Y-60280000D01*
X107510000Y-59080000D02*
X108210000Y-59080000D01*
X100050000Y-44925000D02*
X99350000Y-44925000D01*
X99350000Y-43725000D02*
X100050000Y-43725000D01*
X107600000Y-46325000D02*
X107600000Y-47025000D01*
X106400000Y-47025000D02*
X106400000Y-46325000D01*
X106400000Y-50050000D02*
X106400000Y-49350000D01*
X107600000Y-49350000D02*
X107600000Y-50050000D01*
D12*
X93335000Y-99510000D02*
G75*
G03X96735000Y-102910000I3400000J0D01*
G01*
X96735000Y-77110000D02*
G75*
G03X93335000Y-80510000I0J-3400000D01*
G01*
X119135000Y-80510000D02*
G75*
G03X115735000Y-77110000I-3400000J0D01*
G01*
X119135000Y-102910000D02*
X119135000Y-80510000D01*
X115735000Y-77110000D02*
X96735000Y-77110000D01*
X93335000Y-80510000D02*
X93335000Y-99510000D01*
X96735000Y-102910000D02*
X119135000Y-102910000D01*
D14*
X116435000Y-99510000D02*
G75*
G03X116435000Y-99510000I-700000J0D01*
G01*
D12*
X67288000Y-47778000D02*
X67288000Y-48003000D01*
X70638000Y-47778000D02*
X70638000Y-48078000D01*
X70638000Y-52628000D02*
X70638000Y-52328000D01*
X67288000Y-52628000D02*
X67288000Y-52328000D01*
X67288000Y-47778000D02*
X70638000Y-47778000D01*
X67288000Y-52628000D02*
X70638000Y-52628000D01*
X67288000Y-48003000D02*
X66063000Y-48003000D01*
X177500000Y-42000000D02*
X177000000Y-41500000D01*
X177000000Y-41500000D02*
X172000000Y-41500000D01*
X172000000Y-41500000D02*
X171500000Y-42000000D01*
X171500000Y-42000000D02*
X171500000Y-48000000D01*
X171500000Y-48000000D02*
X172000000Y-48500000D01*
X172000000Y-48500000D02*
X177000000Y-48500000D01*
X177000000Y-48500000D02*
X177500000Y-48000000D01*
X168500000Y-42000000D02*
X177500000Y-42000000D01*
X177500000Y-42000000D02*
X177500000Y-48000000D01*
X177500000Y-48000000D02*
X168500000Y-48000000D01*
X167500000Y-39500000D02*
X168450000Y-39500000D01*
X168450000Y-39500000D02*
X168450000Y-50500000D01*
X168450000Y-50500000D02*
X167500000Y-50500000D01*
X177500000Y-56000000D02*
X177000000Y-55500000D01*
X177000000Y-55500000D02*
X172000000Y-55500000D01*
X172000000Y-55500000D02*
X171500000Y-56000000D01*
X171500000Y-56000000D02*
X171500000Y-62000000D01*
X171500000Y-62000000D02*
X172000000Y-62500000D01*
X172000000Y-62500000D02*
X177000000Y-62500000D01*
X177000000Y-62500000D02*
X177500000Y-62000000D01*
X168500000Y-56000000D02*
X177500000Y-56000000D01*
X177500000Y-56000000D02*
X177500000Y-62000000D01*
X177500000Y-62000000D02*
X168500000Y-62000000D01*
X167500000Y-53500000D02*
X168450000Y-53500000D01*
X168450000Y-53500000D02*
X168450000Y-64500000D01*
X168450000Y-64500000D02*
X167500000Y-64500000D01*
X177500000Y-112000000D02*
X177000000Y-111500000D01*
X177000000Y-111500000D02*
X172000000Y-111500000D01*
X172000000Y-111500000D02*
X171500000Y-112000000D01*
X171500000Y-112000000D02*
X171500000Y-118000000D01*
X171500000Y-118000000D02*
X172000000Y-118500000D01*
X172000000Y-118500000D02*
X177000000Y-118500000D01*
X177000000Y-118500000D02*
X177500000Y-118000000D01*
X168500000Y-112000000D02*
X177500000Y-112000000D01*
X177500000Y-112000000D02*
X177500000Y-118000000D01*
X177500000Y-118000000D02*
X168500000Y-118000000D01*
X167500000Y-109500000D02*
X168450000Y-109500000D01*
X168450000Y-109500000D02*
X168450000Y-120500000D01*
X168450000Y-120500000D02*
X167500000Y-120500000D01*
X177500000Y-98000000D02*
X177000000Y-97500000D01*
X177000000Y-97500000D02*
X172000000Y-97500000D01*
X172000000Y-97500000D02*
X171500000Y-98000000D01*
X171500000Y-98000000D02*
X171500000Y-104000000D01*
X171500000Y-104000000D02*
X172000000Y-104500000D01*
X172000000Y-104500000D02*
X177000000Y-104500000D01*
X177000000Y-104500000D02*
X177500000Y-104000000D01*
X168500000Y-98000000D02*
X177500000Y-98000000D01*
X177500000Y-98000000D02*
X177500000Y-104000000D01*
X177500000Y-104000000D02*
X168500000Y-104000000D01*
X167500000Y-95500000D02*
X168450000Y-95500000D01*
X168450000Y-95500000D02*
X168450000Y-106500000D01*
X168450000Y-106500000D02*
X167500000Y-106500000D01*
X177500000Y-84000000D02*
X177000000Y-83500000D01*
X177000000Y-83500000D02*
X172000000Y-83500000D01*
X172000000Y-83500000D02*
X171500000Y-84000000D01*
X171500000Y-84000000D02*
X171500000Y-90000000D01*
X171500000Y-90000000D02*
X172000000Y-90500000D01*
X172000000Y-90500000D02*
X177000000Y-90500000D01*
X177000000Y-90500000D02*
X177500000Y-90000000D01*
X168500000Y-84000000D02*
X177500000Y-84000000D01*
X177500000Y-84000000D02*
X177500000Y-90000000D01*
X177500000Y-90000000D02*
X168500000Y-90000000D01*
X167500000Y-81500000D02*
X168450000Y-81500000D01*
X168450000Y-81500000D02*
X168450000Y-92500000D01*
X168450000Y-92500000D02*
X167500000Y-92500000D01*
X177500000Y-70000000D02*
X177000000Y-69500000D01*
X177000000Y-69500000D02*
X172000000Y-69500000D01*
X172000000Y-69500000D02*
X171500000Y-70000000D01*
X171500000Y-70000000D02*
X171500000Y-76000000D01*
X171500000Y-76000000D02*
X172000000Y-76500000D01*
X172000000Y-76500000D02*
X177000000Y-76500000D01*
X177000000Y-76500000D02*
X177500000Y-76000000D01*
X168500000Y-70000000D02*
X177500000Y-70000000D01*
X177500000Y-70000000D02*
X177500000Y-76000000D01*
X177500000Y-76000000D02*
X168500000Y-76000000D01*
X167500000Y-67500000D02*
X168450000Y-67500000D01*
X168450000Y-67500000D02*
X168450000Y-78500000D01*
X168450000Y-78500000D02*
X167500000Y-78500000D01*
X60252381Y-83300476D02*
X60252381Y-83871905D01*
X60252381Y-83586191D02*
X59252381Y-83586191D01*
X59395238Y-83681429D01*
X59490476Y-83776667D01*
X59538095Y-83871905D01*
X59347619Y-82919524D02*
X59300000Y-82871905D01*
X59252381Y-82776667D01*
X59252381Y-82538571D01*
X59300000Y-82443333D01*
X59347619Y-82395714D01*
X59442857Y-82348095D01*
X59538095Y-82348095D01*
X59680952Y-82395714D01*
X60252381Y-82967143D01*
X60252381Y-82348095D01*
X58532381Y-113214286D02*
X57532381Y-113214286D01*
X57913333Y-113214286D02*
X57865714Y-113119048D01*
X57865714Y-112928571D01*
X57913333Y-112833333D01*
X57960952Y-112785714D01*
X58056190Y-112738095D01*
X58341905Y-112738095D01*
X58437143Y-112785714D01*
X58484762Y-112833333D01*
X58532381Y-112928571D01*
X58532381Y-113119048D01*
X58484762Y-113214286D01*
X55752381Y-112785714D02*
X55228571Y-112785714D01*
X55133333Y-112833333D01*
X55085714Y-112928571D01*
X55085714Y-113119048D01*
X55133333Y-113214286D01*
X55704762Y-112785714D02*
X55752381Y-112880952D01*
X55752381Y-113119048D01*
X55704762Y-113214286D01*
X55609524Y-113261905D01*
X55514286Y-113261905D01*
X55419048Y-113214286D01*
X55371429Y-113119048D01*
X55371429Y-112880952D01*
X55323810Y-112785714D01*
X58292381Y-71214286D02*
X57292381Y-71214286D01*
X57673333Y-71214286D02*
X57625714Y-71119048D01*
X57625714Y-70928571D01*
X57673333Y-70833333D01*
X57720952Y-70785714D01*
X57816190Y-70738095D01*
X58101905Y-70738095D01*
X58197143Y-70785714D01*
X58244762Y-70833333D01*
X58292381Y-70928571D01*
X58292381Y-71119048D01*
X58244762Y-71214286D01*
X55752381Y-70785714D02*
X55228571Y-70785714D01*
X55133333Y-70833333D01*
X55085714Y-70928571D01*
X55085714Y-71119048D01*
X55133333Y-71214286D01*
X55704762Y-70785714D02*
X55752381Y-70880952D01*
X55752381Y-71119048D01*
X55704762Y-71214286D01*
X55609524Y-71261905D01*
X55514286Y-71261905D01*
X55419048Y-71214286D01*
X55371429Y-71119048D01*
X55371429Y-70880952D01*
X55323810Y-70785714D01*
X60252381Y-73140476D02*
X60252381Y-73711905D01*
X60252381Y-73426191D02*
X59252381Y-73426191D01*
X59395238Y-73521429D01*
X59490476Y-73616667D01*
X59538095Y-73711905D01*
X59252381Y-72283333D02*
X59252381Y-72473810D01*
X59300000Y-72569048D01*
X59347619Y-72616667D01*
X59490476Y-72711905D01*
X59680952Y-72759524D01*
X60061905Y-72759524D01*
X60157143Y-72711905D01*
X60204762Y-72664286D01*
X60252381Y-72569048D01*
X60252381Y-72378571D01*
X60204762Y-72283333D01*
X60157143Y-72235714D01*
X60061905Y-72188095D01*
X59823810Y-72188095D01*
X59728571Y-72235714D01*
X59680952Y-72283333D01*
X59633333Y-72378571D01*
X59633333Y-72569048D01*
X59680952Y-72664286D01*
X59728571Y-72711905D01*
X59823810Y-72759524D01*
X59680952Y-93365238D02*
X59633333Y-93460476D01*
X59585714Y-93508095D01*
X59490476Y-93555714D01*
X59442857Y-93555714D01*
X59347619Y-93508095D01*
X59300000Y-93460476D01*
X59252381Y-93365238D01*
X59252381Y-93174761D01*
X59300000Y-93079523D01*
X59347619Y-93031904D01*
X59442857Y-92984285D01*
X59490476Y-92984285D01*
X59585714Y-93031904D01*
X59633333Y-93079523D01*
X59680952Y-93174761D01*
X59680952Y-93365238D01*
X59728571Y-93460476D01*
X59776190Y-93508095D01*
X59871429Y-93555714D01*
X60061905Y-93555714D01*
X60157143Y-93508095D01*
X60204762Y-93460476D01*
X60252381Y-93365238D01*
X60252381Y-93174761D01*
X60204762Y-93079523D01*
X60157143Y-93031904D01*
X60061905Y-92984285D01*
X59871429Y-92984285D01*
X59776190Y-93031904D01*
X59728571Y-93079523D01*
X59680952Y-93174761D01*
X59585714Y-103239523D02*
X60252381Y-103239523D01*
X59204762Y-103477619D02*
X59919048Y-103715714D01*
X59919048Y-103096666D01*
X60252381Y-110764285D02*
X60252381Y-111335714D01*
X60252381Y-111050000D02*
X59252381Y-111050000D01*
X59395238Y-111145238D01*
X59490476Y-111240476D01*
X59538095Y-111335714D01*
M02*
