G04 #@! TF.GenerationSoftware,KiCad,Pcbnew,5.0.0*
G04 #@! TF.CreationDate,2018-10-24T02:35:52+02:00*
G04 #@! TF.ProjectId,vcg,7663672E6B696361645F706362000000,rev?*
G04 #@! TF.SameCoordinates,Original*
G04 #@! TF.FileFunction,Soldermask,Top*
G04 #@! TF.FilePolarity,Negative*
%FSLAX46Y46*%
G04 Gerber Fmt 4.6, Leading zero omitted, Abs format (unit mm)*
G04 Created by KiCad (PCBNEW 5.0.0) date Wed Oct 24 02:35:52 2018*
%MOMM*%
%LPD*%
G01*
G04 APERTURE LIST*
%ADD10C,0.150000*%
%ADD11R,2.500000X1.000000*%
%ADD12R,1.000000X2.500000*%
%ADD13R,1.250000X1.000000*%
%ADD14R,1.000000X1.250000*%
%ADD15R,1.000000X1.600000*%
%ADD16C,0.800000*%
%ADD17R,1.500000X2.200000*%
%ADD18R,4.600000X1.100000*%
%ADD19R,9.400000X10.800000*%
%ADD20R,0.800000X0.750000*%
%ADD21R,2.200000X1.500000*%
%ADD22R,0.600000X2.200000*%
%ADD23R,3.500000X2.200000*%
%ADD24R,0.500000X0.900000*%
%ADD25R,0.900000X0.500000*%
%ADD26C,1.500000*%
%ADD27R,0.900000X2.400000*%
%ADD28C,2.000000*%
%ADD29C,3.600000*%
%ADD30C,1.800000*%
%ADD31C,3.100000*%
%ADD32R,1.550000X0.600000*%
%ADD33R,1.500000X0.600000*%
%ADD34R,2.200000X0.600000*%
%ADD35R,2.200000X3.500000*%
%ADD36R,0.650000X1.060000*%
%ADD37R,1.450000X0.450000*%
%ADD38R,0.450000X1.450000*%
%ADD39R,1.060000X0.650000*%
%ADD40R,0.420000X0.890000*%
%ADD41R,0.700000X0.250000*%
%ADD42R,0.850000X0.825000*%
%ADD43R,0.900000X0.800000*%
%ADD44R,0.760000X1.650000*%
%ADD45R,0.900000X1.700000*%
%ADD46O,1.500000X0.900000*%
%ADD47R,1.500000X0.900000*%
%ADD48C,6.400000*%
%ADD49R,0.700000X0.700000*%
%ADD50R,1.300000X0.700000*%
%ADD51R,1.270000X0.970000*%
%ADD52R,0.970000X1.270000*%
%ADD53C,2.540000*%
%ADD54R,0.800000X0.800000*%
%ADD55R,0.750000X0.800000*%
%ADD56C,1.050000*%
%ADD57R,1.400000X0.300000*%
%ADD58R,1.650000X2.850000*%
%ADD59R,4.900000X1.800000*%
%ADD60R,5.200000X1.800000*%
%ADD61R,1.727200X2.032000*%
%ADD62O,1.727200X2.032000*%
%ADD63C,0.600000*%
G04 APERTURE END LIST*
D10*
G36*
X50000000Y-130000000D02*
X50000000Y-129000000D01*
X168500000Y-129000000D01*
X168500000Y-130000000D01*
X50000000Y-130000000D01*
G37*
X50000000Y-130000000D02*
X50000000Y-129000000D01*
X168500000Y-129000000D01*
X168500000Y-130000000D01*
X50000000Y-130000000D01*
D11*
G04 #@! TO.C,C96*
X153100000Y-58690000D03*
X153100000Y-61690000D03*
G04 #@! TD*
D12*
G04 #@! TO.C,C93*
X151060000Y-54790000D03*
X154060000Y-54790000D03*
G04 #@! TD*
D11*
G04 #@! TO.C,C84*
X108575000Y-41575000D03*
X108575000Y-38575000D03*
G04 #@! TD*
G04 #@! TO.C,C83*
X91025000Y-58050000D03*
X91025000Y-61050000D03*
G04 #@! TD*
G04 #@! TO.C,C78*
X95037500Y-35037500D03*
X95037500Y-38037500D03*
G04 #@! TD*
G04 #@! TO.C,C77*
X64750000Y-68900000D03*
X64750000Y-65900000D03*
G04 #@! TD*
D12*
G04 #@! TO.C,C72*
X92225000Y-47225000D03*
X89225000Y-47225000D03*
G04 #@! TD*
G04 #@! TO.C,C71*
X72625000Y-61925000D03*
X69625000Y-61925000D03*
G04 #@! TD*
D11*
G04 #@! TO.C,C68*
X71150000Y-56800000D03*
X71150000Y-53800000D03*
G04 #@! TD*
G04 #@! TO.C,C67*
X83775000Y-47575000D03*
X83775000Y-50575000D03*
G04 #@! TD*
G04 #@! TO.C,C65*
X71200000Y-43650000D03*
X71200000Y-46650000D03*
G04 #@! TD*
G04 #@! TO.C,C64*
X66775000Y-56800000D03*
X66775000Y-53800000D03*
G04 #@! TD*
G04 #@! TO.C,C63*
X66700000Y-43650000D03*
X66700000Y-46650000D03*
G04 #@! TD*
D12*
G04 #@! TO.C,C38*
X147525000Y-47550000D03*
X150525000Y-47550000D03*
G04 #@! TD*
D11*
G04 #@! TO.C,C17*
X130925000Y-57800000D03*
X130925000Y-60800000D03*
G04 #@! TD*
D13*
G04 #@! TO.C,C88*
X70975000Y-84125000D03*
X70975000Y-82125000D03*
G04 #@! TD*
G04 #@! TO.C,C87*
X70975000Y-87825000D03*
X70975000Y-85825000D03*
G04 #@! TD*
G04 #@! TO.C,C60*
X145910000Y-104760000D03*
X145910000Y-102760000D03*
G04 #@! TD*
D14*
G04 #@! TO.C,C59*
X150412500Y-104762500D03*
X152412500Y-104762500D03*
G04 #@! TD*
G04 #@! TO.C,C53*
X147837500Y-117362500D03*
X145837500Y-117362500D03*
G04 #@! TD*
G04 #@! TO.C,C47*
X152025000Y-117350000D03*
X154025000Y-117350000D03*
G04 #@! TD*
G04 #@! TO.C,C46*
X145375000Y-70250000D03*
X143375000Y-70250000D03*
G04 #@! TD*
D13*
G04 #@! TO.C,C32*
X144575000Y-41050000D03*
X144575000Y-39050000D03*
G04 #@! TD*
G04 #@! TO.C,C29*
X141625000Y-45650000D03*
X141625000Y-43650000D03*
G04 #@! TD*
D14*
G04 #@! TO.C,C27*
X144575000Y-50475000D03*
X142575000Y-50475000D03*
G04 #@! TD*
G04 #@! TO.C,C19*
X123350000Y-56775000D03*
X125350000Y-56775000D03*
G04 #@! TD*
G04 #@! TO.C,C15*
X122725000Y-54225000D03*
X120725000Y-54225000D03*
G04 #@! TD*
G04 #@! TO.C,C12*
X127700000Y-35580000D03*
X125700000Y-35580000D03*
G04 #@! TD*
D13*
G04 #@! TO.C,C9*
X118970000Y-42050000D03*
X118970000Y-40050000D03*
G04 #@! TD*
D14*
G04 #@! TO.C,C8*
X120890000Y-35580000D03*
X122890000Y-35580000D03*
G04 #@! TD*
D13*
G04 #@! TO.C,C5*
X120250000Y-50200000D03*
X120250000Y-52200000D03*
G04 #@! TD*
G04 #@! TO.C,C48*
X147075000Y-73525000D03*
X147075000Y-71525000D03*
G04 #@! TD*
D15*
G04 #@! TO.C,C42*
X161975000Y-45000000D03*
X158975000Y-45000000D03*
G04 #@! TD*
D16*
G04 #@! TO.C,via*
X161100000Y-119200000D03*
G04 #@! TD*
G04 #@! TO.C,via*
X161100000Y-115600000D03*
G04 #@! TD*
G04 #@! TO.C,via*
X158300000Y-121100000D03*
G04 #@! TD*
G04 #@! TO.C,via*
X157000000Y-119400000D03*
G04 #@! TD*
G04 #@! TO.C,via*
X159400000Y-112300000D03*
G04 #@! TD*
G04 #@! TO.C,via*
X157400000Y-105800000D03*
G04 #@! TD*
G04 #@! TO.C,via*
X159900000Y-108700000D03*
G04 #@! TD*
G04 #@! TO.C,via*
X165800000Y-107900000D03*
G04 #@! TD*
G04 #@! TO.C,via*
X165700000Y-93900000D03*
G04 #@! TD*
G04 #@! TO.C,via*
X141200000Y-103900000D03*
G04 #@! TD*
G04 #@! TO.C,via*
X145100000Y-87200000D03*
G04 #@! TD*
G04 #@! TO.C,via*
X147900000Y-84400000D03*
G04 #@! TD*
G04 #@! TO.C,via*
X160500000Y-82200000D03*
G04 #@! TD*
G04 #@! TO.C,via*
X165800000Y-79900000D03*
G04 #@! TD*
G04 #@! TO.C,via*
X160500000Y-73800000D03*
G04 #@! TD*
G04 #@! TO.C,via*
X156500000Y-70100000D03*
G04 #@! TD*
G04 #@! TO.C,via*
X156600000Y-66400000D03*
G04 #@! TD*
G04 #@! TO.C,via*
X152100000Y-66300000D03*
G04 #@! TD*
G04 #@! TO.C,via*
X160800000Y-63100000D03*
G04 #@! TD*
G04 #@! TO.C,via*
X165800000Y-66000000D03*
G04 #@! TD*
G04 #@! TO.C,via*
X165800000Y-51900000D03*
G04 #@! TD*
G04 #@! TO.C,via*
X161900000Y-40700000D03*
G04 #@! TD*
G04 #@! TO.C,via*
X139500000Y-35900000D03*
G04 #@! TD*
G04 #@! TO.C,via*
X139500000Y-41100000D03*
G04 #@! TD*
G04 #@! TO.C,via*
X139500000Y-48600000D03*
G04 #@! TD*
G04 #@! TO.C,via*
X139500000Y-56100000D03*
G04 #@! TD*
G04 #@! TO.C,via*
X139600000Y-62700000D03*
G04 #@! TD*
G04 #@! TO.C,via*
X136600000Y-66200000D03*
G04 #@! TD*
G04 #@! TO.C,via*
X133900000Y-69000000D03*
G04 #@! TD*
G04 #@! TO.C,via*
X133800000Y-72700000D03*
G04 #@! TD*
G04 #@! TO.C,via*
X133800000Y-78200000D03*
G04 #@! TD*
G04 #@! TO.C,via*
X133900000Y-81200000D03*
G04 #@! TD*
G04 #@! TO.C,via*
X133900000Y-84500000D03*
G04 #@! TD*
G04 #@! TO.C,via*
X134000000Y-89400000D03*
G04 #@! TD*
G04 #@! TO.C,via*
X141100000Y-92200000D03*
G04 #@! TD*
G04 #@! TO.C,via*
X141700000Y-96400000D03*
G04 #@! TD*
G04 #@! TO.C,via*
X141400000Y-100000000D03*
G04 #@! TD*
G04 #@! TO.C,via*
X138300000Y-103100000D03*
G04 #@! TD*
G04 #@! TO.C,via*
X134600000Y-103100000D03*
G04 #@! TD*
G04 #@! TO.C,via*
X134600000Y-109600000D03*
G04 #@! TD*
G04 #@! TO.C,via*
X137600000Y-124200000D03*
G04 #@! TD*
G04 #@! TO.C,via*
X137600000Y-120800000D03*
G04 #@! TD*
G04 #@! TO.C,via*
X134600000Y-115400000D03*
G04 #@! TD*
G04 #@! TO.C,via*
X132800000Y-118200000D03*
G04 #@! TD*
G04 #@! TO.C,via*
X76000000Y-124700000D03*
G04 #@! TD*
G04 #@! TO.C,via*
X68900000Y-106900000D03*
G04 #@! TD*
G04 #@! TO.C,via*
X69900000Y-118600000D03*
G04 #@! TD*
G04 #@! TO.C,via*
X72200000Y-117100000D03*
G04 #@! TD*
G04 #@! TO.C,via*
X72200000Y-111800000D03*
G04 #@! TD*
G04 #@! TO.C,via*
X72100000Y-105500000D03*
G04 #@! TD*
G04 #@! TO.C,via*
X74900000Y-103800000D03*
G04 #@! TD*
G04 #@! TO.C,via*
X74900000Y-110400000D03*
G04 #@! TD*
G04 #@! TO.C,via*
X74900000Y-116200000D03*
G04 #@! TD*
G04 #@! TO.C,via*
X126000000Y-118200000D03*
G04 #@! TD*
G04 #@! TO.C,via*
X118500000Y-118200000D03*
G04 #@! TD*
G04 #@! TO.C,via*
X111000000Y-118200000D03*
G04 #@! TD*
G04 #@! TO.C,via*
X103500000Y-118200000D03*
G04 #@! TD*
G04 #@! TO.C,via*
X96000000Y-118200000D03*
G04 #@! TD*
G04 #@! TO.C,via*
X88500000Y-118200000D03*
G04 #@! TD*
G04 #@! TO.C,via*
X81000000Y-118200000D03*
G04 #@! TD*
G04 #@! TO.C,via*
X78700000Y-116000000D03*
G04 #@! TD*
G04 #@! TO.C,via*
X78700000Y-110200000D03*
G04 #@! TD*
G04 #@! TO.C,via*
X78700000Y-103600000D03*
G04 #@! TD*
G04 #@! TO.C,via*
X78700000Y-96800000D03*
G04 #@! TD*
G04 #@! TO.C,via*
X78700000Y-89200000D03*
G04 #@! TD*
G04 #@! TO.C,via*
X78700000Y-81000000D03*
G04 #@! TD*
G04 #@! TO.C,via*
X74700000Y-71700000D03*
G04 #@! TD*
G04 #@! TO.C,via*
X78600000Y-74500000D03*
G04 #@! TD*
G04 #@! TO.C,via*
X84400000Y-56700000D03*
G04 #@! TD*
G04 #@! TO.C,via*
X79200000Y-61700000D03*
G04 #@! TD*
G04 #@! TO.C,via*
X82500000Y-61700000D03*
G04 #@! TD*
G04 #@! TO.C,via*
X84400000Y-59700000D03*
G04 #@! TD*
G04 #@! TO.C,via*
X89500000Y-55000000D03*
G04 #@! TD*
G04 #@! TO.C,via*
X93300000Y-55000000D03*
G04 #@! TD*
G04 #@! TO.C,via*
X102800000Y-54300000D03*
G04 #@! TD*
G04 #@! TO.C,via*
X100000000Y-55000000D03*
G04 #@! TD*
G04 #@! TO.C,via*
X103400000Y-52600000D03*
G04 #@! TD*
G04 #@! TO.C,via*
X103300000Y-42600000D03*
G04 #@! TD*
G04 #@! TO.C,via*
X103300000Y-40300000D03*
G04 #@! TD*
G04 #@! TO.C,via*
X103200000Y-36000000D03*
G04 #@! TD*
G04 #@! TO.C,via*
X119100000Y-33900000D03*
G04 #@! TD*
G04 #@! TO.C,via*
X122900000Y-33900000D03*
G04 #@! TD*
G04 #@! TO.C,via*
X125600000Y-33900000D03*
G04 #@! TD*
G04 #@! TO.C,via*
X130200000Y-34000000D03*
G04 #@! TD*
G04 #@! TO.C,via*
X133100000Y-34000000D03*
G04 #@! TD*
G04 #@! TO.C,via*
X133000000Y-40500000D03*
G04 #@! TD*
G04 #@! TO.C,via*
X133000000Y-46100000D03*
G04 #@! TD*
G04 #@! TO.C,via*
X133000000Y-51600000D03*
G04 #@! TD*
G04 #@! TO.C,via*
X131000000Y-55900000D03*
G04 #@! TD*
G04 #@! TO.C,via*
X133000000Y-56500000D03*
G04 #@! TD*
G04 #@! TO.C,via*
X126100000Y-66800000D03*
G04 #@! TD*
G04 #@! TO.C,via*
X132900000Y-61900000D03*
G04 #@! TD*
G04 #@! TO.C,via*
X129300000Y-64200000D03*
G04 #@! TD*
G04 #@! TO.C,via*
X126100000Y-70500000D03*
G04 #@! TD*
G04 #@! TO.C,via*
X126100000Y-78000000D03*
G04 #@! TD*
G04 #@! TO.C,via*
X126100000Y-85500000D03*
G04 #@! TD*
G04 #@! TO.C,via*
X130400000Y-90300000D03*
G04 #@! TD*
G04 #@! TO.C,via*
X134500000Y-94300000D03*
G04 #@! TD*
G04 #@! TO.C,via*
X137400000Y-94400000D03*
G04 #@! TD*
G04 #@! TO.C,via*
X139300000Y-96200000D03*
G04 #@! TD*
G04 #@! TO.C,via*
X139400000Y-98600000D03*
G04 #@! TD*
G04 #@! TO.C,via*
X136900000Y-100900000D03*
G04 #@! TD*
G04 #@! TO.C,via*
X132200000Y-100900000D03*
G04 #@! TD*
G04 #@! TO.C,via*
X127700000Y-101000000D03*
G04 #@! TD*
G04 #@! TO.C,via*
X124500000Y-103900000D03*
G04 #@! TD*
G04 #@! TO.C,via*
X104100000Y-60700000D03*
G04 #@! TD*
G04 #@! TO.C,via*
X104100000Y-68200000D03*
G04 #@! TD*
G04 #@! TO.C,via*
X104100000Y-75700000D03*
G04 #@! TD*
G04 #@! TO.C,via*
X104100000Y-83200000D03*
G04 #@! TD*
G04 #@! TO.C,via*
X104100000Y-90700000D03*
G04 #@! TD*
G04 #@! TO.C,via*
X104100000Y-98200000D03*
G04 #@! TD*
G04 #@! TO.C,via*
X121000000Y-107000000D03*
G04 #@! TD*
G04 #@! TO.C,via*
X113000000Y-107000000D03*
G04 #@! TD*
G04 #@! TO.C,via*
X106000000Y-107000000D03*
G04 #@! TD*
G04 #@! TO.C,via*
X98000000Y-107000000D03*
G04 #@! TD*
G04 #@! TO.C,via*
X91000000Y-107000000D03*
G04 #@! TD*
G04 #@! TO.C,via*
X86750000Y-98100000D03*
G04 #@! TD*
G04 #@! TO.C,via*
X86750000Y-90600000D03*
G04 #@! TD*
G04 #@! TO.C,via*
X86750000Y-83100000D03*
G04 #@! TD*
G04 #@! TO.C,via*
X86750000Y-75600000D03*
G04 #@! TD*
G04 #@! TO.C,via*
X86750000Y-68100000D03*
G04 #@! TD*
G04 #@! TO.C,via*
X86750000Y-60600000D03*
G04 #@! TD*
G04 #@! TO.C,via*
X93900000Y-57100000D03*
G04 #@! TD*
G04 #@! TO.C,via*
X96700000Y-57100000D03*
G04 #@! TD*
G04 #@! TO.C,via*
X100200000Y-57100000D03*
G04 #@! TD*
G04 #@! TO.C,via*
X103100000Y-57100000D03*
G04 #@! TD*
G04 #@! TO.C,via*
X104500000Y-55900000D03*
G04 #@! TD*
G04 #@! TO.C,via*
X105700000Y-54300000D03*
G04 #@! TD*
G04 #@! TO.C,via*
X105700000Y-52100000D03*
G04 #@! TD*
G04 #@! TO.C,via*
X105600000Y-42700000D03*
G04 #@! TD*
G04 #@! TO.C,via*
X105600000Y-44300000D03*
G04 #@! TD*
G04 #@! TO.C,via*
X105800000Y-36000000D03*
G04 #@! TD*
G04 #@! TO.C,via*
X107000000Y-33700000D03*
G04 #@! TD*
G04 #@! TO.C,via*
X161500000Y-32000000D03*
G04 #@! TD*
G04 #@! TO.C,via*
X155000000Y-32000000D03*
G04 #@! TD*
G04 #@! TO.C,via*
X147500000Y-32000000D03*
G04 #@! TD*
G04 #@! TO.C,via*
X140000000Y-32000000D03*
G04 #@! TD*
G04 #@! TO.C,via*
X81800000Y-43600000D03*
G04 #@! TD*
G04 #@! TO.C,via*
X79300000Y-43600000D03*
G04 #@! TD*
G04 #@! TO.C,via*
X81800000Y-41100000D03*
G04 #@! TD*
G04 #@! TO.C,via*
X79300000Y-41100000D03*
G04 #@! TD*
G04 #@! TO.C,via*
X76800000Y-41100000D03*
G04 #@! TD*
G04 #@! TO.C,via*
X81800000Y-38600000D03*
G04 #@! TD*
G04 #@! TO.C,via*
X79300000Y-38600000D03*
G04 #@! TD*
G04 #@! TO.C,via*
X76800000Y-38600000D03*
G04 #@! TD*
G04 #@! TO.C,via*
X81800000Y-36100000D03*
G04 #@! TD*
G04 #@! TO.C,via*
X79300000Y-36100000D03*
G04 #@! TD*
D17*
G04 #@! TO.C,L12*
X74425000Y-50575000D03*
X80825000Y-50575000D03*
G04 #@! TD*
D16*
G04 #@! TO.C,via*
X76800000Y-36100000D03*
G04 #@! TD*
G04 #@! TO.C,via*
X103000000Y-32000000D03*
G04 #@! TD*
G04 #@! TO.C,via*
X96500000Y-32000000D03*
G04 #@! TD*
G04 #@! TO.C,via*
X59000000Y-32000000D03*
G04 #@! TD*
G04 #@! TO.C,via*
X89000000Y-32000000D03*
G04 #@! TD*
G04 #@! TO.C,via*
X81500000Y-32000000D03*
G04 #@! TD*
G04 #@! TO.C,via*
X74000000Y-32000000D03*
G04 #@! TD*
G04 #@! TO.C,via*
X66500000Y-32000000D03*
G04 #@! TD*
G04 #@! TO.C,via*
X156500000Y-128000000D03*
G04 #@! TD*
G04 #@! TO.C,via*
X149000000Y-128000000D03*
G04 #@! TD*
G04 #@! TO.C,via*
X141500000Y-128000000D03*
G04 #@! TD*
G04 #@! TO.C,via*
X134000000Y-128000000D03*
G04 #@! TD*
G04 #@! TO.C,via*
X126500000Y-128000000D03*
G04 #@! TD*
G04 #@! TO.C,via*
X119000000Y-128000000D03*
G04 #@! TD*
G04 #@! TO.C,via*
X111500000Y-128000000D03*
G04 #@! TD*
G04 #@! TO.C,via*
X104000000Y-128000000D03*
G04 #@! TD*
G04 #@! TO.C,via*
X96500000Y-128000000D03*
G04 #@! TD*
G04 #@! TO.C,via*
X89000000Y-128000000D03*
G04 #@! TD*
G04 #@! TO.C,via*
X81500000Y-128000000D03*
G04 #@! TD*
G04 #@! TO.C,via*
X74000000Y-128000000D03*
G04 #@! TD*
G04 #@! TO.C,via*
X66500000Y-128000000D03*
G04 #@! TD*
D18*
G04 #@! TO.C,U18*
X88150000Y-43137500D03*
X88150000Y-41437500D03*
X88150000Y-39737500D03*
X88150000Y-38037500D03*
X88150000Y-36337500D03*
D19*
X79000000Y-39737500D03*
G04 #@! TD*
D20*
G04 #@! TO.C,C66*
X85650000Y-52550000D03*
X87150000Y-52550000D03*
G04 #@! TD*
D21*
G04 #@! TO.C,L13*
X96750000Y-54625000D03*
X96750000Y-61025000D03*
G04 #@! TD*
D22*
G04 #@! TO.C,U21*
X155770000Y-54800000D03*
X160850000Y-54800000D03*
X158310000Y-54800000D03*
D23*
X158310000Y-48600000D03*
D22*
X157040000Y-54800000D03*
X159580000Y-54800000D03*
G04 #@! TD*
D24*
G04 #@! TO.C,R79*
X150350000Y-51370000D03*
X151850000Y-51370000D03*
G04 #@! TD*
G04 #@! TO.C,R46*
X149130000Y-52870000D03*
X147630000Y-52870000D03*
G04 #@! TD*
D25*
G04 #@! TO.C,R39*
X147550000Y-60500000D03*
X147550000Y-62000000D03*
G04 #@! TD*
D24*
G04 #@! TO.C,R38*
X144430000Y-63630000D03*
X145930000Y-63630000D03*
G04 #@! TD*
D20*
G04 #@! TO.C,C95*
X155540000Y-58630000D03*
X157040000Y-58630000D03*
G04 #@! TD*
G04 #@! TO.C,C94*
X161080000Y-56830000D03*
X159580000Y-56830000D03*
G04 #@! TD*
G04 #@! TO.C,C92*
X154290000Y-57060000D03*
X155790000Y-57060000D03*
G04 #@! TD*
D26*
G04 #@! TO.C,P8*
X130290000Y-54220000D03*
G04 #@! TD*
G04 #@! TO.C,P7*
X129450000Y-39190000D03*
G04 #@! TD*
G04 #@! TO.C,P6*
X130770000Y-48750000D03*
G04 #@! TD*
G04 #@! TO.C,P5*
X122550000Y-51075000D03*
G04 #@! TD*
G04 #@! TO.C,P4*
X125375000Y-43575000D03*
G04 #@! TD*
D27*
G04 #@! TO.C,J2*
X157270000Y-92700000D03*
D28*
X146900000Y-92550000D03*
X159730000Y-93550000D03*
D27*
X156000000Y-92700000D03*
X154730000Y-92700000D03*
X153460000Y-92700000D03*
X152190000Y-92700000D03*
X150920000Y-92700000D03*
X149650000Y-92700000D03*
G04 #@! TD*
D29*
G04 #@! TO.C,P1*
X52760000Y-116130000D03*
X52760000Y-67870000D03*
D30*
X55300000Y-111050000D03*
X57840000Y-111050000D03*
X55300000Y-108510000D03*
X57840000Y-108510000D03*
X55300000Y-105970000D03*
X57840000Y-105970000D03*
X55300000Y-103430000D03*
X57840000Y-103430000D03*
X55300000Y-100890000D03*
X57840000Y-100890000D03*
X55300000Y-98350000D03*
X57840000Y-98350000D03*
X55300000Y-95810000D03*
X57840000Y-95810000D03*
X55300000Y-93270000D03*
X57840000Y-93270000D03*
X55300000Y-90730000D03*
X57840000Y-90730000D03*
X55300000Y-88190000D03*
X57840000Y-88190000D03*
X55300000Y-85650000D03*
X57840000Y-85650000D03*
X55300000Y-83110000D03*
X57840000Y-83110000D03*
X55300000Y-80570000D03*
X57840000Y-80570000D03*
X55300000Y-78030000D03*
X57840000Y-78030000D03*
X55300000Y-75490000D03*
X57840000Y-75490000D03*
X55300000Y-72950000D03*
X57840000Y-72950000D03*
G04 #@! TD*
D20*
G04 #@! TO.C,C91*
X89925000Y-52550000D03*
X88425000Y-52550000D03*
G04 #@! TD*
D26*
G04 #@! TO.C,P3*
X62000000Y-55000000D03*
X59000000Y-55000000D03*
D31*
X54680000Y-55000000D03*
G04 #@! TD*
D26*
G04 #@! TO.C,P2*
X62000000Y-45000000D03*
X59000000Y-45000000D03*
D31*
X54680000Y-45000000D03*
G04 #@! TD*
D32*
G04 #@! TO.C,U20*
X60650000Y-118470000D03*
X60650000Y-119740000D03*
X60650000Y-121010000D03*
X60650000Y-122280000D03*
X66050000Y-122280000D03*
X66050000Y-121010000D03*
X66050000Y-119740000D03*
X66050000Y-118470000D03*
G04 #@! TD*
D33*
G04 #@! TO.C,U19*
X63160000Y-78260000D03*
X63160000Y-79530000D03*
X63160000Y-80800000D03*
X63160000Y-82070000D03*
X63160000Y-83340000D03*
X63160000Y-84610000D03*
X63160000Y-85880000D03*
X68560000Y-85880000D03*
X68560000Y-84610000D03*
X68560000Y-83340000D03*
X68560000Y-82070000D03*
X68560000Y-80800000D03*
X68560000Y-79530000D03*
X68560000Y-78260000D03*
G04 #@! TD*
D34*
G04 #@! TO.C,U17*
X69575000Y-64635000D03*
X69575000Y-69715000D03*
X69575000Y-67175000D03*
D35*
X75775000Y-67175000D03*
D34*
X69575000Y-65905000D03*
X69575000Y-68445000D03*
G04 #@! TD*
D36*
G04 #@! TO.C,U15*
X148040000Y-123800000D03*
X147090000Y-123800000D03*
X146140000Y-123800000D03*
X146140000Y-126000000D03*
X148040000Y-126000000D03*
G04 #@! TD*
G04 #@! TO.C,U14*
X141900000Y-121300000D03*
X140950000Y-121300000D03*
X140000000Y-121300000D03*
X140000000Y-123500000D03*
X141900000Y-123500000D03*
G04 #@! TD*
D37*
G04 #@! TO.C,U13*
X146262500Y-108087500D03*
X146262500Y-108737500D03*
X146262500Y-109387500D03*
X146262500Y-110037500D03*
X146262500Y-110687500D03*
X146262500Y-111337500D03*
X146262500Y-111987500D03*
X146262500Y-112637500D03*
X146262500Y-113287500D03*
X146262500Y-113937500D03*
X152162500Y-113937500D03*
X152162500Y-113287500D03*
X152162500Y-112637500D03*
X152162500Y-111987500D03*
X152162500Y-111337500D03*
X152162500Y-110687500D03*
X152162500Y-110037500D03*
X152162500Y-109387500D03*
X152162500Y-108737500D03*
X152162500Y-108087500D03*
G04 #@! TD*
D38*
G04 #@! TO.C,U12*
X149000000Y-79425000D03*
X149650000Y-79425000D03*
X150300000Y-79425000D03*
X150950000Y-79425000D03*
X151600000Y-79425000D03*
X152250000Y-79425000D03*
X152900000Y-79425000D03*
X152900000Y-73525000D03*
X152250000Y-73525000D03*
X151600000Y-73525000D03*
X150950000Y-73525000D03*
X150300000Y-73525000D03*
X149650000Y-73525000D03*
X149000000Y-73525000D03*
G04 #@! TD*
D39*
G04 #@! TO.C,U11*
X152600000Y-99800000D03*
X152600000Y-98850000D03*
X152600000Y-97900000D03*
X150400000Y-97900000D03*
X150400000Y-99800000D03*
G04 #@! TD*
G04 #@! TO.C,U10*
X154300000Y-87125000D03*
X154300000Y-88075000D03*
X154300000Y-89025000D03*
X156500000Y-89025000D03*
X156500000Y-87125000D03*
G04 #@! TD*
D40*
G04 #@! TO.C,U9*
X136200000Y-78905000D03*
X136850000Y-78905000D03*
X137500000Y-78905000D03*
X138150000Y-78905000D03*
X138800000Y-78905000D03*
X139450000Y-78905000D03*
X139450000Y-74695000D03*
X138800000Y-74695000D03*
X138150000Y-74695000D03*
X137500000Y-74695000D03*
X136850000Y-74695000D03*
X136200000Y-74695000D03*
G04 #@! TD*
D39*
G04 #@! TO.C,U8*
X154325000Y-45000000D03*
X154325000Y-44050000D03*
X154325000Y-43100000D03*
X152125000Y-43100000D03*
X152125000Y-45000000D03*
X152125000Y-44050000D03*
G04 #@! TD*
D36*
G04 #@! TO.C,U7*
X121775000Y-60800000D03*
X122725000Y-60800000D03*
X123675000Y-60800000D03*
X123675000Y-58600000D03*
X121775000Y-58600000D03*
G04 #@! TD*
D39*
G04 #@! TO.C,U6*
X128300000Y-54225000D03*
X128300000Y-53275000D03*
X128300000Y-52325000D03*
X126100000Y-52325000D03*
X126100000Y-54225000D03*
G04 #@! TD*
D41*
G04 #@! TO.C,U5*
X122475000Y-46000000D03*
X122475000Y-46500000D03*
X122475000Y-47000000D03*
X122475000Y-47500000D03*
X122475000Y-48000000D03*
X122475000Y-48500000D03*
X125375000Y-48500000D03*
X125375000Y-48000000D03*
X125375000Y-47500000D03*
X125375000Y-47000000D03*
X125375000Y-46500000D03*
X125375000Y-46000000D03*
D42*
X124350000Y-48487500D03*
X124350000Y-47662500D03*
X124350000Y-46837500D03*
X124350000Y-46012500D03*
X123500000Y-48487500D03*
X123500000Y-47662500D03*
X123500000Y-46837500D03*
X123500000Y-46012500D03*
G04 #@! TD*
D36*
G04 #@! TO.C,U4*
X122790000Y-38140000D03*
X121840000Y-38140000D03*
X120890000Y-38140000D03*
X120890000Y-40340000D03*
X122790000Y-40340000D03*
G04 #@! TD*
D39*
G04 #@! TO.C,U3*
X112410000Y-55590000D03*
X112410000Y-54640000D03*
X112410000Y-53690000D03*
X110210000Y-53690000D03*
X110210000Y-55590000D03*
G04 #@! TD*
D43*
G04 #@! TO.C,U2*
X108610000Y-58120000D03*
X108610000Y-56220000D03*
X106610000Y-57170000D03*
G04 #@! TD*
D38*
G04 #@! TO.C,U1*
X100525000Y-50500000D03*
X101175000Y-50500000D03*
X101825000Y-50500000D03*
X102475000Y-50500000D03*
X102475000Y-46100000D03*
X101825000Y-46100000D03*
X101175000Y-46100000D03*
X100525000Y-46100000D03*
G04 #@! TD*
D44*
G04 #@! TO.C,T1*
X138695000Y-94350000D03*
X136155000Y-94350000D03*
X136155000Y-91150000D03*
X137425000Y-91150000D03*
X138695000Y-91150000D03*
G04 #@! TD*
D25*
G04 #@! TO.C,R78*
X62970000Y-115390000D03*
X62970000Y-116890000D03*
G04 #@! TD*
D24*
G04 #@! TO.C,R77*
X66000000Y-114300000D03*
X64500000Y-114300000D03*
G04 #@! TD*
G04 #@! TO.C,R76*
X66000000Y-112700000D03*
X64500000Y-112700000D03*
G04 #@! TD*
D25*
G04 #@! TO.C,R75*
X70750000Y-79760000D03*
X70750000Y-78260000D03*
G04 #@! TD*
D24*
G04 #@! TO.C,R74*
X72875000Y-82075000D03*
X74375000Y-82075000D03*
G04 #@! TD*
G04 #@! TO.C,R73*
X72875000Y-83975000D03*
X74375000Y-83975000D03*
G04 #@! TD*
G04 #@! TO.C,R72*
X72875000Y-85825000D03*
X74375000Y-85825000D03*
G04 #@! TD*
G04 #@! TO.C,R71*
X72875000Y-87825000D03*
X74375000Y-87825000D03*
G04 #@! TD*
G04 #@! TO.C,R70*
X69325000Y-76125000D03*
X70825000Y-76125000D03*
G04 #@! TD*
G04 #@! TO.C,R69*
X69325000Y-74575000D03*
X70825000Y-74575000D03*
G04 #@! TD*
G04 #@! TO.C,R68*
X56100000Y-60325000D03*
X54600000Y-60325000D03*
G04 #@! TD*
G04 #@! TO.C,R67*
X56075000Y-62525000D03*
X54575000Y-62525000D03*
G04 #@! TD*
D45*
G04 #@! TO.C,R66*
X89225000Y-50575000D03*
X86325000Y-50575000D03*
G04 #@! TD*
D25*
G04 #@! TO.C,R65*
X64850000Y-52400000D03*
X64850000Y-50900000D03*
G04 #@! TD*
G04 #@! TO.C,R64*
X64850000Y-48200000D03*
X64850000Y-49700000D03*
G04 #@! TD*
D24*
G04 #@! TO.C,R63*
X155625000Y-106850000D03*
X154125000Y-106850000D03*
G04 #@! TD*
G04 #@! TO.C,R62*
X155625000Y-110075000D03*
X154125000Y-110075000D03*
G04 #@! TD*
G04 #@! TO.C,R61*
X155850000Y-113300000D03*
X154350000Y-113300000D03*
G04 #@! TD*
D25*
G04 #@! TO.C,R60*
X154525000Y-77700000D03*
X154525000Y-76200000D03*
G04 #@! TD*
D24*
G04 #@! TO.C,R59*
X151900000Y-68250000D03*
X150400000Y-68250000D03*
G04 #@! TD*
D25*
G04 #@! TO.C,R58*
X149000000Y-69750000D03*
X149000000Y-71250000D03*
G04 #@! TD*
D24*
G04 #@! TO.C,R57*
X155625000Y-108450000D03*
X154125000Y-108450000D03*
G04 #@! TD*
G04 #@! TO.C,R56*
X155850000Y-111700000D03*
X154350000Y-111700000D03*
G04 #@! TD*
G04 #@! TO.C,R55*
X155625000Y-114900000D03*
X154125000Y-114900000D03*
G04 #@! TD*
D25*
G04 #@! TO.C,R54*
X153250000Y-82790000D03*
X153250000Y-81290000D03*
G04 #@! TD*
D24*
G04 #@! TO.C,R53*
X155250000Y-71750000D03*
X153750000Y-71750000D03*
G04 #@! TD*
D25*
G04 #@! TO.C,R52*
X149950000Y-82770000D03*
X149950000Y-81270000D03*
G04 #@! TD*
G04 #@! TO.C,R51*
X144050000Y-107890000D03*
X144050000Y-109390000D03*
G04 #@! TD*
G04 #@! TO.C,R50*
X142440000Y-111350000D03*
X142440000Y-112850000D03*
G04 #@! TD*
G04 #@! TO.C,R49*
X140550000Y-69925000D03*
X140550000Y-71425000D03*
G04 #@! TD*
D24*
G04 #@! TO.C,R48*
X142700000Y-73550000D03*
X141200000Y-73550000D03*
G04 #@! TD*
G04 #@! TO.C,R47*
X157425000Y-45000000D03*
X155925000Y-45000000D03*
G04 #@! TD*
G04 #@! TO.C,R45*
X158975000Y-42800000D03*
X157475000Y-42800000D03*
G04 #@! TD*
G04 #@! TO.C,R44*
X148975000Y-43350000D03*
X150475000Y-43350000D03*
G04 #@! TD*
G04 #@! TO.C,R43*
X153475000Y-41050000D03*
X151975000Y-41050000D03*
G04 #@! TD*
D25*
G04 #@! TO.C,R42*
X140175000Y-81975000D03*
X140175000Y-80475000D03*
G04 #@! TD*
G04 #@! TO.C,R41*
X135325000Y-81975000D03*
X135325000Y-80475000D03*
G04 #@! TD*
D24*
G04 #@! TO.C,R40*
X154775000Y-41050000D03*
X156275000Y-41050000D03*
G04 #@! TD*
G04 #@! TO.C,R37*
X150800000Y-41050000D03*
X149300000Y-41050000D03*
G04 #@! TD*
G04 #@! TO.C,R36*
X157475000Y-41050000D03*
X158975000Y-41050000D03*
G04 #@! TD*
D25*
G04 #@! TO.C,R35*
X139025000Y-87650000D03*
X139025000Y-89150000D03*
G04 #@! TD*
G04 #@! TO.C,R34*
X135775000Y-87650000D03*
X135775000Y-89150000D03*
G04 #@! TD*
G04 #@! TO.C,R33*
X146475000Y-39675000D03*
X146475000Y-38175000D03*
G04 #@! TD*
D24*
G04 #@! TO.C,R32*
X136150000Y-99525000D03*
X137650000Y-99525000D03*
G04 #@! TD*
G04 #@! TO.C,R31*
X121375000Y-99525000D03*
X119875000Y-99525000D03*
G04 #@! TD*
D25*
G04 #@! TO.C,R30*
X143050000Y-53675000D03*
X143050000Y-52175000D03*
G04 #@! TD*
G04 #@! TO.C,R29*
X146450000Y-58650000D03*
X146450000Y-57150000D03*
G04 #@! TD*
D24*
G04 #@! TO.C,R28*
X118650000Y-57450000D03*
X117150000Y-57450000D03*
G04 #@! TD*
G04 #@! TO.C,R27*
X117150000Y-59125000D03*
X118650000Y-59125000D03*
G04 #@! TD*
G04 #@! TO.C,R26*
X117150000Y-60800000D03*
X118650000Y-60800000D03*
G04 #@! TD*
G04 #@! TO.C,R25*
X126800000Y-60800000D03*
X128300000Y-60800000D03*
G04 #@! TD*
D25*
G04 #@! TO.C,R24*
X128300000Y-59200000D03*
X128300000Y-57700000D03*
G04 #@! TD*
D24*
G04 #@! TO.C,R23*
X126100000Y-50750000D03*
X124600000Y-50750000D03*
G04 #@! TD*
G04 #@! TO.C,R22*
X126800000Y-56200000D03*
X128300000Y-56200000D03*
G04 #@! TD*
G04 #@! TO.C,R21*
X128300000Y-50750000D03*
X129800000Y-50750000D03*
G04 #@! TD*
G04 #@! TO.C,R20*
X128300000Y-49000000D03*
X126800000Y-49000000D03*
G04 #@! TD*
G04 #@! TO.C,R19*
X128300000Y-45150000D03*
X126800000Y-45150000D03*
G04 #@! TD*
G04 #@! TO.C,R18*
X127700000Y-39190000D03*
X126200000Y-39190000D03*
G04 #@! TD*
G04 #@! TO.C,R17*
X127700000Y-37490000D03*
X126200000Y-37490000D03*
G04 #@! TD*
G04 #@! TO.C,R16*
X111710000Y-52110000D03*
X110210000Y-52110000D03*
G04 #@! TD*
G04 #@! TO.C,R15*
X110210000Y-50400000D03*
X111710000Y-50400000D03*
G04 #@! TD*
D25*
G04 #@! TO.C,R14*
X113100000Y-37870000D03*
X113100000Y-39370000D03*
G04 #@! TD*
D24*
G04 #@! TO.C,R13*
X124710000Y-40910000D03*
X126210000Y-40910000D03*
G04 #@! TD*
G04 #@! TO.C,R12*
X117930000Y-36400000D03*
X119430000Y-36400000D03*
G04 #@! TD*
G04 #@! TO.C,R11*
X118450000Y-46700000D03*
X119950000Y-46700000D03*
G04 #@! TD*
G04 #@! TO.C,R10*
X118450000Y-48425000D03*
X119950000Y-48425000D03*
G04 #@! TD*
G04 #@! TO.C,R9*
X119430000Y-38140000D03*
X117930000Y-38140000D03*
G04 #@! TD*
G04 #@! TO.C,R8*
X105225000Y-34025000D03*
X103725000Y-34025000D03*
G04 #@! TD*
D25*
G04 #@! TO.C,R7*
X91050000Y-56800000D03*
X91050000Y-55300000D03*
G04 #@! TD*
D24*
G04 #@! TO.C,R6*
X105275000Y-45850000D03*
X103775000Y-45850000D03*
G04 #@! TD*
G04 #@! TO.C,R5*
X105275000Y-50550000D03*
X103775000Y-50550000D03*
G04 #@! TD*
D25*
G04 #@! TO.C,R4*
X101625000Y-56800000D03*
X101625000Y-55300000D03*
G04 #@! TD*
G04 #@! TO.C,R3*
X98925000Y-47100000D03*
X98925000Y-45600000D03*
G04 #@! TD*
D24*
G04 #@! TO.C,R2*
X103775000Y-47425000D03*
X105275000Y-47425000D03*
G04 #@! TD*
G04 #@! TO.C,R1*
X103775000Y-48975000D03*
X105275000Y-48975000D03*
G04 #@! TD*
D46*
G04 #@! TO.C,Q4*
X69500000Y-38700000D03*
X69500000Y-37430000D03*
D47*
X69500000Y-39970000D03*
G04 #@! TD*
D46*
G04 #@! TO.C,Q3*
X75325000Y-93105000D03*
X75325000Y-91835000D03*
D47*
X75325000Y-94375000D03*
G04 #@! TD*
D46*
G04 #@! TO.C,Q1*
X143050000Y-57370000D03*
X143050000Y-58640000D03*
D47*
X143050000Y-56100000D03*
G04 #@! TD*
D48*
G04 #@! TO.C,MH4*
X165000000Y-125000000D03*
D16*
X167400000Y-125000000D03*
X166697056Y-126697056D03*
X165000000Y-127400000D03*
X163302944Y-126697056D03*
X162600000Y-125000000D03*
X163302944Y-123302944D03*
X165000000Y-122600000D03*
X166697056Y-123302944D03*
G04 #@! TD*
D48*
G04 #@! TO.C,MH3*
X165000000Y-35000000D03*
D16*
X167400000Y-35000000D03*
X166697056Y-36697056D03*
X165000000Y-37400000D03*
X163302944Y-36697056D03*
X162600000Y-35000000D03*
X163302944Y-33302944D03*
X165000000Y-32600000D03*
X166697056Y-33302944D03*
G04 #@! TD*
D48*
G04 #@! TO.C,MH2*
X55000000Y-35000000D03*
D16*
X57400000Y-35000000D03*
X56697056Y-36697056D03*
X55000000Y-37400000D03*
X53302944Y-36697056D03*
X52600000Y-35000000D03*
X53302944Y-33302944D03*
X55000000Y-32600000D03*
X56697056Y-33302944D03*
G04 #@! TD*
D48*
G04 #@! TO.C,MH1*
X55000000Y-125000000D03*
D16*
X57400000Y-125000000D03*
X56697056Y-126697056D03*
X55000000Y-127400000D03*
X53302944Y-126697056D03*
X52600000Y-125000000D03*
X53302944Y-123302944D03*
X55000000Y-122600000D03*
X56697056Y-123302944D03*
G04 #@! TD*
D17*
G04 #@! TO.C,L14*
X99425000Y-38575000D03*
X105825000Y-38575000D03*
G04 #@! TD*
D49*
G04 #@! TO.C,L11*
X148912500Y-104762500D03*
X147512500Y-104762500D03*
G04 #@! TD*
G04 #@! TO.C,L10*
X149262500Y-117362500D03*
X150662500Y-117362500D03*
G04 #@! TD*
G04 #@! TO.C,L9*
X145375000Y-73525000D03*
X145375000Y-72125000D03*
G04 #@! TD*
G04 #@! TO.C,L8*
X138250000Y-70475000D03*
X136850000Y-70475000D03*
G04 #@! TD*
G04 #@! TO.C,L7*
X134825000Y-76175000D03*
X134825000Y-74775000D03*
G04 #@! TD*
G04 #@! TO.C,L6*
X150530000Y-49940000D03*
X149130000Y-49940000D03*
G04 #@! TD*
D50*
G04 #@! TO.C,L5*
X144575000Y-42475000D03*
X144575000Y-44375000D03*
G04 #@! TD*
D49*
G04 #@! TO.C,L4*
X144575000Y-45650000D03*
X143175000Y-45650000D03*
G04 #@! TD*
D50*
G04 #@! TO.C,L3*
X144575000Y-46950000D03*
X144575000Y-48850000D03*
G04 #@! TD*
D49*
G04 #@! TO.C,L2*
X144450000Y-62000000D03*
X143050000Y-62000000D03*
G04 #@! TD*
G04 #@! TO.C,L1*
X118450000Y-50200000D03*
X118450000Y-51600000D03*
G04 #@! TD*
D51*
G04 #@! TO.C,GS4*
X141175000Y-76355000D03*
X141175000Y-77625000D03*
X141175000Y-78895000D03*
G04 #@! TD*
G04 #@! TO.C,GS3*
X143175000Y-76355000D03*
X143175000Y-77625000D03*
X143175000Y-78895000D03*
G04 #@! TD*
G04 #@! TO.C,GS2*
X115640000Y-39910000D03*
X115640000Y-38640000D03*
X115640000Y-37370000D03*
G04 #@! TD*
D52*
G04 #@! TO.C,GS1*
X62005000Y-60900000D03*
X63275000Y-60900000D03*
X64545000Y-60900000D03*
G04 #@! TD*
D53*
G04 #@! TO.C,FD3*
X65000000Y-125000000D03*
G04 #@! TD*
G04 #@! TO.C,FD2*
X155000000Y-125000000D03*
G04 #@! TD*
G04 #@! TO.C,FD1*
X155000000Y-35000000D03*
G04 #@! TD*
D54*
G04 #@! TO.C,DS2*
X53425000Y-60325000D03*
X51825000Y-60325000D03*
G04 #@! TD*
G04 #@! TO.C,DS1*
X53425000Y-62525000D03*
X51825000Y-62525000D03*
G04 #@! TD*
D43*
G04 #@! TO.C,D1*
X138500000Y-85550000D03*
X138500000Y-83650000D03*
X136500000Y-84600000D03*
G04 #@! TD*
D20*
G04 #@! TO.C,C90*
X64550000Y-116740000D03*
X66050000Y-116740000D03*
G04 #@! TD*
D55*
G04 #@! TO.C,C89*
X61200000Y-76750000D03*
X61200000Y-78250000D03*
G04 #@! TD*
G04 #@! TO.C,C86*
X68025000Y-76125000D03*
X68025000Y-74625000D03*
G04 #@! TD*
G04 #@! TO.C,C85*
X61200000Y-81150000D03*
X61200000Y-79650000D03*
G04 #@! TD*
G04 #@! TO.C,C82*
X107900000Y-34825000D03*
X107900000Y-36325000D03*
G04 #@! TD*
D20*
G04 #@! TO.C,C81*
X93250000Y-99500000D03*
X94750000Y-99500000D03*
G04 #@! TD*
D55*
G04 #@! TO.C,C80*
X97600000Y-36550000D03*
X97600000Y-38050000D03*
G04 #@! TD*
D20*
G04 #@! TO.C,C79*
X94500000Y-52650000D03*
X96000000Y-52650000D03*
G04 #@! TD*
D55*
G04 #@! TO.C,C76*
X91912500Y-36537500D03*
X91912500Y-38037500D03*
G04 #@! TD*
G04 #@! TO.C,C75*
X67450000Y-67400000D03*
X67450000Y-65900000D03*
G04 #@! TD*
D20*
G04 #@! TO.C,C74*
X90675000Y-34100000D03*
X89175000Y-34100000D03*
G04 #@! TD*
D55*
G04 #@! TO.C,C73*
X67450000Y-70200000D03*
X67450000Y-68700000D03*
G04 #@! TD*
G04 #@! TO.C,C70*
X91912500Y-39937500D03*
X91912500Y-41437500D03*
G04 #@! TD*
G04 #@! TO.C,C69*
X67450000Y-63125000D03*
X67450000Y-64625000D03*
G04 #@! TD*
D20*
G04 #@! TO.C,C62*
X151150000Y-123800000D03*
X149650000Y-123800000D03*
G04 #@! TD*
G04 #@! TO.C,C61*
X145100000Y-121300000D03*
X143600000Y-121300000D03*
G04 #@! TD*
G04 #@! TO.C,C58*
X152137500Y-115387500D03*
X150637500Y-115387500D03*
G04 #@! TD*
G04 #@! TO.C,C57*
X151912500Y-106637500D03*
X150412500Y-106637500D03*
G04 #@! TD*
G04 #@! TO.C,C56*
X146337500Y-115387500D03*
X147837500Y-115387500D03*
G04 #@! TD*
G04 #@! TO.C,C55*
X146337500Y-106637500D03*
X147837500Y-106637500D03*
G04 #@! TD*
D55*
G04 #@! TO.C,C54*
X154475000Y-75025000D03*
X154475000Y-73525000D03*
G04 #@! TD*
G04 #@! TO.C,C52*
X151600000Y-82770000D03*
X151600000Y-81270000D03*
G04 #@! TD*
G04 #@! TO.C,C51*
X152670000Y-88630000D03*
X152670000Y-87130000D03*
G04 #@! TD*
G04 #@! TO.C,C50*
X154200000Y-98300000D03*
X154200000Y-99800000D03*
G04 #@! TD*
D20*
G04 #@! TO.C,C49*
X152300000Y-70750000D03*
X150800000Y-70750000D03*
G04 #@! TD*
G04 #@! TO.C,C45*
X136750000Y-68950000D03*
X138250000Y-68950000D03*
G04 #@! TD*
G04 #@! TO.C,C44*
X138350000Y-71975000D03*
X136850000Y-71975000D03*
G04 #@! TD*
G04 #@! TO.C,C43*
X160425000Y-42800000D03*
X161925000Y-42800000D03*
G04 #@! TD*
D55*
G04 #@! TO.C,C41*
X134825000Y-78975000D03*
X134825000Y-77475000D03*
G04 #@! TD*
G04 #@! TO.C,C40*
X138500000Y-81975000D03*
X138500000Y-80475000D03*
G04 #@! TD*
G04 #@! TO.C,C39*
X137000000Y-81975000D03*
X137000000Y-80475000D03*
G04 #@! TD*
G04 #@! TO.C,C37*
X134825000Y-71950000D03*
X134825000Y-73450000D03*
G04 #@! TD*
D20*
G04 #@! TO.C,C36*
X149025000Y-45000000D03*
X150525000Y-45000000D03*
G04 #@! TD*
D55*
G04 #@! TO.C,C35*
X137425000Y-89175000D03*
X137425000Y-87675000D03*
G04 #@! TD*
D20*
G04 #@! TO.C,C34*
X146475000Y-41050000D03*
X147975000Y-41050000D03*
G04 #@! TD*
G04 #@! TO.C,C33*
X147630000Y-51370000D03*
X149130000Y-51370000D03*
G04 #@! TD*
D55*
G04 #@! TO.C,C31*
X136150000Y-97725000D03*
X136150000Y-96225000D03*
G04 #@! TD*
G04 #@! TO.C,C30*
X137800000Y-97725000D03*
X137800000Y-96225000D03*
G04 #@! TD*
G04 #@! TO.C,C28*
X145925000Y-60500000D03*
X145925000Y-62000000D03*
G04 #@! TD*
D20*
G04 #@! TO.C,C26*
X144550000Y-60575000D03*
X143050000Y-60575000D03*
G04 #@! TD*
D55*
G04 #@! TO.C,C25*
X144575000Y-53675000D03*
X144575000Y-52175000D03*
G04 #@! TD*
G04 #@! TO.C,C24*
X140550000Y-58850000D03*
X140550000Y-57350000D03*
G04 #@! TD*
D20*
G04 #@! TO.C,C23*
X114235000Y-76050000D03*
X115735000Y-76050000D03*
G04 #@! TD*
D55*
G04 #@! TO.C,C22*
X115725000Y-59300000D03*
X115725000Y-60800000D03*
G04 #@! TD*
D20*
G04 #@! TO.C,C21*
X120275000Y-57000000D03*
X121775000Y-57000000D03*
G04 #@! TD*
D55*
G04 #@! TO.C,C20*
X120025000Y-59300000D03*
X120025000Y-60800000D03*
G04 #@! TD*
G04 #@! TO.C,C18*
X125300000Y-60800000D03*
X125300000Y-59300000D03*
G04 #@! TD*
G04 #@! TO.C,C16*
X124475000Y-52725000D03*
X124475000Y-54225000D03*
G04 #@! TD*
D20*
G04 #@! TO.C,C14*
X128300000Y-43475000D03*
X129800000Y-43475000D03*
G04 #@! TD*
G04 #@! TO.C,C13*
X128325000Y-46825000D03*
X126825000Y-46825000D03*
G04 #@! TD*
D55*
G04 #@! TO.C,C11*
X124710000Y-39190000D03*
X124710000Y-37690000D03*
G04 #@! TD*
G04 #@! TO.C,C10*
X122790000Y-43550000D03*
X122790000Y-42050000D03*
G04 #@! TD*
D20*
G04 #@! TO.C,C7*
X107110000Y-54660000D03*
X108610000Y-54660000D03*
G04 #@! TD*
D55*
G04 #@! TO.C,C6*
X121000000Y-43550000D03*
X121000000Y-45050000D03*
G04 #@! TD*
D20*
G04 #@! TO.C,C4*
X107110000Y-59680000D03*
X108610000Y-59680000D03*
G04 #@! TD*
G04 #@! TO.C,C3*
X98950000Y-44325000D03*
X100450000Y-44325000D03*
G04 #@! TD*
D55*
G04 #@! TO.C,C2*
X107000000Y-47425000D03*
X107000000Y-45925000D03*
G04 #@! TD*
G04 #@! TO.C,C1*
X107000000Y-48950000D03*
X107000000Y-50450000D03*
G04 #@! TD*
D56*
G04 #@! TO.C,Y1*
X115735000Y-99510000D03*
X115735000Y-90010000D03*
X115735000Y-80510000D03*
X96735000Y-80510000D03*
X96735000Y-99510000D03*
G04 #@! TD*
D57*
G04 #@! TO.C,U16*
X66763000Y-48453000D03*
X66763000Y-48953000D03*
X66763000Y-49453000D03*
X66763000Y-49953000D03*
X66763000Y-50453000D03*
X71163000Y-50453000D03*
X71163000Y-49953000D03*
X71163000Y-49453000D03*
X71163000Y-48953000D03*
X71163000Y-48453000D03*
X66763000Y-50953000D03*
X66763000Y-51453000D03*
X66763000Y-51953000D03*
X71163000Y-50953000D03*
X71163000Y-51453000D03*
X71163000Y-51953000D03*
D58*
X68963000Y-50103000D03*
G04 #@! TD*
D16*
G04 #@! TO.C,via*
X59000000Y-128000000D03*
G04 #@! TD*
D59*
G04 #@! TO.C,J1*
X165750000Y-49250000D03*
X165750000Y-40750000D03*
D60*
X165900000Y-45000000D03*
G04 #@! TD*
D59*
G04 #@! TO.C,J3*
X165750000Y-63250000D03*
X165750000Y-54750000D03*
D60*
X165900000Y-59000000D03*
G04 #@! TD*
D59*
G04 #@! TO.C,J4*
X165750000Y-119250000D03*
X165750000Y-110750000D03*
D60*
X165900000Y-115000000D03*
G04 #@! TD*
D59*
G04 #@! TO.C,J5*
X165750000Y-105250000D03*
X165750000Y-96750000D03*
D60*
X165900000Y-101000000D03*
G04 #@! TD*
D59*
G04 #@! TO.C,J6*
X165750000Y-91250000D03*
X165750000Y-82750000D03*
D60*
X165900000Y-87000000D03*
G04 #@! TD*
D59*
G04 #@! TO.C,J7*
X165750000Y-77250000D03*
X165750000Y-68750000D03*
D60*
X165900000Y-73000000D03*
G04 #@! TD*
D61*
G04 #@! TO.C,K1*
X115640000Y-34820000D03*
D62*
X113100000Y-34820000D03*
X110560000Y-34820000D03*
G04 #@! TD*
D16*
X117930000Y-35380000D03*
X121250000Y-52200000D03*
X124600000Y-51700000D03*
X129800000Y-51700000D03*
X129400000Y-52900000D03*
X123675000Y-52725000D03*
X129175000Y-46825000D03*
X126210000Y-41890000D03*
X121840000Y-37010000D03*
D63*
X124350000Y-48487500D03*
X123500000Y-48487500D03*
X123500000Y-47662500D03*
X124350000Y-47662500D03*
X124350000Y-46837500D03*
X123500000Y-46837500D03*
X124350000Y-46012500D03*
X123500000Y-46012500D03*
D16*
X122790000Y-44390000D03*
X120100000Y-43550000D03*
X129800000Y-42500000D03*
X125350000Y-58100000D03*
X126250000Y-59300000D03*
X122725000Y-61875000D03*
X114850000Y-59300000D03*
X117150000Y-56300000D03*
X119675000Y-54225000D03*
X120275000Y-56075000D03*
X117700000Y-40050000D03*
X106725000Y-41575000D03*
X110475000Y-41575000D03*
X107850000Y-50450000D03*
X107725000Y-45925000D03*
X113340000Y-54640000D03*
X107110000Y-53860000D03*
X105820000Y-57170000D03*
X107110000Y-60590000D03*
X89250000Y-58050000D03*
X93000000Y-58050000D03*
D63*
X138500000Y-77500000D03*
X139100000Y-75900000D03*
X156600000Y-43900000D03*
D16*
X103100000Y-50500000D03*
D63*
X136200000Y-75800000D03*
D16*
X155150000Y-98300000D03*
X64520000Y-85880000D03*
D63*
X68963000Y-50103000D03*
X70100000Y-50453000D03*
X70100000Y-49453000D03*
X67900000Y-50953000D03*
D16*
X85725000Y-47575000D03*
X81875000Y-47575000D03*
X144550000Y-59650000D03*
X145925000Y-59675000D03*
X158310000Y-56790000D03*
X158310000Y-52960000D03*
X151060000Y-52910000D03*
X151060000Y-56690000D03*
X91650000Y-34100000D03*
X92912500Y-35037500D03*
X97250000Y-35100000D03*
X98450000Y-36550000D03*
X92662500Y-39937500D03*
X85412500Y-39737500D03*
X92225000Y-49125000D03*
X92225000Y-45275000D03*
X94500000Y-53600000D03*
X94500000Y-51750000D03*
X103000000Y-34050000D03*
X71590000Y-78260000D03*
X68560000Y-77460000D03*
X61200000Y-81900000D03*
X62200000Y-76750000D03*
X60250000Y-76750000D03*
X89925000Y-53525000D03*
X85650000Y-53450000D03*
X66550000Y-70200000D03*
X64750000Y-69900000D03*
X62950000Y-68900000D03*
X66550000Y-67400000D03*
X71375000Y-67175000D03*
X66525000Y-63125000D03*
X72625000Y-63825000D03*
X73525000Y-61925000D03*
X63700000Y-52400000D03*
X63750000Y-48200000D03*
X73150000Y-56800000D03*
X69000000Y-56800000D03*
X64850000Y-56800000D03*
X73050000Y-43650000D03*
X69000000Y-43650000D03*
X64900000Y-43650000D03*
X51825000Y-61375000D03*
X98175000Y-44325000D03*
X98150000Y-45600000D03*
X98900000Y-43300000D03*
X158310000Y-47010000D03*
X155950000Y-48600000D03*
X160700000Y-48600000D03*
X161080000Y-57770000D03*
X147475000Y-38175000D03*
X143450000Y-39050000D03*
X141625000Y-42625000D03*
X142575000Y-49125000D03*
X146550000Y-47550000D03*
X147525000Y-49325000D03*
X148150000Y-43350000D03*
X148200000Y-45000000D03*
X158975000Y-40125000D03*
X153100000Y-57150000D03*
X151060000Y-58690000D03*
X155540000Y-59540000D03*
X151600000Y-83700000D03*
X155325000Y-75025000D03*
X151600000Y-75600000D03*
X150950000Y-78050000D03*
X152900000Y-78050000D03*
X152300000Y-69950000D03*
X147075000Y-70475000D03*
X143375000Y-71425000D03*
X143375000Y-69075000D03*
X136750000Y-68100000D03*
X139300000Y-71950000D03*
X153550000Y-112450000D03*
X147700000Y-110250000D03*
X150650000Y-110300000D03*
X153387500Y-104762500D03*
X153000000Y-106200000D03*
X152412500Y-103712500D03*
X144710000Y-102760000D03*
X147090000Y-102760000D03*
X154025000Y-118425000D03*
X153100000Y-115750000D03*
X155000000Y-117350000D03*
X144812500Y-117362500D03*
X145837500Y-118387500D03*
X145212500Y-115387500D03*
X141500000Y-112850000D03*
X144650000Y-112450000D03*
X151150000Y-122950000D03*
X145100000Y-120300000D03*
D63*
X147090000Y-124740000D03*
X143150000Y-80200000D03*
X141025000Y-80475000D03*
X157270000Y-91000000D03*
X157270000Y-94400000D03*
X153460000Y-91000000D03*
X153460000Y-94400000D03*
X149650000Y-94500000D03*
X149650000Y-91000000D03*
X151670000Y-88630000D03*
D16*
X145090000Y-106640000D03*
D63*
X64550000Y-115440000D03*
X60650000Y-116860000D03*
X137425000Y-86725000D03*
X121300000Y-49080000D03*
X126550000Y-48000000D03*
X151250000Y-45000000D03*
X154775000Y-41975000D03*
D16*
X151950000Y-77350000D03*
X147075000Y-76025000D03*
X147075000Y-74725000D03*
X150800000Y-69900000D03*
X155325000Y-73525000D03*
X95037500Y-39450000D03*
D63*
X57500000Y-60300000D03*
D16*
X99425000Y-37175000D03*
X99425000Y-40275000D03*
X95175000Y-54625000D03*
X98275000Y-54625000D03*
X96750000Y-53400000D03*
X96750000Y-51750000D03*
X96800000Y-38050000D03*
X93050000Y-38037500D03*
X95037500Y-42200000D03*
X95037500Y-40900000D03*
D63*
X144550000Y-77600000D03*
X136200000Y-79800000D03*
X75675000Y-83975000D03*
X75700000Y-82150000D03*
X101825000Y-52875000D03*
X98925000Y-48175000D03*
X121040000Y-46690000D03*
X108240000Y-48940000D03*
X109080000Y-47430000D03*
X121250000Y-47900000D03*
D16*
X135650000Y-73000000D03*
D63*
X57575000Y-62525000D03*
D16*
X146820000Y-52870000D03*
X147630000Y-53770000D03*
X60250000Y-79650000D03*
X60200000Y-78250000D03*
X64750000Y-63750000D03*
X64750000Y-64800000D03*
X62950000Y-65900000D03*
X100450000Y-43550000D03*
X143730000Y-63630000D03*
X144430000Y-64580000D03*
X138250000Y-68050000D03*
D63*
X141150000Y-75445000D03*
X66030000Y-115470000D03*
D16*
X106950000Y-38575000D03*
X118450000Y-52350000D03*
X108610000Y-60640000D03*
X110475000Y-38575000D03*
X107900000Y-37350000D03*
X117800000Y-42050000D03*
X118970000Y-42930000D03*
X122150000Y-55450000D03*
X123350000Y-55600000D03*
X94800000Y-100500000D03*
X94800000Y-98500000D03*
X98575000Y-61025000D03*
X89200000Y-61050000D03*
X93475000Y-61025000D03*
X94925000Y-61025000D03*
D63*
X62350000Y-119800000D03*
X67000000Y-82500000D03*
X62850000Y-114300000D03*
X100450000Y-52650000D03*
D16*
X142900000Y-115700000D03*
X69150000Y-121900000D03*
D63*
X64500000Y-111600000D03*
X101750000Y-44225000D03*
D16*
X143400000Y-113850000D03*
X67600000Y-123200000D03*
X94500000Y-50600000D03*
D63*
X70150000Y-80800000D03*
X161800000Y-54800000D03*
X147520000Y-81330000D03*
X143960000Y-105800000D03*
X127490000Y-46160000D03*
D16*
X155100000Y-99800000D03*
X157040000Y-53010000D03*
X157040000Y-56800000D03*
X151850000Y-50400000D03*
X151110000Y-61690000D03*
X155610000Y-61640000D03*
X157040000Y-61640000D03*
X157040000Y-60260000D03*
X148500000Y-60500000D03*
X147550000Y-59800000D03*
X145375000Y-69025000D03*
X144760000Y-104760000D03*
X152025000Y-118475000D03*
X149650000Y-123000000D03*
X143600000Y-122150000D03*
D63*
X151670000Y-87130000D03*
D16*
X91775000Y-50575000D03*
X90575000Y-50575000D03*
X68400000Y-61550000D03*
X69625000Y-59975000D03*
X89225000Y-49100000D03*
X154060000Y-51510000D03*
X154060000Y-52760000D03*
M02*
