G04 #@! TF.FileFunction,Soldermask,Top*
%FSLAX46Y46*%
G04 Gerber Fmt 4.6, Leading zero omitted, Abs format (unit mm)*
G04 Created by KiCad (PCBNEW 4.0.7) date Sun Sep 24 15:37:13 2017*
%MOMM*%
%LPD*%
G01*
G04 APERTURE LIST*
%ADD10C,0.100000*%
%ADD11C,0.800000*%
%ADD12R,1.727200X2.032000*%
%ADD13O,1.727200X2.032000*%
%ADD14R,1.500000X2.200000*%
%ADD15R,4.600000X1.100000*%
%ADD16R,9.400000X10.800000*%
%ADD17R,0.800000X0.750000*%
%ADD18R,2.200000X1.500000*%
%ADD19R,0.600000X2.200000*%
%ADD20R,3.500000X2.200000*%
%ADD21R,0.500000X0.900000*%
%ADD22R,0.900000X0.500000*%
%ADD23R,2.500000X1.000000*%
%ADD24R,1.000000X2.500000*%
%ADD25C,1.500000*%
%ADD26R,0.900000X2.400000*%
%ADD27C,2.000000*%
%ADD28C,1.800000*%
%ADD29C,3.600000*%
%ADD30C,3.100000*%
%ADD31R,1.550000X0.600000*%
%ADD32R,1.500000X0.600000*%
%ADD33R,2.200000X0.600000*%
%ADD34R,2.200000X3.500000*%
%ADD35R,0.650000X1.060000*%
%ADD36R,1.450000X0.450000*%
%ADD37R,0.450000X1.450000*%
%ADD38R,1.060000X0.650000*%
%ADD39R,0.420000X0.890000*%
%ADD40R,0.700000X0.250000*%
%ADD41R,0.850000X0.825000*%
%ADD42R,0.900000X0.800000*%
%ADD43R,0.760000X1.650000*%
%ADD44R,0.900000X1.700000*%
%ADD45O,1.500000X0.900000*%
%ADD46R,1.500000X0.900000*%
%ADD47C,6.400000*%
%ADD48C,0.600000*%
%ADD49R,0.700000X0.700000*%
%ADD50R,1.300000X0.700000*%
%ADD51R,1.270000X0.970000*%
%ADD52R,0.970000X1.270000*%
%ADD53C,2.540000*%
%ADD54R,0.800000X0.800000*%
%ADD55R,0.750000X0.800000*%
%ADD56R,1.250000X1.000000*%
%ADD57R,1.000000X1.250000*%
%ADD58R,1.000000X1.600000*%
%ADD59C,1.050000*%
%ADD60R,1.400000X0.300000*%
%ADD61R,1.650000X2.850000*%
%ADD62R,5.200000X1.800000*%
%ADD63R,4.900000X1.800000*%
G04 APERTURE END LIST*
D10*
D11*
X161100000Y-119200000D03*
X161100000Y-115600000D03*
X158300000Y-121100000D03*
X157000000Y-119400000D03*
X159400000Y-112300000D03*
X157400000Y-105800000D03*
X159900000Y-108700000D03*
X165800000Y-107900000D03*
X165700000Y-93900000D03*
X141200000Y-103900000D03*
X145100000Y-87200000D03*
X147900000Y-84400000D03*
X160500000Y-82200000D03*
X165800000Y-79900000D03*
X160500000Y-73800000D03*
X156500000Y-70100000D03*
X156600000Y-66400000D03*
X152100000Y-66300000D03*
X160800000Y-63100000D03*
X165800000Y-66000000D03*
X165800000Y-51900000D03*
X161900000Y-40700000D03*
X139500000Y-35900000D03*
X139500000Y-41100000D03*
X139500000Y-48600000D03*
X139500000Y-56100000D03*
X139600000Y-62700000D03*
X136600000Y-66200000D03*
X133900000Y-69000000D03*
X133800000Y-72700000D03*
X133800000Y-78200000D03*
X133900000Y-81200000D03*
X133900000Y-84500000D03*
X134000000Y-89400000D03*
X141100000Y-92200000D03*
X141700000Y-96400000D03*
X141400000Y-100000000D03*
X138300000Y-103100000D03*
X134600000Y-103100000D03*
X134600000Y-109600000D03*
X137600000Y-124200000D03*
X137600000Y-120800000D03*
X134600000Y-115400000D03*
X132800000Y-118200000D03*
X76000000Y-124700000D03*
X68900000Y-106900000D03*
X69900000Y-118600000D03*
X72200000Y-117100000D03*
X72200000Y-111800000D03*
X72100000Y-105500000D03*
X74900000Y-103800000D03*
X74900000Y-110400000D03*
X74900000Y-116200000D03*
X126000000Y-118200000D03*
X118500000Y-118200000D03*
X111000000Y-118200000D03*
X103500000Y-118200000D03*
X96000000Y-118200000D03*
X88500000Y-118200000D03*
X81000000Y-118200000D03*
X78700000Y-116000000D03*
X78700000Y-110200000D03*
X78700000Y-103600000D03*
X78700000Y-96800000D03*
X78700000Y-89200000D03*
X78700000Y-81000000D03*
X74700000Y-71700000D03*
X78600000Y-74500000D03*
X84400000Y-56700000D03*
X79200000Y-61700000D03*
X82500000Y-61700000D03*
X84400000Y-59700000D03*
X89500000Y-55000000D03*
X93300000Y-55000000D03*
X102800000Y-54300000D03*
X100000000Y-55000000D03*
X103400000Y-52600000D03*
X103300000Y-42600000D03*
X103300000Y-40300000D03*
X103200000Y-36000000D03*
X119100000Y-33900000D03*
X122900000Y-33900000D03*
X125600000Y-33900000D03*
D12*
X115640000Y-34820000D03*
D13*
X113100000Y-34820000D03*
X110560000Y-34820000D03*
D11*
X130200000Y-34000000D03*
X133100000Y-34000000D03*
X133000000Y-40500000D03*
X133000000Y-46100000D03*
X133000000Y-51600000D03*
X131000000Y-55900000D03*
X133000000Y-56500000D03*
X126100000Y-66800000D03*
X132900000Y-61900000D03*
X129300000Y-64200000D03*
X126100000Y-70500000D03*
X126100000Y-78000000D03*
X126100000Y-85500000D03*
X130400000Y-90300000D03*
X134500000Y-94300000D03*
X137400000Y-94400000D03*
X139300000Y-96200000D03*
X139400000Y-98600000D03*
X136900000Y-100900000D03*
X132200000Y-100900000D03*
X127700000Y-101000000D03*
X124500000Y-103900000D03*
X104100000Y-60700000D03*
X104100000Y-68200000D03*
X104100000Y-75700000D03*
X104100000Y-83200000D03*
X104100000Y-90700000D03*
X104100000Y-98200000D03*
X121000000Y-107000000D03*
X113000000Y-107000000D03*
X106000000Y-107000000D03*
X98000000Y-107000000D03*
X91000000Y-107000000D03*
X86750000Y-98100000D03*
X86750000Y-90600000D03*
X86750000Y-83100000D03*
X86750000Y-75600000D03*
X86750000Y-68100000D03*
X86750000Y-60600000D03*
X93900000Y-57100000D03*
X96700000Y-57100000D03*
X100200000Y-57100000D03*
X103100000Y-57100000D03*
X104500000Y-55900000D03*
X105700000Y-54300000D03*
X105700000Y-52100000D03*
X105600000Y-42700000D03*
X105600000Y-44300000D03*
X105800000Y-36000000D03*
X107000000Y-33700000D03*
X161500000Y-32000000D03*
X155000000Y-32000000D03*
X147500000Y-32000000D03*
X140000000Y-32000000D03*
X81800000Y-43600000D03*
X79300000Y-43600000D03*
X81800000Y-41100000D03*
X79300000Y-41100000D03*
X76800000Y-41100000D03*
X81800000Y-38600000D03*
X79300000Y-38600000D03*
X76800000Y-38600000D03*
X81800000Y-36100000D03*
X79300000Y-36100000D03*
D14*
X74425000Y-50575000D03*
X80825000Y-50575000D03*
D11*
X76800000Y-36100000D03*
X103000000Y-32000000D03*
X96500000Y-32000000D03*
X59000000Y-32000000D03*
X89000000Y-32000000D03*
X81500000Y-32000000D03*
X74000000Y-32000000D03*
X66500000Y-32000000D03*
X156500000Y-128000000D03*
X149000000Y-128000000D03*
X141500000Y-128000000D03*
X134000000Y-128000000D03*
X126500000Y-128000000D03*
X119000000Y-128000000D03*
X111500000Y-128000000D03*
X104000000Y-128000000D03*
X96500000Y-128000000D03*
X89000000Y-128000000D03*
X81500000Y-128000000D03*
X74000000Y-128000000D03*
X66500000Y-128000000D03*
D15*
X88150000Y-43137500D03*
X88150000Y-41437500D03*
X88150000Y-39737500D03*
X88150000Y-38037500D03*
X88150000Y-36337500D03*
D16*
X79000000Y-39737500D03*
D17*
X87150000Y-52550000D03*
X85650000Y-52550000D03*
D18*
X96750000Y-54625000D03*
X96750000Y-61025000D03*
D19*
X159580000Y-54800000D03*
X157040000Y-54800000D03*
D20*
X158310000Y-48600000D03*
D19*
X158310000Y-54800000D03*
X160850000Y-54800000D03*
X155770000Y-54800000D03*
D21*
X150350000Y-51370000D03*
X151850000Y-51370000D03*
X149130000Y-52870000D03*
X147630000Y-52870000D03*
D22*
X147550000Y-60500000D03*
X147550000Y-62000000D03*
D21*
X144430000Y-63630000D03*
X145930000Y-63630000D03*
D23*
X153100000Y-61690000D03*
X153100000Y-58690000D03*
D17*
X157040000Y-58630000D03*
X155540000Y-58630000D03*
X159580000Y-56830000D03*
X161080000Y-56830000D03*
D24*
X154060000Y-54790000D03*
X151060000Y-54790000D03*
D17*
X155790000Y-57060000D03*
X154290000Y-57060000D03*
D25*
X130290000Y-54220000D03*
X129450000Y-39190000D03*
X130770000Y-48750000D03*
X122550000Y-51075000D03*
X125375000Y-43575000D03*
D26*
X149650000Y-92700000D03*
X150920000Y-92700000D03*
X152190000Y-92700000D03*
X153460000Y-92700000D03*
X154730000Y-92700000D03*
X156000000Y-92700000D03*
D27*
X159730000Y-93550000D03*
X146900000Y-92550000D03*
D26*
X157270000Y-92700000D03*
D28*
X57840000Y-72950000D03*
X55300000Y-72950000D03*
X57840000Y-75490000D03*
X55300000Y-75490000D03*
X57840000Y-78030000D03*
X55300000Y-78030000D03*
X57840000Y-80570000D03*
X55300000Y-80570000D03*
X57840000Y-83110000D03*
X55300000Y-83110000D03*
X57840000Y-85650000D03*
X55300000Y-85650000D03*
X57840000Y-88190000D03*
X55300000Y-88190000D03*
X57840000Y-90730000D03*
X55300000Y-90730000D03*
X57840000Y-93270000D03*
X55300000Y-93270000D03*
X57840000Y-95810000D03*
X55300000Y-95810000D03*
X57840000Y-98350000D03*
X55300000Y-98350000D03*
X57840000Y-100890000D03*
X55300000Y-100890000D03*
X57840000Y-103430000D03*
X55300000Y-103430000D03*
X57840000Y-105970000D03*
X55300000Y-105970000D03*
X57840000Y-108510000D03*
X55300000Y-108510000D03*
X57840000Y-111050000D03*
X55300000Y-111050000D03*
D29*
X52760000Y-67870000D03*
X52760000Y-116130000D03*
D17*
X88425000Y-52550000D03*
X89925000Y-52550000D03*
D25*
X62000000Y-55000000D03*
X59000000Y-55000000D03*
D30*
X54680000Y-55000000D03*
D25*
X62000000Y-45000000D03*
X59000000Y-45000000D03*
D30*
X54680000Y-45000000D03*
D31*
X60650000Y-118470000D03*
X60650000Y-119740000D03*
X60650000Y-121010000D03*
X60650000Y-122280000D03*
X66050000Y-122280000D03*
X66050000Y-121010000D03*
X66050000Y-119740000D03*
X66050000Y-118470000D03*
D32*
X63160000Y-78260000D03*
X63160000Y-79530000D03*
X63160000Y-80800000D03*
X63160000Y-82070000D03*
X63160000Y-83340000D03*
X63160000Y-84610000D03*
X63160000Y-85880000D03*
X68560000Y-85880000D03*
X68560000Y-84610000D03*
X68560000Y-83340000D03*
X68560000Y-82070000D03*
X68560000Y-80800000D03*
X68560000Y-79530000D03*
X68560000Y-78260000D03*
D33*
X69575000Y-68445000D03*
X69575000Y-65905000D03*
D34*
X75775000Y-67175000D03*
D33*
X69575000Y-67175000D03*
X69575000Y-69715000D03*
X69575000Y-64635000D03*
D35*
X148040000Y-123800000D03*
X147090000Y-123800000D03*
X146140000Y-123800000D03*
X146140000Y-126000000D03*
X148040000Y-126000000D03*
X141900000Y-121300000D03*
X140950000Y-121300000D03*
X140000000Y-121300000D03*
X140000000Y-123500000D03*
X141900000Y-123500000D03*
D36*
X146262500Y-108087500D03*
X146262500Y-108737500D03*
X146262500Y-109387500D03*
X146262500Y-110037500D03*
X146262500Y-110687500D03*
X146262500Y-111337500D03*
X146262500Y-111987500D03*
X146262500Y-112637500D03*
X146262500Y-113287500D03*
X146262500Y-113937500D03*
X152162500Y-113937500D03*
X152162500Y-113287500D03*
X152162500Y-112637500D03*
X152162500Y-111987500D03*
X152162500Y-111337500D03*
X152162500Y-110687500D03*
X152162500Y-110037500D03*
X152162500Y-109387500D03*
X152162500Y-108737500D03*
X152162500Y-108087500D03*
D37*
X149000000Y-79425000D03*
X149650000Y-79425000D03*
X150300000Y-79425000D03*
X150950000Y-79425000D03*
X151600000Y-79425000D03*
X152250000Y-79425000D03*
X152900000Y-79425000D03*
X152900000Y-73525000D03*
X152250000Y-73525000D03*
X151600000Y-73525000D03*
X150950000Y-73525000D03*
X150300000Y-73525000D03*
X149650000Y-73525000D03*
X149000000Y-73525000D03*
D38*
X152600000Y-99800000D03*
X152600000Y-98850000D03*
X152600000Y-97900000D03*
X150400000Y-97900000D03*
X150400000Y-99800000D03*
X154300000Y-87125000D03*
X154300000Y-88075000D03*
X154300000Y-89025000D03*
X156500000Y-89025000D03*
X156500000Y-87125000D03*
D39*
X136200000Y-78905000D03*
X136850000Y-78905000D03*
X137500000Y-78905000D03*
X138150000Y-78905000D03*
X138800000Y-78905000D03*
X139450000Y-78905000D03*
X139450000Y-74695000D03*
X138800000Y-74695000D03*
X138150000Y-74695000D03*
X137500000Y-74695000D03*
X136850000Y-74695000D03*
X136200000Y-74695000D03*
D38*
X154325000Y-45000000D03*
X154325000Y-44050000D03*
X154325000Y-43100000D03*
X152125000Y-43100000D03*
X152125000Y-45000000D03*
X152125000Y-44050000D03*
D35*
X121775000Y-60800000D03*
X122725000Y-60800000D03*
X123675000Y-60800000D03*
X123675000Y-58600000D03*
X121775000Y-58600000D03*
D38*
X128300000Y-54225000D03*
X128300000Y-53275000D03*
X128300000Y-52325000D03*
X126100000Y-52325000D03*
X126100000Y-54225000D03*
D40*
X122475000Y-46000000D03*
X122475000Y-46500000D03*
X122475000Y-47000000D03*
X122475000Y-47500000D03*
X122475000Y-48000000D03*
X122475000Y-48500000D03*
X125375000Y-48500000D03*
X125375000Y-48000000D03*
X125375000Y-47500000D03*
X125375000Y-47000000D03*
X125375000Y-46500000D03*
X125375000Y-46000000D03*
D41*
X124350000Y-48487500D03*
X124350000Y-47662500D03*
X124350000Y-46837500D03*
X124350000Y-46012500D03*
X123500000Y-48487500D03*
X123500000Y-47662500D03*
X123500000Y-46837500D03*
X123500000Y-46012500D03*
D35*
X122790000Y-38140000D03*
X121840000Y-38140000D03*
X120890000Y-38140000D03*
X120890000Y-40340000D03*
X122790000Y-40340000D03*
D38*
X112410000Y-55590000D03*
X112410000Y-54640000D03*
X112410000Y-53690000D03*
X110210000Y-53690000D03*
X110210000Y-55590000D03*
D42*
X108610000Y-58120000D03*
X108610000Y-56220000D03*
X106610000Y-57170000D03*
D37*
X100525000Y-50500000D03*
X101175000Y-50500000D03*
X101825000Y-50500000D03*
X102475000Y-50500000D03*
X102475000Y-46100000D03*
X101825000Y-46100000D03*
X101175000Y-46100000D03*
X100525000Y-46100000D03*
D43*
X138695000Y-91150000D03*
X137425000Y-91150000D03*
X136155000Y-91150000D03*
X136155000Y-94350000D03*
X138695000Y-94350000D03*
D22*
X62970000Y-115390000D03*
X62970000Y-116890000D03*
D21*
X66000000Y-114300000D03*
X64500000Y-114300000D03*
X66000000Y-112700000D03*
X64500000Y-112700000D03*
D22*
X70750000Y-79760000D03*
X70750000Y-78260000D03*
D21*
X72875000Y-82075000D03*
X74375000Y-82075000D03*
X72875000Y-83975000D03*
X74375000Y-83975000D03*
X72875000Y-85825000D03*
X74375000Y-85825000D03*
X72875000Y-87825000D03*
X74375000Y-87825000D03*
X69325000Y-76125000D03*
X70825000Y-76125000D03*
X69325000Y-74575000D03*
X70825000Y-74575000D03*
X56100000Y-60325000D03*
X54600000Y-60325000D03*
X56075000Y-62525000D03*
X54575000Y-62525000D03*
D44*
X89225000Y-50575000D03*
X86325000Y-50575000D03*
D22*
X64850000Y-52400000D03*
X64850000Y-50900000D03*
X64850000Y-48200000D03*
X64850000Y-49700000D03*
D21*
X155625000Y-106850000D03*
X154125000Y-106850000D03*
X155625000Y-110075000D03*
X154125000Y-110075000D03*
X155850000Y-113300000D03*
X154350000Y-113300000D03*
D22*
X154525000Y-77700000D03*
X154525000Y-76200000D03*
D21*
X151900000Y-68250000D03*
X150400000Y-68250000D03*
D22*
X149000000Y-69750000D03*
X149000000Y-71250000D03*
D21*
X155625000Y-108450000D03*
X154125000Y-108450000D03*
X155850000Y-111700000D03*
X154350000Y-111700000D03*
X155625000Y-114900000D03*
X154125000Y-114900000D03*
D22*
X153250000Y-82790000D03*
X153250000Y-81290000D03*
D21*
X155250000Y-71750000D03*
X153750000Y-71750000D03*
D22*
X149950000Y-82770000D03*
X149950000Y-81270000D03*
X144050000Y-107890000D03*
X144050000Y-109390000D03*
X142440000Y-111350000D03*
X142440000Y-112850000D03*
X140550000Y-69925000D03*
X140550000Y-71425000D03*
D21*
X142700000Y-73550000D03*
X141200000Y-73550000D03*
X157425000Y-45000000D03*
X155925000Y-45000000D03*
X158975000Y-42800000D03*
X157475000Y-42800000D03*
X148975000Y-43350000D03*
X150475000Y-43350000D03*
X153475000Y-41050000D03*
X151975000Y-41050000D03*
D22*
X140175000Y-81975000D03*
X140175000Y-80475000D03*
X135325000Y-81975000D03*
X135325000Y-80475000D03*
D21*
X154775000Y-41050000D03*
X156275000Y-41050000D03*
X150800000Y-41050000D03*
X149300000Y-41050000D03*
X157475000Y-41050000D03*
X158975000Y-41050000D03*
D22*
X139025000Y-87650000D03*
X139025000Y-89150000D03*
X135775000Y-87650000D03*
X135775000Y-89150000D03*
X146475000Y-39675000D03*
X146475000Y-38175000D03*
D21*
X136150000Y-99525000D03*
X137650000Y-99525000D03*
X121375000Y-99525000D03*
X119875000Y-99525000D03*
D22*
X143050000Y-53675000D03*
X143050000Y-52175000D03*
X146450000Y-58650000D03*
X146450000Y-57150000D03*
D21*
X118650000Y-57450000D03*
X117150000Y-57450000D03*
X117150000Y-59125000D03*
X118650000Y-59125000D03*
X117150000Y-60800000D03*
X118650000Y-60800000D03*
X126800000Y-60800000D03*
X128300000Y-60800000D03*
D22*
X128300000Y-59200000D03*
X128300000Y-57700000D03*
D21*
X126100000Y-50750000D03*
X124600000Y-50750000D03*
X126800000Y-56200000D03*
X128300000Y-56200000D03*
X128300000Y-50750000D03*
X129800000Y-50750000D03*
X128300000Y-49000000D03*
X126800000Y-49000000D03*
X128300000Y-45150000D03*
X126800000Y-45150000D03*
X127700000Y-39190000D03*
X126200000Y-39190000D03*
X127700000Y-37490000D03*
X126200000Y-37490000D03*
X111710000Y-52110000D03*
X110210000Y-52110000D03*
X110210000Y-50400000D03*
X111710000Y-50400000D03*
D22*
X113100000Y-37870000D03*
X113100000Y-39370000D03*
D21*
X124710000Y-40910000D03*
X126210000Y-40910000D03*
X117930000Y-36400000D03*
X119430000Y-36400000D03*
X118450000Y-46700000D03*
X119950000Y-46700000D03*
X118450000Y-48425000D03*
X119950000Y-48425000D03*
X119430000Y-38140000D03*
X117930000Y-38140000D03*
X105225000Y-34025000D03*
X103725000Y-34025000D03*
D22*
X91050000Y-56800000D03*
X91050000Y-55300000D03*
D21*
X105275000Y-45850000D03*
X103775000Y-45850000D03*
X105275000Y-50550000D03*
X103775000Y-50550000D03*
D22*
X101625000Y-56800000D03*
X101625000Y-55300000D03*
X98925000Y-47100000D03*
X98925000Y-45600000D03*
D21*
X103775000Y-47425000D03*
X105275000Y-47425000D03*
X103775000Y-48975000D03*
X105275000Y-48975000D03*
D45*
X69500000Y-38700000D03*
X69500000Y-37430000D03*
D46*
X69500000Y-39970000D03*
D45*
X75325000Y-93105000D03*
X75325000Y-91835000D03*
D46*
X75325000Y-94375000D03*
D45*
X143050000Y-57370000D03*
X143050000Y-58640000D03*
D46*
X143050000Y-56100000D03*
D47*
X165000000Y-125000000D03*
D48*
X167400000Y-125000000D03*
X166697056Y-126697056D03*
X165000000Y-127400000D03*
X163302944Y-126697056D03*
X162600000Y-125000000D03*
X163302944Y-123302944D03*
X165000000Y-122600000D03*
X166697056Y-123302944D03*
D47*
X165000000Y-35000000D03*
D48*
X167400000Y-35000000D03*
X166697056Y-36697056D03*
X165000000Y-37400000D03*
X163302944Y-36697056D03*
X162600000Y-35000000D03*
X163302944Y-33302944D03*
X165000000Y-32600000D03*
X166697056Y-33302944D03*
D47*
X55000000Y-35000000D03*
D48*
X57400000Y-35000000D03*
X56697056Y-36697056D03*
X55000000Y-37400000D03*
X53302944Y-36697056D03*
X52600000Y-35000000D03*
X53302944Y-33302944D03*
X55000000Y-32600000D03*
X56697056Y-33302944D03*
D47*
X55000000Y-125000000D03*
D48*
X57400000Y-125000000D03*
X56697056Y-126697056D03*
X55000000Y-127400000D03*
X53302944Y-126697056D03*
X52600000Y-125000000D03*
X53302944Y-123302944D03*
X55000000Y-122600000D03*
X56697056Y-123302944D03*
D14*
X99425000Y-38575000D03*
X105825000Y-38575000D03*
D49*
X147512500Y-104762500D03*
X148912500Y-104762500D03*
X150662500Y-117362500D03*
X149262500Y-117362500D03*
X145375000Y-72125000D03*
X145375000Y-73525000D03*
X136850000Y-70475000D03*
X138250000Y-70475000D03*
X134825000Y-74775000D03*
X134825000Y-76175000D03*
X149130000Y-49940000D03*
X150530000Y-49940000D03*
D50*
X144575000Y-44375000D03*
X144575000Y-42475000D03*
D49*
X143175000Y-45650000D03*
X144575000Y-45650000D03*
D50*
X144575000Y-48850000D03*
X144575000Y-46950000D03*
D49*
X143050000Y-62000000D03*
X144450000Y-62000000D03*
X118450000Y-51600000D03*
X118450000Y-50200000D03*
D51*
X141175000Y-76355000D03*
X141175000Y-77625000D03*
X141175000Y-78895000D03*
X143175000Y-76355000D03*
X143175000Y-77625000D03*
X143175000Y-78895000D03*
X115640000Y-39910000D03*
X115640000Y-38640000D03*
X115640000Y-37370000D03*
D52*
X62005000Y-60900000D03*
X63275000Y-60900000D03*
X64545000Y-60900000D03*
D53*
X65000000Y-125000000D03*
X155000000Y-125000000D03*
X155000000Y-35000000D03*
D54*
X53425000Y-60325000D03*
X51825000Y-60325000D03*
X53425000Y-62525000D03*
X51825000Y-62525000D03*
D42*
X138500000Y-85550000D03*
X138500000Y-83650000D03*
X136500000Y-84600000D03*
D17*
X66050000Y-116740000D03*
X64550000Y-116740000D03*
D55*
X61200000Y-78250000D03*
X61200000Y-76750000D03*
D56*
X70975000Y-84125000D03*
X70975000Y-82125000D03*
X70975000Y-87825000D03*
X70975000Y-85825000D03*
D55*
X68025000Y-74625000D03*
X68025000Y-76125000D03*
X61200000Y-79650000D03*
X61200000Y-81150000D03*
D23*
X108575000Y-38575000D03*
X108575000Y-41575000D03*
X91025000Y-61050000D03*
X91025000Y-58050000D03*
D55*
X107900000Y-36325000D03*
X107900000Y-34825000D03*
D17*
X94750000Y-99500000D03*
X93250000Y-99500000D03*
D55*
X97600000Y-38050000D03*
X97600000Y-36550000D03*
D17*
X96000000Y-52650000D03*
X94500000Y-52650000D03*
D23*
X95037500Y-38037500D03*
X95037500Y-35037500D03*
X64750000Y-65900000D03*
X64750000Y-68900000D03*
D55*
X91912500Y-38037500D03*
X91912500Y-36537500D03*
X67450000Y-65900000D03*
X67450000Y-67400000D03*
D17*
X89175000Y-34100000D03*
X90675000Y-34100000D03*
D55*
X67450000Y-68700000D03*
X67450000Y-70200000D03*
D24*
X89225000Y-47225000D03*
X92225000Y-47225000D03*
X69625000Y-61925000D03*
X72625000Y-61925000D03*
D55*
X91912500Y-41437500D03*
X91912500Y-39937500D03*
X67450000Y-64625000D03*
X67450000Y-63125000D03*
D23*
X71150000Y-53800000D03*
X71150000Y-56800000D03*
X83775000Y-50575000D03*
X83775000Y-47575000D03*
X71200000Y-46650000D03*
X71200000Y-43650000D03*
X66775000Y-53800000D03*
X66775000Y-56800000D03*
X66700000Y-46650000D03*
X66700000Y-43650000D03*
D17*
X149650000Y-123800000D03*
X151150000Y-123800000D03*
X143600000Y-121300000D03*
X145100000Y-121300000D03*
D56*
X145910000Y-104760000D03*
X145910000Y-102760000D03*
D57*
X150412500Y-104762500D03*
X152412500Y-104762500D03*
D17*
X150637500Y-115387500D03*
X152137500Y-115387500D03*
X150412500Y-106637500D03*
X151912500Y-106637500D03*
X147837500Y-115387500D03*
X146337500Y-115387500D03*
X147837500Y-106637500D03*
X146337500Y-106637500D03*
D55*
X154475000Y-73525000D03*
X154475000Y-75025000D03*
D57*
X147837500Y-117362500D03*
X145837500Y-117362500D03*
D55*
X151600000Y-81270000D03*
X151600000Y-82770000D03*
X152670000Y-87130000D03*
X152670000Y-88630000D03*
X154200000Y-99800000D03*
X154200000Y-98300000D03*
D17*
X150800000Y-70750000D03*
X152300000Y-70750000D03*
D56*
X147075000Y-73525000D03*
X147075000Y-71525000D03*
D57*
X152025000Y-117350000D03*
X154025000Y-117350000D03*
X145375000Y-70250000D03*
X143375000Y-70250000D03*
D17*
X138250000Y-68950000D03*
X136750000Y-68950000D03*
X136850000Y-71975000D03*
X138350000Y-71975000D03*
X161925000Y-42800000D03*
X160425000Y-42800000D03*
D58*
X161975000Y-45000000D03*
X158975000Y-45000000D03*
D55*
X134825000Y-77475000D03*
X134825000Y-78975000D03*
X138500000Y-80475000D03*
X138500000Y-81975000D03*
X137000000Y-80475000D03*
X137000000Y-81975000D03*
D24*
X150525000Y-47550000D03*
X147525000Y-47550000D03*
D55*
X134825000Y-73450000D03*
X134825000Y-71950000D03*
D17*
X150525000Y-45000000D03*
X149025000Y-45000000D03*
D55*
X137425000Y-87675000D03*
X137425000Y-89175000D03*
D17*
X147975000Y-41050000D03*
X146475000Y-41050000D03*
X149130000Y-51370000D03*
X147630000Y-51370000D03*
D56*
X144575000Y-41050000D03*
X144575000Y-39050000D03*
D55*
X136150000Y-96225000D03*
X136150000Y-97725000D03*
X137800000Y-96225000D03*
X137800000Y-97725000D03*
D56*
X141625000Y-45650000D03*
X141625000Y-43650000D03*
D55*
X145925000Y-62000000D03*
X145925000Y-60500000D03*
D57*
X144575000Y-50475000D03*
X142575000Y-50475000D03*
D17*
X143050000Y-60575000D03*
X144550000Y-60575000D03*
D55*
X144575000Y-52175000D03*
X144575000Y-53675000D03*
X140550000Y-57350000D03*
X140550000Y-58850000D03*
D17*
X115735000Y-76050000D03*
X114235000Y-76050000D03*
D55*
X115725000Y-60800000D03*
X115725000Y-59300000D03*
D17*
X121775000Y-57000000D03*
X120275000Y-57000000D03*
D55*
X120025000Y-60800000D03*
X120025000Y-59300000D03*
D57*
X123350000Y-56775000D03*
X125350000Y-56775000D03*
D55*
X125300000Y-59300000D03*
X125300000Y-60800000D03*
D23*
X130925000Y-60800000D03*
X130925000Y-57800000D03*
D55*
X124475000Y-54225000D03*
X124475000Y-52725000D03*
D57*
X122725000Y-54225000D03*
X120725000Y-54225000D03*
D17*
X129800000Y-43475000D03*
X128300000Y-43475000D03*
X126825000Y-46825000D03*
X128325000Y-46825000D03*
D57*
X127700000Y-35580000D03*
X125700000Y-35580000D03*
D55*
X124710000Y-37690000D03*
X124710000Y-39190000D03*
X122790000Y-42050000D03*
X122790000Y-43550000D03*
D56*
X118970000Y-42050000D03*
X118970000Y-40050000D03*
D57*
X120890000Y-35580000D03*
X122890000Y-35580000D03*
D17*
X108610000Y-54660000D03*
X107110000Y-54660000D03*
D55*
X121000000Y-45050000D03*
X121000000Y-43550000D03*
D56*
X120250000Y-50200000D03*
X120250000Y-52200000D03*
D17*
X108610000Y-59680000D03*
X107110000Y-59680000D03*
X100450000Y-44325000D03*
X98950000Y-44325000D03*
D55*
X107000000Y-45925000D03*
X107000000Y-47425000D03*
X107000000Y-50450000D03*
X107000000Y-48950000D03*
D59*
X96735000Y-99510000D03*
X96735000Y-80510000D03*
X115735000Y-80510000D03*
X115735000Y-90010000D03*
X115735000Y-99510000D03*
D60*
X66763000Y-48453000D03*
X66763000Y-48953000D03*
X66763000Y-49453000D03*
X66763000Y-49953000D03*
X66763000Y-50453000D03*
X71163000Y-50453000D03*
X71163000Y-49953000D03*
X71163000Y-49453000D03*
X71163000Y-48953000D03*
X71163000Y-48453000D03*
X66763000Y-50953000D03*
X66763000Y-51453000D03*
X66763000Y-51953000D03*
X71163000Y-50953000D03*
X71163000Y-51453000D03*
X71163000Y-51953000D03*
D61*
X68963000Y-50103000D03*
D11*
X59000000Y-128000000D03*
D62*
X165900000Y-45000000D03*
D63*
X165750000Y-40750000D03*
X165750000Y-49250000D03*
D62*
X165900000Y-59000000D03*
D63*
X165750000Y-54750000D03*
X165750000Y-63250000D03*
D62*
X165900000Y-115000000D03*
D63*
X165750000Y-110750000D03*
X165750000Y-119250000D03*
D62*
X165900000Y-101000000D03*
D63*
X165750000Y-96750000D03*
X165750000Y-105250000D03*
D62*
X165900000Y-87000000D03*
D63*
X165750000Y-82750000D03*
X165750000Y-91250000D03*
D62*
X165900000Y-73000000D03*
D63*
X165750000Y-68750000D03*
X165750000Y-77250000D03*
M02*
