G04 #@! TF.GenerationSoftware,KiCad,Pcbnew,5.0.1*
G04 #@! TF.CreationDate,2018-10-25T19:00:55+02:00*
G04 #@! TF.ProjectId,vcg,7663672E6B696361645F706362000000,rev?*
G04 #@! TF.SameCoordinates,Original*
G04 #@! TF.FileFunction,Paste,Top*
G04 #@! TF.FilePolarity,Positive*
%FSLAX46Y46*%
G04 Gerber Fmt 4.6, Leading zero omitted, Abs format (unit mm)*
G04 Created by KiCad (PCBNEW 5.0.1) date Thu Oct 25 19:00:55 2018*
%MOMM*%
%LPD*%
G01*
G04 APERTURE LIST*
%ADD10C,0.100000*%
%ADD11R,2.500000X1.000000*%
%ADD12R,1.000000X2.500000*%
%ADD13R,1.250000X1.000000*%
%ADD14R,1.000000X1.250000*%
%ADD15R,1.000000X1.600000*%
%ADD16R,1.500000X2.200000*%
%ADD17R,4.600000X1.100000*%
%ADD18R,4.550000X5.250000*%
%ADD19R,0.800000X0.750000*%
%ADD20R,2.200000X1.500000*%
%ADD21R,0.600000X2.200000*%
%ADD22R,3.500000X2.200000*%
%ADD23R,0.500000X0.900000*%
%ADD24R,0.900000X0.500000*%
%ADD25R,0.900000X2.400000*%
%ADD26R,1.550000X0.600000*%
%ADD27R,1.500000X0.600000*%
%ADD28R,2.200000X0.600000*%
%ADD29R,2.200000X3.500000*%
%ADD30R,0.650000X1.060000*%
%ADD31R,1.450000X0.450000*%
%ADD32R,0.450000X1.450000*%
%ADD33R,1.060000X0.650000*%
%ADD34R,0.420000X0.890000*%
%ADD35R,0.700000X0.250000*%
%ADD36R,0.510000X0.495000*%
%ADD37R,0.900000X0.800000*%
%ADD38R,0.760000X1.650000*%
%ADD39R,0.900000X1.700000*%
%ADD40R,0.700000X0.700000*%
%ADD41R,1.300000X0.700000*%
%ADD42R,1.270000X0.970000*%
%ADD43R,0.970000X1.270000*%
%ADD44R,0.800000X0.800000*%
%ADD45R,0.750000X0.800000*%
%ADD46R,1.400000X0.300000*%
%ADD47R,1.650000X2.850000*%
%ADD48R,4.900000X1.800000*%
%ADD49R,5.200000X1.800000*%
G04 APERTURE END LIST*
D10*
X168500000Y-30000000D02*
X168500000Y-130000000D01*
X50000000Y-30000000D02*
X168500000Y-30000000D01*
X50000000Y-30000000D02*
X50000000Y-130000000D01*
X50000000Y-130000000D02*
X168500000Y-130000000D01*
D11*
G04 #@! TO.C,C96*
X153100000Y-58690000D03*
X153100000Y-61690000D03*
G04 #@! TD*
D12*
G04 #@! TO.C,C93*
X151060000Y-54790000D03*
X154060000Y-54790000D03*
G04 #@! TD*
D11*
G04 #@! TO.C,C84*
X108575000Y-41575000D03*
X108575000Y-38575000D03*
G04 #@! TD*
G04 #@! TO.C,C83*
X91025000Y-58050000D03*
X91025000Y-61050000D03*
G04 #@! TD*
G04 #@! TO.C,C78*
X95037500Y-35037500D03*
X95037500Y-38037500D03*
G04 #@! TD*
G04 #@! TO.C,C77*
X64750000Y-68900000D03*
X64750000Y-65900000D03*
G04 #@! TD*
D12*
G04 #@! TO.C,C72*
X92225000Y-47225000D03*
X89225000Y-47225000D03*
G04 #@! TD*
G04 #@! TO.C,C71*
X72625000Y-61925000D03*
X69625000Y-61925000D03*
G04 #@! TD*
D11*
G04 #@! TO.C,C68*
X71150000Y-56800000D03*
X71150000Y-53800000D03*
G04 #@! TD*
G04 #@! TO.C,C67*
X83775000Y-47575000D03*
X83775000Y-50575000D03*
G04 #@! TD*
G04 #@! TO.C,C65*
X71200000Y-43650000D03*
X71200000Y-46650000D03*
G04 #@! TD*
G04 #@! TO.C,C64*
X66775000Y-56800000D03*
X66775000Y-53800000D03*
G04 #@! TD*
G04 #@! TO.C,C63*
X66700000Y-43650000D03*
X66700000Y-46650000D03*
G04 #@! TD*
D12*
G04 #@! TO.C,C38*
X147525000Y-47550000D03*
X150525000Y-47550000D03*
G04 #@! TD*
D11*
G04 #@! TO.C,C17*
X130925000Y-57800000D03*
X130925000Y-60800000D03*
G04 #@! TD*
D13*
G04 #@! TO.C,C88*
X70975000Y-84125000D03*
X70975000Y-82125000D03*
G04 #@! TD*
G04 #@! TO.C,C87*
X70975000Y-87825000D03*
X70975000Y-85825000D03*
G04 #@! TD*
G04 #@! TO.C,C60*
X145910000Y-104760000D03*
X145910000Y-102760000D03*
G04 #@! TD*
D14*
G04 #@! TO.C,C59*
X150412500Y-104762500D03*
X152412500Y-104762500D03*
G04 #@! TD*
G04 #@! TO.C,C53*
X147837500Y-117362500D03*
X145837500Y-117362500D03*
G04 #@! TD*
G04 #@! TO.C,C47*
X152025000Y-117350000D03*
X154025000Y-117350000D03*
G04 #@! TD*
G04 #@! TO.C,C46*
X145375000Y-70250000D03*
X143375000Y-70250000D03*
G04 #@! TD*
D13*
G04 #@! TO.C,C32*
X144575000Y-41050000D03*
X144575000Y-39050000D03*
G04 #@! TD*
G04 #@! TO.C,C29*
X141625000Y-45650000D03*
X141625000Y-43650000D03*
G04 #@! TD*
D14*
G04 #@! TO.C,C27*
X144575000Y-50475000D03*
X142575000Y-50475000D03*
G04 #@! TD*
G04 #@! TO.C,C19*
X123350000Y-56775000D03*
X125350000Y-56775000D03*
G04 #@! TD*
G04 #@! TO.C,C15*
X122725000Y-54225000D03*
X120725000Y-54225000D03*
G04 #@! TD*
G04 #@! TO.C,C12*
X127700000Y-35580000D03*
X125700000Y-35580000D03*
G04 #@! TD*
D13*
G04 #@! TO.C,C9*
X118970000Y-42050000D03*
X118970000Y-40050000D03*
G04 #@! TD*
D14*
G04 #@! TO.C,C8*
X120890000Y-35580000D03*
X122890000Y-35580000D03*
G04 #@! TD*
D13*
G04 #@! TO.C,C5*
X120250000Y-50200000D03*
X120250000Y-52200000D03*
G04 #@! TD*
G04 #@! TO.C,C48*
X147075000Y-73525000D03*
X147075000Y-71525000D03*
G04 #@! TD*
D15*
G04 #@! TO.C,C42*
X161975000Y-45000000D03*
X158975000Y-45000000D03*
G04 #@! TD*
D16*
G04 #@! TO.C,L12*
X74425000Y-50575000D03*
X80825000Y-50575000D03*
G04 #@! TD*
D17*
G04 #@! TO.C,U18*
X88150000Y-43137500D03*
X88150000Y-41437500D03*
X88150000Y-39737500D03*
X88150000Y-38037500D03*
X88150000Y-36337500D03*
D18*
X76575000Y-36962500D03*
X81425000Y-42512500D03*
X76575000Y-42512500D03*
X81425000Y-36962500D03*
G04 #@! TD*
D19*
G04 #@! TO.C,C66*
X85650000Y-52550000D03*
X87150000Y-52550000D03*
G04 #@! TD*
D20*
G04 #@! TO.C,L13*
X96750000Y-54625000D03*
X96750000Y-61025000D03*
G04 #@! TD*
D21*
G04 #@! TO.C,U21*
X155770000Y-54800000D03*
X160850000Y-54800000D03*
X158310000Y-54800000D03*
D22*
X158310000Y-48600000D03*
D21*
X157040000Y-54800000D03*
X159580000Y-54800000D03*
G04 #@! TD*
D23*
G04 #@! TO.C,R79*
X150350000Y-51370000D03*
X151850000Y-51370000D03*
G04 #@! TD*
G04 #@! TO.C,R46*
X149130000Y-52870000D03*
X147630000Y-52870000D03*
G04 #@! TD*
D24*
G04 #@! TO.C,R39*
X147550000Y-60500000D03*
X147550000Y-62000000D03*
G04 #@! TD*
D23*
G04 #@! TO.C,R38*
X144430000Y-63630000D03*
X145930000Y-63630000D03*
G04 #@! TD*
D19*
G04 #@! TO.C,C95*
X155540000Y-58630000D03*
X157040000Y-58630000D03*
G04 #@! TD*
G04 #@! TO.C,C94*
X161080000Y-56830000D03*
X159580000Y-56830000D03*
G04 #@! TD*
G04 #@! TO.C,C92*
X154290000Y-57060000D03*
X155790000Y-57060000D03*
G04 #@! TD*
D25*
G04 #@! TO.C,J2*
X157270000Y-92700000D03*
X156000000Y-92700000D03*
X154730000Y-92700000D03*
X153460000Y-92700000D03*
X152190000Y-92700000D03*
X150920000Y-92700000D03*
X149650000Y-92700000D03*
G04 #@! TD*
D19*
G04 #@! TO.C,C91*
X89925000Y-52550000D03*
X88425000Y-52550000D03*
G04 #@! TD*
D26*
G04 #@! TO.C,U20*
X60650000Y-118470000D03*
X60650000Y-119740000D03*
X60650000Y-121010000D03*
X60650000Y-122280000D03*
X66050000Y-122280000D03*
X66050000Y-121010000D03*
X66050000Y-119740000D03*
X66050000Y-118470000D03*
G04 #@! TD*
D27*
G04 #@! TO.C,U19*
X63160000Y-78260000D03*
X63160000Y-79530000D03*
X63160000Y-80800000D03*
X63160000Y-82070000D03*
X63160000Y-83340000D03*
X63160000Y-84610000D03*
X63160000Y-85880000D03*
X68560000Y-85880000D03*
X68560000Y-84610000D03*
X68560000Y-83340000D03*
X68560000Y-82070000D03*
X68560000Y-80800000D03*
X68560000Y-79530000D03*
X68560000Y-78260000D03*
G04 #@! TD*
D28*
G04 #@! TO.C,U17*
X69575000Y-64635000D03*
X69575000Y-69715000D03*
X69575000Y-67175000D03*
D29*
X75775000Y-67175000D03*
D28*
X69575000Y-65905000D03*
X69575000Y-68445000D03*
G04 #@! TD*
D30*
G04 #@! TO.C,U15*
X148040000Y-123800000D03*
X147090000Y-123800000D03*
X146140000Y-123800000D03*
X146140000Y-126000000D03*
X148040000Y-126000000D03*
G04 #@! TD*
G04 #@! TO.C,U14*
X141900000Y-121300000D03*
X140950000Y-121300000D03*
X140000000Y-121300000D03*
X140000000Y-123500000D03*
X141900000Y-123500000D03*
G04 #@! TD*
D31*
G04 #@! TO.C,U13*
X146262500Y-108087500D03*
X146262500Y-108737500D03*
X146262500Y-109387500D03*
X146262500Y-110037500D03*
X146262500Y-110687500D03*
X146262500Y-111337500D03*
X146262500Y-111987500D03*
X146262500Y-112637500D03*
X146262500Y-113287500D03*
X146262500Y-113937500D03*
X152162500Y-113937500D03*
X152162500Y-113287500D03*
X152162500Y-112637500D03*
X152162500Y-111987500D03*
X152162500Y-111337500D03*
X152162500Y-110687500D03*
X152162500Y-110037500D03*
X152162500Y-109387500D03*
X152162500Y-108737500D03*
X152162500Y-108087500D03*
G04 #@! TD*
D32*
G04 #@! TO.C,U12*
X149000000Y-79425000D03*
X149650000Y-79425000D03*
X150300000Y-79425000D03*
X150950000Y-79425000D03*
X151600000Y-79425000D03*
X152250000Y-79425000D03*
X152900000Y-79425000D03*
X152900000Y-73525000D03*
X152250000Y-73525000D03*
X151600000Y-73525000D03*
X150950000Y-73525000D03*
X150300000Y-73525000D03*
X149650000Y-73525000D03*
X149000000Y-73525000D03*
G04 #@! TD*
D33*
G04 #@! TO.C,U11*
X152600000Y-99800000D03*
X152600000Y-98850000D03*
X152600000Y-97900000D03*
X150400000Y-97900000D03*
X150400000Y-99800000D03*
G04 #@! TD*
G04 #@! TO.C,U10*
X154300000Y-87125000D03*
X154300000Y-88075000D03*
X154300000Y-89025000D03*
X156500000Y-89025000D03*
X156500000Y-87125000D03*
G04 #@! TD*
D34*
G04 #@! TO.C,U9*
X136200000Y-78905000D03*
X136850000Y-78905000D03*
X137500000Y-78905000D03*
X138150000Y-78905000D03*
X138800000Y-78905000D03*
X139450000Y-78905000D03*
X139450000Y-74695000D03*
X138800000Y-74695000D03*
X138150000Y-74695000D03*
X137500000Y-74695000D03*
X136850000Y-74695000D03*
X136200000Y-74695000D03*
G04 #@! TD*
D33*
G04 #@! TO.C,U8*
X154325000Y-45000000D03*
X154325000Y-44050000D03*
X154325000Y-43100000D03*
X152125000Y-43100000D03*
X152125000Y-45000000D03*
X152125000Y-44050000D03*
G04 #@! TD*
D30*
G04 #@! TO.C,U7*
X121775000Y-60800000D03*
X122725000Y-60800000D03*
X123675000Y-60800000D03*
X123675000Y-58600000D03*
X121775000Y-58600000D03*
G04 #@! TD*
D33*
G04 #@! TO.C,U6*
X128300000Y-54225000D03*
X128300000Y-53275000D03*
X128300000Y-52325000D03*
X126100000Y-52325000D03*
X126100000Y-54225000D03*
G04 #@! TD*
D35*
G04 #@! TO.C,U5*
X122475000Y-46000000D03*
X122475000Y-46500000D03*
X122475000Y-47000000D03*
X122475000Y-47500000D03*
X122475000Y-48000000D03*
X122475000Y-48500000D03*
X125375000Y-48500000D03*
X125375000Y-48000000D03*
X125375000Y-47500000D03*
X125375000Y-47000000D03*
X125375000Y-46500000D03*
X125375000Y-46000000D03*
D36*
X124350000Y-48487500D03*
X124350000Y-47662500D03*
X124350000Y-46837500D03*
X124350000Y-46012500D03*
X123500000Y-48487500D03*
X123500000Y-47662500D03*
X123500000Y-46837500D03*
X123500000Y-46012500D03*
G04 #@! TD*
D30*
G04 #@! TO.C,U4*
X122790000Y-38140000D03*
X121840000Y-38140000D03*
X120890000Y-38140000D03*
X120890000Y-40340000D03*
X122790000Y-40340000D03*
G04 #@! TD*
D33*
G04 #@! TO.C,U3*
X112410000Y-55590000D03*
X112410000Y-54640000D03*
X112410000Y-53690000D03*
X110210000Y-53690000D03*
X110210000Y-55590000D03*
G04 #@! TD*
D37*
G04 #@! TO.C,U2*
X108610000Y-58120000D03*
X108610000Y-56220000D03*
X106610000Y-57170000D03*
G04 #@! TD*
D32*
G04 #@! TO.C,U1*
X100525000Y-50500000D03*
X101175000Y-50500000D03*
X101825000Y-50500000D03*
X102475000Y-50500000D03*
X102475000Y-46100000D03*
X101825000Y-46100000D03*
X101175000Y-46100000D03*
X100525000Y-46100000D03*
G04 #@! TD*
D38*
G04 #@! TO.C,T1*
X138695000Y-94350000D03*
X136155000Y-94350000D03*
X136155000Y-91150000D03*
X137425000Y-91150000D03*
X138695000Y-91150000D03*
G04 #@! TD*
D24*
G04 #@! TO.C,R78*
X62970000Y-115390000D03*
X62970000Y-116890000D03*
G04 #@! TD*
D23*
G04 #@! TO.C,R77*
X66000000Y-114300000D03*
X64500000Y-114300000D03*
G04 #@! TD*
G04 #@! TO.C,R76*
X66000000Y-112700000D03*
X64500000Y-112700000D03*
G04 #@! TD*
D24*
G04 #@! TO.C,R75*
X70750000Y-79760000D03*
X70750000Y-78260000D03*
G04 #@! TD*
D23*
G04 #@! TO.C,R74*
X72875000Y-82075000D03*
X74375000Y-82075000D03*
G04 #@! TD*
G04 #@! TO.C,R73*
X72875000Y-83975000D03*
X74375000Y-83975000D03*
G04 #@! TD*
G04 #@! TO.C,R72*
X72875000Y-85825000D03*
X74375000Y-85825000D03*
G04 #@! TD*
G04 #@! TO.C,R71*
X72875000Y-87825000D03*
X74375000Y-87825000D03*
G04 #@! TD*
G04 #@! TO.C,R70*
X69325000Y-76125000D03*
X70825000Y-76125000D03*
G04 #@! TD*
G04 #@! TO.C,R69*
X69325000Y-74575000D03*
X70825000Y-74575000D03*
G04 #@! TD*
G04 #@! TO.C,R68*
X56100000Y-60325000D03*
X54600000Y-60325000D03*
G04 #@! TD*
G04 #@! TO.C,R67*
X56075000Y-62525000D03*
X54575000Y-62525000D03*
G04 #@! TD*
D39*
G04 #@! TO.C,R66*
X89225000Y-50575000D03*
X86325000Y-50575000D03*
G04 #@! TD*
D24*
G04 #@! TO.C,R65*
X64850000Y-52400000D03*
X64850000Y-50900000D03*
G04 #@! TD*
G04 #@! TO.C,R64*
X64850000Y-48200000D03*
X64850000Y-49700000D03*
G04 #@! TD*
D23*
G04 #@! TO.C,R63*
X155625000Y-106850000D03*
X154125000Y-106850000D03*
G04 #@! TD*
G04 #@! TO.C,R62*
X155625000Y-110075000D03*
X154125000Y-110075000D03*
G04 #@! TD*
G04 #@! TO.C,R61*
X155850000Y-113300000D03*
X154350000Y-113300000D03*
G04 #@! TD*
D24*
G04 #@! TO.C,R60*
X154525000Y-77700000D03*
X154525000Y-76200000D03*
G04 #@! TD*
D23*
G04 #@! TO.C,R59*
X151900000Y-68250000D03*
X150400000Y-68250000D03*
G04 #@! TD*
D24*
G04 #@! TO.C,R58*
X149000000Y-69750000D03*
X149000000Y-71250000D03*
G04 #@! TD*
D23*
G04 #@! TO.C,R57*
X155625000Y-108450000D03*
X154125000Y-108450000D03*
G04 #@! TD*
G04 #@! TO.C,R56*
X155850000Y-111700000D03*
X154350000Y-111700000D03*
G04 #@! TD*
G04 #@! TO.C,R55*
X155625000Y-114900000D03*
X154125000Y-114900000D03*
G04 #@! TD*
D24*
G04 #@! TO.C,R54*
X153250000Y-82790000D03*
X153250000Y-81290000D03*
G04 #@! TD*
D23*
G04 #@! TO.C,R53*
X155250000Y-71750000D03*
X153750000Y-71750000D03*
G04 #@! TD*
D24*
G04 #@! TO.C,R52*
X149950000Y-82770000D03*
X149950000Y-81270000D03*
G04 #@! TD*
G04 #@! TO.C,R51*
X144050000Y-107890000D03*
X144050000Y-109390000D03*
G04 #@! TD*
G04 #@! TO.C,R50*
X142440000Y-111350000D03*
X142440000Y-112850000D03*
G04 #@! TD*
G04 #@! TO.C,R49*
X140550000Y-69925000D03*
X140550000Y-71425000D03*
G04 #@! TD*
D23*
G04 #@! TO.C,R48*
X142700000Y-73550000D03*
X141200000Y-73550000D03*
G04 #@! TD*
G04 #@! TO.C,R47*
X157425000Y-45000000D03*
X155925000Y-45000000D03*
G04 #@! TD*
G04 #@! TO.C,R45*
X158975000Y-42800000D03*
X157475000Y-42800000D03*
G04 #@! TD*
G04 #@! TO.C,R44*
X148975000Y-43350000D03*
X150475000Y-43350000D03*
G04 #@! TD*
G04 #@! TO.C,R43*
X153475000Y-41050000D03*
X151975000Y-41050000D03*
G04 #@! TD*
D24*
G04 #@! TO.C,R42*
X140175000Y-81975000D03*
X140175000Y-80475000D03*
G04 #@! TD*
G04 #@! TO.C,R41*
X135325000Y-81975000D03*
X135325000Y-80475000D03*
G04 #@! TD*
D23*
G04 #@! TO.C,R40*
X154775000Y-41050000D03*
X156275000Y-41050000D03*
G04 #@! TD*
G04 #@! TO.C,R37*
X150800000Y-41050000D03*
X149300000Y-41050000D03*
G04 #@! TD*
G04 #@! TO.C,R36*
X157475000Y-41050000D03*
X158975000Y-41050000D03*
G04 #@! TD*
D24*
G04 #@! TO.C,R35*
X139025000Y-87650000D03*
X139025000Y-89150000D03*
G04 #@! TD*
G04 #@! TO.C,R34*
X135775000Y-87650000D03*
X135775000Y-89150000D03*
G04 #@! TD*
G04 #@! TO.C,R33*
X146475000Y-39675000D03*
X146475000Y-38175000D03*
G04 #@! TD*
D23*
G04 #@! TO.C,R32*
X136150000Y-99525000D03*
X137650000Y-99525000D03*
G04 #@! TD*
G04 #@! TO.C,R31*
X121375000Y-99525000D03*
X119875000Y-99525000D03*
G04 #@! TD*
D24*
G04 #@! TO.C,R30*
X143050000Y-53675000D03*
X143050000Y-52175000D03*
G04 #@! TD*
G04 #@! TO.C,R29*
X146450000Y-58650000D03*
X146450000Y-57150000D03*
G04 #@! TD*
D23*
G04 #@! TO.C,R28*
X118650000Y-57450000D03*
X117150000Y-57450000D03*
G04 #@! TD*
G04 #@! TO.C,R27*
X117150000Y-59125000D03*
X118650000Y-59125000D03*
G04 #@! TD*
G04 #@! TO.C,R26*
X117150000Y-60800000D03*
X118650000Y-60800000D03*
G04 #@! TD*
G04 #@! TO.C,R25*
X126800000Y-60800000D03*
X128300000Y-60800000D03*
G04 #@! TD*
D24*
G04 #@! TO.C,R24*
X128300000Y-59200000D03*
X128300000Y-57700000D03*
G04 #@! TD*
D23*
G04 #@! TO.C,R23*
X126100000Y-50750000D03*
X124600000Y-50750000D03*
G04 #@! TD*
G04 #@! TO.C,R22*
X126800000Y-56200000D03*
X128300000Y-56200000D03*
G04 #@! TD*
G04 #@! TO.C,R21*
X128300000Y-50750000D03*
X129800000Y-50750000D03*
G04 #@! TD*
G04 #@! TO.C,R20*
X128300000Y-49000000D03*
X126800000Y-49000000D03*
G04 #@! TD*
G04 #@! TO.C,R19*
X128300000Y-45150000D03*
X126800000Y-45150000D03*
G04 #@! TD*
G04 #@! TO.C,R18*
X127700000Y-39190000D03*
X126200000Y-39190000D03*
G04 #@! TD*
G04 #@! TO.C,R17*
X127700000Y-37490000D03*
X126200000Y-37490000D03*
G04 #@! TD*
G04 #@! TO.C,R16*
X111710000Y-52110000D03*
X110210000Y-52110000D03*
G04 #@! TD*
G04 #@! TO.C,R15*
X110210000Y-50400000D03*
X111710000Y-50400000D03*
G04 #@! TD*
D24*
G04 #@! TO.C,R14*
X113100000Y-37870000D03*
X113100000Y-39370000D03*
G04 #@! TD*
D23*
G04 #@! TO.C,R13*
X124710000Y-40910000D03*
X126210000Y-40910000D03*
G04 #@! TD*
G04 #@! TO.C,R12*
X117930000Y-36400000D03*
X119430000Y-36400000D03*
G04 #@! TD*
G04 #@! TO.C,R11*
X118450000Y-46700000D03*
X119950000Y-46700000D03*
G04 #@! TD*
G04 #@! TO.C,R10*
X118450000Y-48425000D03*
X119950000Y-48425000D03*
G04 #@! TD*
G04 #@! TO.C,R9*
X119430000Y-38140000D03*
X117930000Y-38140000D03*
G04 #@! TD*
G04 #@! TO.C,R8*
X105225000Y-34025000D03*
X103725000Y-34025000D03*
G04 #@! TD*
D24*
G04 #@! TO.C,R7*
X91050000Y-56800000D03*
X91050000Y-55300000D03*
G04 #@! TD*
D23*
G04 #@! TO.C,R6*
X105275000Y-45850000D03*
X103775000Y-45850000D03*
G04 #@! TD*
G04 #@! TO.C,R5*
X105275000Y-50550000D03*
X103775000Y-50550000D03*
G04 #@! TD*
D24*
G04 #@! TO.C,R4*
X101625000Y-56800000D03*
X101625000Y-55300000D03*
G04 #@! TD*
G04 #@! TO.C,R3*
X98925000Y-47100000D03*
X98925000Y-45600000D03*
G04 #@! TD*
D23*
G04 #@! TO.C,R2*
X103775000Y-47425000D03*
X105275000Y-47425000D03*
G04 #@! TD*
G04 #@! TO.C,R1*
X103775000Y-48975000D03*
X105275000Y-48975000D03*
G04 #@! TD*
D16*
G04 #@! TO.C,L14*
X99425000Y-38575000D03*
X105825000Y-38575000D03*
G04 #@! TD*
D40*
G04 #@! TO.C,L11*
X148912500Y-104762500D03*
X147512500Y-104762500D03*
G04 #@! TD*
G04 #@! TO.C,L10*
X149262500Y-117362500D03*
X150662500Y-117362500D03*
G04 #@! TD*
G04 #@! TO.C,L9*
X145375000Y-73525000D03*
X145375000Y-72125000D03*
G04 #@! TD*
G04 #@! TO.C,L8*
X138250000Y-70475000D03*
X136850000Y-70475000D03*
G04 #@! TD*
G04 #@! TO.C,L7*
X134825000Y-76175000D03*
X134825000Y-74775000D03*
G04 #@! TD*
G04 #@! TO.C,L6*
X150530000Y-49940000D03*
X149130000Y-49940000D03*
G04 #@! TD*
D41*
G04 #@! TO.C,L5*
X144575000Y-42475000D03*
X144575000Y-44375000D03*
G04 #@! TD*
D40*
G04 #@! TO.C,L4*
X144575000Y-45650000D03*
X143175000Y-45650000D03*
G04 #@! TD*
D41*
G04 #@! TO.C,L3*
X144575000Y-46950000D03*
X144575000Y-48850000D03*
G04 #@! TD*
D40*
G04 #@! TO.C,L2*
X144450000Y-62000000D03*
X143050000Y-62000000D03*
G04 #@! TD*
G04 #@! TO.C,L1*
X118450000Y-50200000D03*
X118450000Y-51600000D03*
G04 #@! TD*
D42*
G04 #@! TO.C,GS4*
X141175000Y-76355000D03*
X141175000Y-77625000D03*
X141175000Y-78895000D03*
G04 #@! TD*
G04 #@! TO.C,GS3*
X143175000Y-76355000D03*
X143175000Y-77625000D03*
X143175000Y-78895000D03*
G04 #@! TD*
G04 #@! TO.C,GS2*
X115640000Y-39910000D03*
X115640000Y-38640000D03*
X115640000Y-37370000D03*
G04 #@! TD*
D43*
G04 #@! TO.C,GS1*
X62005000Y-60900000D03*
X63275000Y-60900000D03*
X64545000Y-60900000D03*
G04 #@! TD*
D44*
G04 #@! TO.C,DS2*
X53425000Y-60325000D03*
X51825000Y-60325000D03*
G04 #@! TD*
G04 #@! TO.C,DS1*
X53425000Y-62525000D03*
X51825000Y-62525000D03*
G04 #@! TD*
D37*
G04 #@! TO.C,D1*
X138500000Y-85550000D03*
X138500000Y-83650000D03*
X136500000Y-84600000D03*
G04 #@! TD*
D19*
G04 #@! TO.C,C90*
X64550000Y-116740000D03*
X66050000Y-116740000D03*
G04 #@! TD*
D45*
G04 #@! TO.C,C89*
X61200000Y-76750000D03*
X61200000Y-78250000D03*
G04 #@! TD*
G04 #@! TO.C,C86*
X68025000Y-76125000D03*
X68025000Y-74625000D03*
G04 #@! TD*
G04 #@! TO.C,C85*
X61200000Y-81150000D03*
X61200000Y-79650000D03*
G04 #@! TD*
G04 #@! TO.C,C82*
X107900000Y-34825000D03*
X107900000Y-36325000D03*
G04 #@! TD*
D19*
G04 #@! TO.C,C81*
X93250000Y-99500000D03*
X94750000Y-99500000D03*
G04 #@! TD*
D45*
G04 #@! TO.C,C80*
X97600000Y-36550000D03*
X97600000Y-38050000D03*
G04 #@! TD*
D19*
G04 #@! TO.C,C79*
X94500000Y-52650000D03*
X96000000Y-52650000D03*
G04 #@! TD*
D45*
G04 #@! TO.C,C76*
X91912500Y-36537500D03*
X91912500Y-38037500D03*
G04 #@! TD*
G04 #@! TO.C,C75*
X67450000Y-67400000D03*
X67450000Y-65900000D03*
G04 #@! TD*
D19*
G04 #@! TO.C,C74*
X90675000Y-34100000D03*
X89175000Y-34100000D03*
G04 #@! TD*
D45*
G04 #@! TO.C,C73*
X67450000Y-70200000D03*
X67450000Y-68700000D03*
G04 #@! TD*
G04 #@! TO.C,C70*
X91912500Y-39937500D03*
X91912500Y-41437500D03*
G04 #@! TD*
G04 #@! TO.C,C69*
X67450000Y-63125000D03*
X67450000Y-64625000D03*
G04 #@! TD*
D19*
G04 #@! TO.C,C62*
X151150000Y-123800000D03*
X149650000Y-123800000D03*
G04 #@! TD*
G04 #@! TO.C,C61*
X145100000Y-121300000D03*
X143600000Y-121300000D03*
G04 #@! TD*
G04 #@! TO.C,C58*
X152137500Y-115387500D03*
X150637500Y-115387500D03*
G04 #@! TD*
G04 #@! TO.C,C57*
X151912500Y-106637500D03*
X150412500Y-106637500D03*
G04 #@! TD*
G04 #@! TO.C,C56*
X146337500Y-115387500D03*
X147837500Y-115387500D03*
G04 #@! TD*
G04 #@! TO.C,C55*
X146337500Y-106637500D03*
X147837500Y-106637500D03*
G04 #@! TD*
D45*
G04 #@! TO.C,C54*
X154475000Y-75025000D03*
X154475000Y-73525000D03*
G04 #@! TD*
G04 #@! TO.C,C52*
X151600000Y-82770000D03*
X151600000Y-81270000D03*
G04 #@! TD*
G04 #@! TO.C,C51*
X152670000Y-88630000D03*
X152670000Y-87130000D03*
G04 #@! TD*
G04 #@! TO.C,C50*
X154200000Y-98300000D03*
X154200000Y-99800000D03*
G04 #@! TD*
D19*
G04 #@! TO.C,C49*
X152300000Y-70750000D03*
X150800000Y-70750000D03*
G04 #@! TD*
G04 #@! TO.C,C45*
X136750000Y-68950000D03*
X138250000Y-68950000D03*
G04 #@! TD*
G04 #@! TO.C,C44*
X138350000Y-71975000D03*
X136850000Y-71975000D03*
G04 #@! TD*
G04 #@! TO.C,C43*
X160425000Y-42800000D03*
X161925000Y-42800000D03*
G04 #@! TD*
D45*
G04 #@! TO.C,C41*
X134825000Y-78975000D03*
X134825000Y-77475000D03*
G04 #@! TD*
G04 #@! TO.C,C40*
X138500000Y-81975000D03*
X138500000Y-80475000D03*
G04 #@! TD*
G04 #@! TO.C,C39*
X137000000Y-81975000D03*
X137000000Y-80475000D03*
G04 #@! TD*
G04 #@! TO.C,C37*
X134825000Y-71950000D03*
X134825000Y-73450000D03*
G04 #@! TD*
D19*
G04 #@! TO.C,C36*
X149025000Y-45000000D03*
X150525000Y-45000000D03*
G04 #@! TD*
D45*
G04 #@! TO.C,C35*
X137425000Y-89175000D03*
X137425000Y-87675000D03*
G04 #@! TD*
D19*
G04 #@! TO.C,C34*
X146475000Y-41050000D03*
X147975000Y-41050000D03*
G04 #@! TD*
G04 #@! TO.C,C33*
X147630000Y-51370000D03*
X149130000Y-51370000D03*
G04 #@! TD*
D45*
G04 #@! TO.C,C31*
X136150000Y-97725000D03*
X136150000Y-96225000D03*
G04 #@! TD*
G04 #@! TO.C,C30*
X137800000Y-97725000D03*
X137800000Y-96225000D03*
G04 #@! TD*
G04 #@! TO.C,C28*
X145925000Y-60500000D03*
X145925000Y-62000000D03*
G04 #@! TD*
D19*
G04 #@! TO.C,C26*
X144550000Y-60575000D03*
X143050000Y-60575000D03*
G04 #@! TD*
D45*
G04 #@! TO.C,C25*
X144575000Y-53675000D03*
X144575000Y-52175000D03*
G04 #@! TD*
G04 #@! TO.C,C24*
X140550000Y-58850000D03*
X140550000Y-57350000D03*
G04 #@! TD*
D19*
G04 #@! TO.C,C23*
X114235000Y-76050000D03*
X115735000Y-76050000D03*
G04 #@! TD*
D45*
G04 #@! TO.C,C22*
X115725000Y-59300000D03*
X115725000Y-60800000D03*
G04 #@! TD*
D19*
G04 #@! TO.C,C21*
X120275000Y-57000000D03*
X121775000Y-57000000D03*
G04 #@! TD*
D45*
G04 #@! TO.C,C20*
X120025000Y-59300000D03*
X120025000Y-60800000D03*
G04 #@! TD*
G04 #@! TO.C,C18*
X125300000Y-60800000D03*
X125300000Y-59300000D03*
G04 #@! TD*
G04 #@! TO.C,C16*
X124475000Y-52725000D03*
X124475000Y-54225000D03*
G04 #@! TD*
D19*
G04 #@! TO.C,C14*
X128300000Y-43475000D03*
X129800000Y-43475000D03*
G04 #@! TD*
G04 #@! TO.C,C13*
X128325000Y-46825000D03*
X126825000Y-46825000D03*
G04 #@! TD*
D45*
G04 #@! TO.C,C11*
X124710000Y-39190000D03*
X124710000Y-37690000D03*
G04 #@! TD*
G04 #@! TO.C,C10*
X122790000Y-43550000D03*
X122790000Y-42050000D03*
G04 #@! TD*
D19*
G04 #@! TO.C,C7*
X107110000Y-54660000D03*
X108610000Y-54660000D03*
G04 #@! TD*
D45*
G04 #@! TO.C,C6*
X121000000Y-43550000D03*
X121000000Y-45050000D03*
G04 #@! TD*
D19*
G04 #@! TO.C,C4*
X107110000Y-59680000D03*
X108610000Y-59680000D03*
G04 #@! TD*
G04 #@! TO.C,C3*
X98950000Y-44325000D03*
X100450000Y-44325000D03*
G04 #@! TD*
D45*
G04 #@! TO.C,C2*
X107000000Y-47425000D03*
X107000000Y-45925000D03*
G04 #@! TD*
G04 #@! TO.C,C1*
X107000000Y-48950000D03*
X107000000Y-50450000D03*
G04 #@! TD*
D46*
G04 #@! TO.C,U16*
X66763000Y-48453000D03*
X66763000Y-48953000D03*
X66763000Y-49453000D03*
X66763000Y-49953000D03*
X66763000Y-50453000D03*
X71163000Y-50453000D03*
X71163000Y-49953000D03*
X71163000Y-49453000D03*
X71163000Y-48953000D03*
X71163000Y-48453000D03*
X66763000Y-50953000D03*
X66763000Y-51453000D03*
X66763000Y-51953000D03*
X71163000Y-50953000D03*
X71163000Y-51453000D03*
X71163000Y-51953000D03*
D47*
X68963000Y-50103000D03*
G04 #@! TD*
D48*
G04 #@! TO.C,J1*
X165750000Y-49250000D03*
X165750000Y-40750000D03*
D49*
X165900000Y-45000000D03*
G04 #@! TD*
D48*
G04 #@! TO.C,J3*
X165750000Y-63250000D03*
X165750000Y-54750000D03*
D49*
X165900000Y-59000000D03*
G04 #@! TD*
D48*
G04 #@! TO.C,J4*
X165750000Y-119250000D03*
X165750000Y-110750000D03*
D49*
X165900000Y-115000000D03*
G04 #@! TD*
D48*
G04 #@! TO.C,J5*
X165750000Y-105250000D03*
X165750000Y-96750000D03*
D49*
X165900000Y-101000000D03*
G04 #@! TD*
D48*
G04 #@! TO.C,J6*
X165750000Y-91250000D03*
X165750000Y-82750000D03*
D49*
X165900000Y-87000000D03*
G04 #@! TD*
D48*
G04 #@! TO.C,J7*
X165750000Y-77250000D03*
X165750000Y-68750000D03*
D49*
X165900000Y-73000000D03*
G04 #@! TD*
M02*
