M48
;DRILL file {KiCad 4.0.7} date Sun Sep 24 15:39:52 2017
;FORMAT={-:-/ absolute / metric / decimal}
FMAT,2
METRIC,TZ
T1C0.300
T2C0.400
T3C0.500
T4C0.600
T5C0.650
T6C0.800
T7C1.000
T8C1.016
T9C1.100
T10C1.350
T11C2.800
T12C3.200
%
G90
G05
M71
T1
X57.5Y-60.3
X57.575Y-62.525
X60.65Y-116.86
X62.35Y-119.8
X62.85Y-114.3
X64.5Y-111.6
X64.55Y-115.44
X66.03Y-115.47
X67.Y-82.5
X67.9Y-50.953
X68.963Y-50.103
X70.1Y-49.453
X70.1Y-50.453
X70.15Y-80.8
X75.675Y-83.975
X75.7Y-82.15
X98.925Y-48.175
X100.45Y-52.65
X101.75Y-44.225
X101.825Y-52.875
X108.24Y-48.94
X109.08Y-47.43
X121.04Y-46.69
X121.25Y-47.9
X121.3Y-49.08
X123.5Y-46.012
X123.5Y-46.837
X123.5Y-47.662
X123.5Y-48.487
X124.35Y-46.012
X124.35Y-46.837
X124.35Y-47.662
X124.35Y-48.487
X126.55Y-48.
X127.49Y-46.16
X136.2Y-75.8
X136.2Y-79.8
X138.5Y-77.5
X139.1Y-75.9
X143.96Y-105.8
X144.55Y-77.6
X147.52Y-81.33
X156.6Y-43.9
T2
X51.825Y-61.375
X59.Y-32.
X59.Y-128.
X60.2Y-78.25
X60.25Y-76.75
X60.25Y-79.65
X61.2Y-81.9
X62.2Y-76.75
X62.95Y-65.9
X62.95Y-68.9
X63.7Y-52.4
X63.75Y-48.2
X64.52Y-85.88
X64.75Y-63.75
X64.75Y-64.8
X64.75Y-69.9
X64.85Y-56.8
X64.9Y-43.65
X66.5Y-32.
X66.5Y-128.
X66.525Y-63.125
X66.55Y-67.4
X66.55Y-70.2
X67.6Y-123.2
X68.4Y-61.55
X68.56Y-77.46
X68.9Y-106.9
X69.Y-43.65
X69.Y-56.8
X69.15Y-121.9
X69.625Y-59.975
X69.9Y-118.6
X71.375Y-67.175
X71.59Y-78.26
X72.1Y-105.5
X72.2Y-111.8
X72.2Y-117.1
X72.625Y-63.825
X73.05Y-43.65
X73.15Y-56.8
X73.525Y-61.925
X74.Y-32.
X74.Y-128.
X74.7Y-71.7
X74.9Y-103.8
X74.9Y-110.4
X74.9Y-116.2
X76.Y-124.7
X76.8Y-36.1
X76.8Y-38.6
X76.8Y-41.1
X78.6Y-74.5
X78.7Y-81.
X78.7Y-89.2
X78.7Y-96.8
X78.7Y-103.6
X78.7Y-110.2
X78.7Y-116.
X79.2Y-61.7
X79.3Y-36.1
X79.3Y-38.6
X79.3Y-41.1
X79.3Y-43.6
X81.Y-118.2
X81.5Y-32.
X81.5Y-128.
X81.8Y-36.1
X81.8Y-38.6
X81.8Y-41.1
X81.8Y-43.6
X81.875Y-47.575
X82.5Y-61.7
X84.4Y-56.7
X84.4Y-59.7
X85.412Y-39.737
X85.65Y-53.45
X85.725Y-47.575
X86.75Y-60.6
X86.75Y-68.1
X86.75Y-75.6
X86.75Y-83.1
X86.75Y-90.6
X86.75Y-98.1
X88.5Y-118.2
X89.Y-32.
X89.Y-128.
X89.2Y-61.05
X89.225Y-49.1
X89.25Y-58.05
X89.5Y-55.
X89.925Y-53.525
X90.575Y-50.575
X91.Y-107.
X91.65Y-34.1
X91.775Y-50.575
X92.225Y-45.275
X92.225Y-49.125
X92.662Y-39.938
X92.912Y-35.038
X93.Y-58.05
X93.05Y-38.038
X93.3Y-55.
X93.475Y-61.025
X93.9Y-57.1
X94.5Y-50.6
X94.5Y-51.75
X94.5Y-53.6
X94.8Y-98.5
X94.8Y-100.5
X94.925Y-61.025
X95.037Y-39.45
X95.037Y-40.9
X95.037Y-42.2
X95.175Y-54.625
X96.Y-118.2
X96.5Y-32.
X96.5Y-128.
X96.7Y-57.1
X96.75Y-51.75
X96.75Y-53.4
X96.8Y-38.05
X97.25Y-35.1
X98.Y-107.
X98.15Y-45.6
X98.175Y-44.325
X98.275Y-54.625
X98.45Y-36.55
X98.575Y-61.025
X98.9Y-43.3
X99.425Y-37.175
X99.425Y-40.275
X100.Y-55.
X100.2Y-57.1
X100.45Y-43.55
X102.8Y-54.3
X103.Y-32.
X103.Y-34.05
X103.1Y-50.5
X103.1Y-57.1
X103.2Y-36.
X103.3Y-40.3
X103.3Y-42.6
X103.4Y-52.6
X103.5Y-118.2
X104.Y-128.
X104.1Y-60.7
X104.1Y-68.2
X104.1Y-75.7
X104.1Y-83.2
X104.1Y-90.7
X104.1Y-98.2
X104.5Y-55.9
X105.6Y-42.7
X105.6Y-44.3
X105.7Y-52.1
X105.7Y-54.3
X105.8Y-36.
X105.82Y-57.17
X106.Y-107.
X106.725Y-41.575
X106.95Y-38.575
X107.Y-33.7
X107.11Y-53.86
X107.11Y-60.59
X107.725Y-45.925
X107.85Y-50.45
X107.9Y-37.35
X108.61Y-60.64
X110.475Y-38.575
X110.475Y-41.575
X111.Y-118.2
X111.5Y-128.
X113.Y-107.
X113.34Y-54.64
X114.85Y-59.3
X117.15Y-56.3
X117.7Y-40.05
X117.8Y-42.05
X117.93Y-35.38
X118.45Y-52.35
X118.5Y-118.2
X118.97Y-42.93
X119.Y-128.
X119.1Y-33.9
X119.675Y-54.225
X120.1Y-43.55
X120.275Y-56.075
X121.Y-107.
X121.25Y-52.2
X121.84Y-37.01
X122.15Y-55.45
X122.725Y-61.875
X122.79Y-44.39
X122.9Y-33.9
X123.35Y-55.6
X123.675Y-52.725
X124.5Y-103.9
X124.6Y-51.7
X125.35Y-58.1
X125.6Y-33.9
X126.Y-118.2
X126.1Y-66.8
X126.1Y-70.5
X126.1Y-78.
X126.1Y-85.5
X126.21Y-41.89
X126.25Y-59.3
X126.5Y-128.
X127.7Y-101.
X129.175Y-46.825
X129.3Y-64.2
X129.4Y-52.9
X129.8Y-42.5
X129.8Y-51.7
X130.2Y-34.
X130.4Y-90.3
X131.Y-55.9
X132.2Y-100.9
X132.8Y-118.2
X132.9Y-61.9
X133.Y-40.5
X133.Y-46.1
X133.Y-51.6
X133.Y-56.5
X133.1Y-34.
X133.8Y-72.7
X133.8Y-78.2
X133.9Y-69.
X133.9Y-81.2
X133.9Y-84.5
X134.Y-89.4
X134.Y-128.
X134.5Y-94.3
X134.6Y-103.1
X134.6Y-109.6
X134.6Y-115.4
X135.65Y-73.
X136.6Y-66.2
X136.75Y-68.1
X136.9Y-100.9
X137.4Y-94.4
X137.425Y-86.725
X137.6Y-120.8
X137.6Y-124.2
X138.25Y-68.05
X138.3Y-103.1
X139.3Y-71.95
X139.3Y-96.2
X139.4Y-98.6
X139.5Y-35.9
X139.5Y-41.1
X139.5Y-48.6
X139.5Y-56.1
X139.6Y-62.7
X140.Y-32.
X141.025Y-80.475
X141.1Y-92.2
X141.15Y-75.445
X141.2Y-103.9
X141.4Y-100.
X141.5Y-112.85
X141.5Y-128.
X141.625Y-42.625
X141.7Y-96.4
X142.575Y-49.125
X142.9Y-115.7
X143.15Y-80.2
X143.375Y-69.075
X143.375Y-71.425
X143.4Y-113.85
X143.45Y-39.05
X143.6Y-122.15
X143.73Y-63.63
X144.43Y-64.58
X144.55Y-59.65
X144.65Y-112.45
X144.71Y-102.76
X144.76Y-104.76
X144.812Y-117.362
X145.09Y-106.64
X145.1Y-87.2
X145.1Y-120.3
X145.213Y-115.387
X145.375Y-69.025
X145.838Y-118.387
X145.925Y-59.675
X146.55Y-47.55
X146.82Y-52.87
X147.075Y-70.475
X147.075Y-74.725
X147.075Y-76.025
X147.09Y-102.76
X147.09Y-124.74
X147.475Y-38.175
X147.5Y-32.
X147.525Y-49.325
X147.55Y-59.8
X147.63Y-53.77
X147.7Y-110.25
X147.9Y-84.4
X148.15Y-43.35
X148.2Y-45.
X148.5Y-60.5
X149.Y-128.
X149.65Y-91.
X149.65Y-94.5
X149.65Y-123.
X150.65Y-110.3
X150.8Y-69.9
X150.95Y-78.05
X151.06Y-52.91
X151.06Y-56.69
X151.06Y-58.69
X151.11Y-61.69
X151.15Y-122.95
X151.25Y-45.
X151.6Y-75.6
X151.6Y-83.7
X151.67Y-87.13
X151.67Y-88.63
X151.85Y-50.4
X151.95Y-77.35
X152.025Y-118.475
X152.1Y-66.3
X152.3Y-69.95
X152.412Y-103.712
X152.9Y-78.05
X153.Y-106.2
X153.1Y-57.15
X153.1Y-115.75
X153.387Y-104.762
X153.46Y-91.
X153.46Y-94.4
X153.55Y-112.45
X154.025Y-118.425
X154.06Y-51.51
X154.06Y-52.76
X154.775Y-41.975
X155.Y-32.
X155.Y-117.35
X155.1Y-99.8
X155.15Y-98.3
X155.325Y-73.525
X155.325Y-75.025
X155.54Y-59.54
X155.61Y-61.64
X155.95Y-48.6
X156.5Y-70.1
X156.5Y-128.
X156.6Y-66.4
X157.Y-119.4
X157.04Y-53.01
X157.04Y-56.8
X157.04Y-60.26
X157.04Y-61.64
X157.27Y-91.
X157.27Y-94.4
X157.4Y-105.8
X158.3Y-121.1
X158.31Y-47.01
X158.31Y-52.96
X158.31Y-56.79
X158.975Y-40.125
X159.4Y-112.3
X159.9Y-108.7
X160.5Y-73.8
X160.5Y-82.2
X160.7Y-48.6
X160.8Y-63.1
X161.08Y-57.77
X161.1Y-115.6
X161.1Y-119.2
X161.5Y-32.
X161.8Y-54.8
X161.9Y-40.7
X165.7Y-93.9
X165.8Y-51.9
X165.8Y-66.
X165.8Y-79.9
X165.8Y-107.9
T3
X52.6Y-35.
X52.6Y-125.
X53.303Y-33.303
X53.303Y-36.697
X53.303Y-123.303
X53.303Y-126.697
X55.Y-32.6
X55.Y-37.4
X55.Y-122.6
X55.Y-127.4
X56.697Y-33.303
X56.697Y-36.697
X56.697Y-123.303
X56.697Y-126.697
X57.4Y-35.
X57.4Y-125.
X162.6Y-35.
X162.6Y-125.
X163.303Y-33.303
X163.303Y-36.697
X163.303Y-123.303
X163.303Y-126.697
X165.Y-32.6
X165.Y-37.4
X165.Y-122.6
X165.Y-127.4
X166.697Y-33.303
X166.697Y-36.697
X166.697Y-123.303
X166.697Y-126.697
X167.4Y-35.
X167.4Y-125.
T4
X69.5Y-37.43
X69.5Y-38.7
X69.5Y-39.97
X75.325Y-91.835
X75.325Y-93.105
X75.325Y-94.375
X143.05Y-56.1
X143.05Y-57.37
X143.05Y-58.64
T5
X96.735Y-80.51
X96.735Y-99.51
X115.735Y-80.51
X115.735Y-90.01
X115.735Y-99.51
T6
X122.55Y-51.075
X125.375Y-43.575
X129.45Y-39.19
X130.29Y-54.22
X130.77Y-48.75
T7
X55.3Y-72.95
X55.3Y-75.49
X55.3Y-78.03
X55.3Y-80.57
X55.3Y-83.11
X55.3Y-85.65
X55.3Y-88.19
X55.3Y-90.73
X55.3Y-93.27
X55.3Y-95.81
X55.3Y-98.35
X55.3Y-100.89
X55.3Y-103.43
X55.3Y-105.97
X55.3Y-108.51
X55.3Y-111.05
X57.84Y-72.95
X57.84Y-75.49
X57.84Y-78.03
X57.84Y-80.57
X57.84Y-83.11
X57.84Y-85.65
X57.84Y-88.19
X57.84Y-90.73
X57.84Y-93.27
X57.84Y-95.81
X57.84Y-98.35
X57.84Y-100.89
X57.84Y-103.43
X57.84Y-105.97
X57.84Y-108.51
X57.84Y-111.05
T8
X110.56Y-34.82
X113.1Y-34.82
X115.64Y-34.82
T9
X59.Y-45.
X59.Y-55.
X62.Y-45.
X62.Y-55.
T10
X146.9Y-92.55
X159.73Y-93.55
T11
X52.76Y-67.87
X52.76Y-116.13
T12
X55.Y-35.
X55.Y-125.
X165.Y-35.
X165.Y-125.
T0
M30
