G04 #@! TF.FileFunction,Copper,L2,Bot,Signal*
%FSLAX46Y46*%
G04 Gerber Fmt 4.6, Leading zero omitted, Abs format (unit mm)*
G04 Created by KiCad (PCBNEW 4.0.6) date Sat Aug 26 16:54:20 2017*
%MOMM*%
%LPD*%
G01*
G04 APERTURE LIST*
%ADD10C,0.100000*%
%ADD11R,3.200000X2.700000*%
%ADD12C,1.050000*%
%ADD13R,1.700000X1.700000*%
%ADD14O,1.700000X1.700000*%
%ADD15C,0.600000*%
%ADD16C,1.000000*%
%ADD17C,0.250000*%
G04 APERTURE END LIST*
D10*
D11*
X102750000Y-81300000D03*
X102750000Y-89200000D03*
X107750000Y-87050000D03*
X107750000Y-94950000D03*
X112750000Y-83350000D03*
X112750000Y-91250000D03*
X117300000Y-87050000D03*
X117300000Y-94950000D03*
X122250000Y-81350000D03*
X122250000Y-89250000D03*
D12*
X103200000Y-96800000D03*
X112700000Y-96800000D03*
X122200000Y-96800000D03*
X122200000Y-77800000D03*
X103200000Y-77800000D03*
D13*
X119000000Y-76600000D03*
D14*
X119000000Y-79140000D03*
X116460000Y-76600000D03*
X116460000Y-79140000D03*
X113920000Y-76600000D03*
X113920000Y-79140000D03*
X111380000Y-76600000D03*
X111380000Y-79140000D03*
X108840000Y-76600000D03*
X108840000Y-79140000D03*
X106300000Y-76600000D03*
X106300000Y-79140000D03*
D15*
X123500000Y-86350000D03*
X119400000Y-84700000D03*
X107500000Y-89750000D03*
X107350000Y-92650000D03*
X102050000Y-87100000D03*
X105250000Y-83650000D03*
X124300000Y-93050000D03*
D16*
X118670000Y-81350000D02*
X116460000Y-79140000D01*
X122250000Y-81350000D02*
X118670000Y-81350000D01*
X117300000Y-82520000D02*
X113920000Y-79140000D01*
X117300000Y-87050000D02*
X117300000Y-82520000D01*
X111380000Y-80880000D02*
X111380000Y-79140000D01*
X112750000Y-83350000D02*
X112750000Y-82250000D01*
X112750000Y-82250000D02*
X111380000Y-80880000D01*
X108840000Y-82010000D02*
X108840000Y-79140000D01*
X107750000Y-87050000D02*
X107750000Y-83100000D01*
X107750000Y-83100000D02*
X108840000Y-82010000D01*
X105200000Y-81300000D02*
X106300000Y-80200000D01*
X106300000Y-80200000D02*
X106300000Y-79140000D01*
X105200000Y-81300000D02*
X102750000Y-81300000D01*
D17*
G36*
X123999541Y-75152583D02*
X124507806Y-75492194D01*
X124847418Y-76000460D01*
X124975000Y-76641860D01*
X124975000Y-97958140D01*
X124847418Y-98599540D01*
X124507806Y-99107806D01*
X123999541Y-99447417D01*
X123358140Y-99575000D01*
X100425000Y-99575000D01*
X100425000Y-96978236D01*
X102299844Y-96978236D01*
X102436572Y-97309143D01*
X102689525Y-97562538D01*
X103020194Y-97699843D01*
X103378236Y-97700156D01*
X103709143Y-97563428D01*
X103808527Y-97464217D01*
X112212560Y-97464217D01*
X112266785Y-97608932D01*
X112609326Y-97713141D01*
X112965673Y-97678331D01*
X113133215Y-97608932D01*
X113187440Y-97464217D01*
X112700000Y-96976777D01*
X112212560Y-97464217D01*
X103808527Y-97464217D01*
X103962538Y-97310475D01*
X104099843Y-96979806D01*
X104100079Y-96709326D01*
X111786859Y-96709326D01*
X111821669Y-97065673D01*
X111891068Y-97233215D01*
X112035783Y-97287440D01*
X112523223Y-96800000D01*
X112876777Y-96800000D01*
X113364217Y-97287440D01*
X113508932Y-97233215D01*
X113586502Y-96978236D01*
X121299844Y-96978236D01*
X121436572Y-97309143D01*
X121689525Y-97562538D01*
X122020194Y-97699843D01*
X122378236Y-97700156D01*
X122709143Y-97563428D01*
X122962538Y-97310475D01*
X123099843Y-96979806D01*
X123100156Y-96621764D01*
X122963428Y-96290857D01*
X122710475Y-96037462D01*
X122379806Y-95900157D01*
X122021764Y-95899844D01*
X121690857Y-96036572D01*
X121437462Y-96289525D01*
X121300157Y-96620194D01*
X121299844Y-96978236D01*
X113586502Y-96978236D01*
X113613141Y-96890674D01*
X113578331Y-96534327D01*
X113508932Y-96366785D01*
X113364217Y-96312560D01*
X112876777Y-96800000D01*
X112523223Y-96800000D01*
X112035783Y-96312560D01*
X111891068Y-96366785D01*
X111786859Y-96709326D01*
X104100079Y-96709326D01*
X104100156Y-96621764D01*
X103963428Y-96290857D01*
X103710475Y-96037462D01*
X103379806Y-95900157D01*
X103021764Y-95899844D01*
X102690857Y-96036572D01*
X102437462Y-96289525D01*
X102300157Y-96620194D01*
X102299844Y-96978236D01*
X100425000Y-96978236D01*
X100425000Y-95168750D01*
X105775000Y-95168750D01*
X105775000Y-96374592D01*
X105832090Y-96512420D01*
X105937579Y-96617910D01*
X106075408Y-96675000D01*
X107531250Y-96675000D01*
X107625000Y-96581250D01*
X107625000Y-95075000D01*
X107875000Y-95075000D01*
X107875000Y-96581250D01*
X107968750Y-96675000D01*
X109424592Y-96675000D01*
X109562421Y-96617910D01*
X109667910Y-96512420D01*
X109725000Y-96374592D01*
X109725000Y-96135783D01*
X112212560Y-96135783D01*
X112700000Y-96623223D01*
X113187440Y-96135783D01*
X113133215Y-95991068D01*
X112790674Y-95886859D01*
X112434327Y-95921669D01*
X112266785Y-95991068D01*
X112212560Y-96135783D01*
X109725000Y-96135783D01*
X109725000Y-95168750D01*
X115325000Y-95168750D01*
X115325000Y-96374592D01*
X115382090Y-96512420D01*
X115487579Y-96617910D01*
X115625408Y-96675000D01*
X117081250Y-96675000D01*
X117175000Y-96581250D01*
X117175000Y-95075000D01*
X117425000Y-95075000D01*
X117425000Y-96581250D01*
X117518750Y-96675000D01*
X118974592Y-96675000D01*
X119112421Y-96617910D01*
X119217910Y-96512420D01*
X119275000Y-96374592D01*
X119275000Y-95168750D01*
X119181250Y-95075000D01*
X117425000Y-95075000D01*
X117175000Y-95075000D01*
X115418750Y-95075000D01*
X115325000Y-95168750D01*
X109725000Y-95168750D01*
X109631250Y-95075000D01*
X107875000Y-95075000D01*
X107625000Y-95075000D01*
X105868750Y-95075000D01*
X105775000Y-95168750D01*
X100425000Y-95168750D01*
X100425000Y-93525408D01*
X105775000Y-93525408D01*
X105775000Y-94731250D01*
X105868750Y-94825000D01*
X107625000Y-94825000D01*
X107625000Y-93318750D01*
X107875000Y-93318750D01*
X107875000Y-94825000D01*
X109631250Y-94825000D01*
X109725000Y-94731250D01*
X109725000Y-93525408D01*
X115325000Y-93525408D01*
X115325000Y-94731250D01*
X115418750Y-94825000D01*
X117175000Y-94825000D01*
X117175000Y-93318750D01*
X117425000Y-93318750D01*
X117425000Y-94825000D01*
X119181250Y-94825000D01*
X119275000Y-94731250D01*
X119275000Y-93525408D01*
X119217910Y-93387580D01*
X119112421Y-93282090D01*
X118974592Y-93225000D01*
X117518750Y-93225000D01*
X117425000Y-93318750D01*
X117175000Y-93318750D01*
X117081250Y-93225000D01*
X115625408Y-93225000D01*
X115487579Y-93282090D01*
X115382090Y-93387580D01*
X115325000Y-93525408D01*
X109725000Y-93525408D01*
X109667910Y-93387580D01*
X109562421Y-93282090D01*
X109424592Y-93225000D01*
X107968750Y-93225000D01*
X107875000Y-93318750D01*
X107625000Y-93318750D01*
X107531250Y-93225000D01*
X106075408Y-93225000D01*
X105937579Y-93282090D01*
X105832090Y-93387580D01*
X105775000Y-93525408D01*
X100425000Y-93525408D01*
X100425000Y-91468750D01*
X110775000Y-91468750D01*
X110775000Y-92674592D01*
X110832090Y-92812420D01*
X110937579Y-92917910D01*
X111075408Y-92975000D01*
X112531250Y-92975000D01*
X112625000Y-92881250D01*
X112625000Y-91375000D01*
X112875000Y-91375000D01*
X112875000Y-92881250D01*
X112968750Y-92975000D01*
X114424592Y-92975000D01*
X114562421Y-92917910D01*
X114667910Y-92812420D01*
X114725000Y-92674592D01*
X114725000Y-91468750D01*
X114631250Y-91375000D01*
X112875000Y-91375000D01*
X112625000Y-91375000D01*
X110868750Y-91375000D01*
X110775000Y-91468750D01*
X100425000Y-91468750D01*
X100425000Y-89418750D01*
X100775000Y-89418750D01*
X100775000Y-90624592D01*
X100832090Y-90762420D01*
X100937579Y-90867910D01*
X101075408Y-90925000D01*
X102531250Y-90925000D01*
X102625000Y-90831250D01*
X102625000Y-89325000D01*
X102875000Y-89325000D01*
X102875000Y-90831250D01*
X102968750Y-90925000D01*
X104424592Y-90925000D01*
X104562421Y-90867910D01*
X104667910Y-90762420D01*
X104725000Y-90624592D01*
X104725000Y-89825408D01*
X110775000Y-89825408D01*
X110775000Y-91031250D01*
X110868750Y-91125000D01*
X112625000Y-91125000D01*
X112625000Y-89618750D01*
X112875000Y-89618750D01*
X112875000Y-91125000D01*
X114631250Y-91125000D01*
X114725000Y-91031250D01*
X114725000Y-89825408D01*
X114667910Y-89687580D01*
X114562421Y-89582090D01*
X114424592Y-89525000D01*
X112968750Y-89525000D01*
X112875000Y-89618750D01*
X112625000Y-89618750D01*
X112531250Y-89525000D01*
X111075408Y-89525000D01*
X110937579Y-89582090D01*
X110832090Y-89687580D01*
X110775000Y-89825408D01*
X104725000Y-89825408D01*
X104725000Y-89468750D01*
X120275000Y-89468750D01*
X120275000Y-90674592D01*
X120332090Y-90812420D01*
X120437579Y-90917910D01*
X120575408Y-90975000D01*
X122031250Y-90975000D01*
X122125000Y-90881250D01*
X122125000Y-89375000D01*
X122375000Y-89375000D01*
X122375000Y-90881250D01*
X122468750Y-90975000D01*
X123924592Y-90975000D01*
X124062421Y-90917910D01*
X124167910Y-90812420D01*
X124225000Y-90674592D01*
X124225000Y-89468750D01*
X124131250Y-89375000D01*
X122375000Y-89375000D01*
X122125000Y-89375000D01*
X120368750Y-89375000D01*
X120275000Y-89468750D01*
X104725000Y-89468750D01*
X104725000Y-89418750D01*
X104631250Y-89325000D01*
X102875000Y-89325000D01*
X102625000Y-89325000D01*
X100868750Y-89325000D01*
X100775000Y-89418750D01*
X100425000Y-89418750D01*
X100425000Y-87775408D01*
X100775000Y-87775408D01*
X100775000Y-88981250D01*
X100868750Y-89075000D01*
X102625000Y-89075000D01*
X102625000Y-87568750D01*
X102875000Y-87568750D01*
X102875000Y-89075000D01*
X104631250Y-89075000D01*
X104725000Y-88981250D01*
X104725000Y-87775408D01*
X104667910Y-87637580D01*
X104562421Y-87532090D01*
X104424592Y-87475000D01*
X102968750Y-87475000D01*
X102875000Y-87568750D01*
X102625000Y-87568750D01*
X102531250Y-87475000D01*
X101075408Y-87475000D01*
X100937579Y-87532090D01*
X100832090Y-87637580D01*
X100775000Y-87775408D01*
X100425000Y-87775408D01*
X100425000Y-85700000D01*
X105767654Y-85700000D01*
X105767654Y-88400000D01*
X105793802Y-88538966D01*
X105875931Y-88666599D01*
X106001246Y-88752223D01*
X106150000Y-88782346D01*
X109350000Y-88782346D01*
X109488966Y-88756198D01*
X109616599Y-88674069D01*
X109702223Y-88548754D01*
X109732346Y-88400000D01*
X109732346Y-85700000D01*
X109706198Y-85561034D01*
X109624069Y-85433401D01*
X109498754Y-85347777D01*
X109350000Y-85317654D01*
X108625000Y-85317654D01*
X108625000Y-83462436D01*
X109458719Y-82628718D01*
X109648395Y-82344848D01*
X109715000Y-82010000D01*
X109715000Y-80017044D01*
X109971752Y-79632786D01*
X110065000Y-79163999D01*
X110065000Y-79116001D01*
X110155000Y-79116001D01*
X110155000Y-79163999D01*
X110248248Y-79632786D01*
X110505000Y-80017044D01*
X110505000Y-80880000D01*
X110568971Y-81201605D01*
X110571605Y-81214848D01*
X110761282Y-81498718D01*
X110947347Y-81684783D01*
X110883401Y-81725931D01*
X110797777Y-81851246D01*
X110767654Y-82000000D01*
X110767654Y-84700000D01*
X110793802Y-84838966D01*
X110875931Y-84966599D01*
X111001246Y-85052223D01*
X111150000Y-85082346D01*
X114350000Y-85082346D01*
X114488966Y-85056198D01*
X114616599Y-84974069D01*
X114702223Y-84848754D01*
X114732346Y-84700000D01*
X114732346Y-82000000D01*
X114706198Y-81861034D01*
X114624069Y-81733401D01*
X114498754Y-81647777D01*
X114350000Y-81617654D01*
X113355091Y-81617654D01*
X112255000Y-80517564D01*
X112255000Y-80017044D01*
X112511752Y-79632786D01*
X112605000Y-79163999D01*
X112605000Y-79116001D01*
X112695000Y-79116001D01*
X112695000Y-79163999D01*
X112788248Y-79632786D01*
X113053794Y-80030205D01*
X113451213Y-80295751D01*
X113920000Y-80388999D01*
X113929644Y-80387081D01*
X116425000Y-82882437D01*
X116425000Y-85317654D01*
X115700000Y-85317654D01*
X115561034Y-85343802D01*
X115433401Y-85425931D01*
X115347777Y-85551246D01*
X115317654Y-85700000D01*
X115317654Y-88400000D01*
X115343802Y-88538966D01*
X115425931Y-88666599D01*
X115551246Y-88752223D01*
X115700000Y-88782346D01*
X118900000Y-88782346D01*
X119038966Y-88756198D01*
X119166599Y-88674069D01*
X119252223Y-88548754D01*
X119282346Y-88400000D01*
X119282346Y-87825408D01*
X120275000Y-87825408D01*
X120275000Y-89031250D01*
X120368750Y-89125000D01*
X122125000Y-89125000D01*
X122125000Y-87618750D01*
X122375000Y-87618750D01*
X122375000Y-89125000D01*
X124131250Y-89125000D01*
X124225000Y-89031250D01*
X124225000Y-87825408D01*
X124167910Y-87687580D01*
X124062421Y-87582090D01*
X123924592Y-87525000D01*
X122468750Y-87525000D01*
X122375000Y-87618750D01*
X122125000Y-87618750D01*
X122031250Y-87525000D01*
X120575408Y-87525000D01*
X120437579Y-87582090D01*
X120332090Y-87687580D01*
X120275000Y-87825408D01*
X119282346Y-87825408D01*
X119282346Y-85700000D01*
X119256198Y-85561034D01*
X119174069Y-85433401D01*
X119048754Y-85347777D01*
X118900000Y-85317654D01*
X118175000Y-85317654D01*
X118175000Y-82520000D01*
X118108395Y-82185152D01*
X118101611Y-82174999D01*
X117918719Y-81901282D01*
X116393135Y-80375699D01*
X116460000Y-80388999D01*
X116469645Y-80387081D01*
X118051282Y-81968718D01*
X118335152Y-82158395D01*
X118670000Y-82225000D01*
X120267654Y-82225000D01*
X120267654Y-82700000D01*
X120293802Y-82838966D01*
X120375931Y-82966599D01*
X120501246Y-83052223D01*
X120650000Y-83082346D01*
X123850000Y-83082346D01*
X123988966Y-83056198D01*
X124116599Y-82974069D01*
X124202223Y-82848754D01*
X124232346Y-82700000D01*
X124232346Y-80000000D01*
X124206198Y-79861034D01*
X124124069Y-79733401D01*
X123998754Y-79647777D01*
X123850000Y-79617654D01*
X120650000Y-79617654D01*
X120511034Y-79643802D01*
X120383401Y-79725931D01*
X120297777Y-79851246D01*
X120267654Y-80000000D01*
X120267654Y-80475000D01*
X119032436Y-80475000D01*
X118933135Y-80375699D01*
X119000000Y-80388999D01*
X119468787Y-80295751D01*
X119866206Y-80030205D01*
X120131752Y-79632786D01*
X120225000Y-79163999D01*
X120225000Y-79116001D01*
X120131752Y-78647214D01*
X119866206Y-78249795D01*
X119468787Y-77984249D01*
X119438558Y-77978236D01*
X121299844Y-77978236D01*
X121436572Y-78309143D01*
X121689525Y-78562538D01*
X122020194Y-78699843D01*
X122378236Y-78700156D01*
X122709143Y-78563428D01*
X122962538Y-78310475D01*
X123099843Y-77979806D01*
X123100156Y-77621764D01*
X122963428Y-77290857D01*
X122710475Y-77037462D01*
X122379806Y-76900157D01*
X122021764Y-76899844D01*
X121690857Y-77036572D01*
X121437462Y-77289525D01*
X121300157Y-77620194D01*
X121299844Y-77978236D01*
X119438558Y-77978236D01*
X119000000Y-77891001D01*
X118531213Y-77984249D01*
X118133794Y-78249795D01*
X117868248Y-78647214D01*
X117775000Y-79116001D01*
X117775000Y-79163999D01*
X117788300Y-79230864D01*
X117685000Y-79127564D01*
X117685000Y-79116001D01*
X117591752Y-78647214D01*
X117326206Y-78249795D01*
X116928787Y-77984249D01*
X116460000Y-77891001D01*
X115991213Y-77984249D01*
X115593794Y-78249795D01*
X115328248Y-78647214D01*
X115235000Y-79116001D01*
X115235000Y-79163999D01*
X115248300Y-79230864D01*
X115145000Y-79127564D01*
X115145000Y-79116001D01*
X115051752Y-78647214D01*
X114786206Y-78249795D01*
X114388787Y-77984249D01*
X113920000Y-77891001D01*
X113451213Y-77984249D01*
X113053794Y-78249795D01*
X112788248Y-78647214D01*
X112695000Y-79116001D01*
X112605000Y-79116001D01*
X112511752Y-78647214D01*
X112246206Y-78249795D01*
X111848787Y-77984249D01*
X111380000Y-77891001D01*
X110911213Y-77984249D01*
X110513794Y-78249795D01*
X110248248Y-78647214D01*
X110155000Y-79116001D01*
X110065000Y-79116001D01*
X109971752Y-78647214D01*
X109706206Y-78249795D01*
X109308787Y-77984249D01*
X108840000Y-77891001D01*
X108371213Y-77984249D01*
X107973794Y-78249795D01*
X107708248Y-78647214D01*
X107615000Y-79116001D01*
X107615000Y-79163999D01*
X107708248Y-79632786D01*
X107965000Y-80017044D01*
X107965000Y-81647563D01*
X107131282Y-82481282D01*
X106941605Y-82765152D01*
X106875000Y-83100000D01*
X106875000Y-85317654D01*
X106150000Y-85317654D01*
X106011034Y-85343802D01*
X105883401Y-85425931D01*
X105797777Y-85551246D01*
X105767654Y-85700000D01*
X100425000Y-85700000D01*
X100425000Y-79950000D01*
X100767654Y-79950000D01*
X100767654Y-82650000D01*
X100793802Y-82788966D01*
X100875931Y-82916599D01*
X101001246Y-83002223D01*
X101150000Y-83032346D01*
X104350000Y-83032346D01*
X104488966Y-83006198D01*
X104616599Y-82924069D01*
X104702223Y-82798754D01*
X104732346Y-82650000D01*
X104732346Y-82175000D01*
X105200000Y-82175000D01*
X105534848Y-82108395D01*
X105818718Y-81918718D01*
X106918718Y-80818718D01*
X107108395Y-80534848D01*
X107175000Y-80200000D01*
X107175000Y-80017044D01*
X107431752Y-79632786D01*
X107525000Y-79163999D01*
X107525000Y-79116001D01*
X107431752Y-78647214D01*
X107166206Y-78249795D01*
X106768787Y-77984249D01*
X106300000Y-77891001D01*
X105831213Y-77984249D01*
X105433794Y-78249795D01*
X105168248Y-78647214D01*
X105075000Y-79116001D01*
X105075000Y-79163999D01*
X105168248Y-79632786D01*
X105353111Y-79909453D01*
X104837564Y-80425000D01*
X104732346Y-80425000D01*
X104732346Y-79950000D01*
X104706198Y-79811034D01*
X104624069Y-79683401D01*
X104498754Y-79597777D01*
X104350000Y-79567654D01*
X101150000Y-79567654D01*
X101011034Y-79593802D01*
X100883401Y-79675931D01*
X100797777Y-79801246D01*
X100767654Y-79950000D01*
X100425000Y-79950000D01*
X100425000Y-77978236D01*
X102299844Y-77978236D01*
X102436572Y-78309143D01*
X102689525Y-78562538D01*
X103020194Y-78699843D01*
X103378236Y-78700156D01*
X103709143Y-78563428D01*
X103962538Y-78310475D01*
X104099843Y-77979806D01*
X104100156Y-77621764D01*
X103963428Y-77290857D01*
X103710475Y-77037462D01*
X103379806Y-76900157D01*
X103021764Y-76899844D01*
X102690857Y-77036572D01*
X102437462Y-77289525D01*
X102300157Y-77620194D01*
X102299844Y-77978236D01*
X100425000Y-77978236D01*
X100425000Y-76641860D01*
X100438100Y-76576001D01*
X105075000Y-76576001D01*
X105075000Y-76623999D01*
X105168248Y-77092786D01*
X105433794Y-77490205D01*
X105831213Y-77755751D01*
X106300000Y-77848999D01*
X106768787Y-77755751D01*
X107166206Y-77490205D01*
X107431752Y-77092786D01*
X107525000Y-76623999D01*
X107525000Y-76576001D01*
X107615000Y-76576001D01*
X107615000Y-76623999D01*
X107708248Y-77092786D01*
X107973794Y-77490205D01*
X108371213Y-77755751D01*
X108840000Y-77848999D01*
X109308787Y-77755751D01*
X109706206Y-77490205D01*
X109971752Y-77092786D01*
X110065000Y-76623999D01*
X110065000Y-76576001D01*
X110155000Y-76576001D01*
X110155000Y-76623999D01*
X110248248Y-77092786D01*
X110513794Y-77490205D01*
X110911213Y-77755751D01*
X111380000Y-77848999D01*
X111848787Y-77755751D01*
X112246206Y-77490205D01*
X112511752Y-77092786D01*
X112605000Y-76623999D01*
X112605000Y-76576001D01*
X112695000Y-76576001D01*
X112695000Y-76623999D01*
X112788248Y-77092786D01*
X113053794Y-77490205D01*
X113451213Y-77755751D01*
X113920000Y-77848999D01*
X114388787Y-77755751D01*
X114786206Y-77490205D01*
X115051752Y-77092786D01*
X115145000Y-76623999D01*
X115145000Y-76576001D01*
X115235000Y-76576001D01*
X115235000Y-76623999D01*
X115328248Y-77092786D01*
X115593794Y-77490205D01*
X115991213Y-77755751D01*
X116460000Y-77848999D01*
X116928787Y-77755751D01*
X117326206Y-77490205D01*
X117591752Y-77092786D01*
X117685000Y-76623999D01*
X117685000Y-76576001D01*
X117591752Y-76107214D01*
X117353071Y-75750000D01*
X117767654Y-75750000D01*
X117767654Y-77450000D01*
X117793802Y-77588966D01*
X117875931Y-77716599D01*
X118001246Y-77802223D01*
X118150000Y-77832346D01*
X119850000Y-77832346D01*
X119988966Y-77806198D01*
X120116599Y-77724069D01*
X120202223Y-77598754D01*
X120232346Y-77450000D01*
X120232346Y-75750000D01*
X120206198Y-75611034D01*
X120124069Y-75483401D01*
X119998754Y-75397777D01*
X119850000Y-75367654D01*
X118150000Y-75367654D01*
X118011034Y-75393802D01*
X117883401Y-75475931D01*
X117797777Y-75601246D01*
X117767654Y-75750000D01*
X117353071Y-75750000D01*
X117326206Y-75709795D01*
X116928787Y-75444249D01*
X116460000Y-75351001D01*
X115991213Y-75444249D01*
X115593794Y-75709795D01*
X115328248Y-76107214D01*
X115235000Y-76576001D01*
X115145000Y-76576001D01*
X115051752Y-76107214D01*
X114786206Y-75709795D01*
X114388787Y-75444249D01*
X113920000Y-75351001D01*
X113451213Y-75444249D01*
X113053794Y-75709795D01*
X112788248Y-76107214D01*
X112695000Y-76576001D01*
X112605000Y-76576001D01*
X112511752Y-76107214D01*
X112246206Y-75709795D01*
X111848787Y-75444249D01*
X111380000Y-75351001D01*
X110911213Y-75444249D01*
X110513794Y-75709795D01*
X110248248Y-76107214D01*
X110155000Y-76576001D01*
X110065000Y-76576001D01*
X109971752Y-76107214D01*
X109706206Y-75709795D01*
X109308787Y-75444249D01*
X108840000Y-75351001D01*
X108371213Y-75444249D01*
X107973794Y-75709795D01*
X107708248Y-76107214D01*
X107615000Y-76576001D01*
X107525000Y-76576001D01*
X107431752Y-76107214D01*
X107166206Y-75709795D01*
X106768787Y-75444249D01*
X106300000Y-75351001D01*
X105831213Y-75444249D01*
X105433794Y-75709795D01*
X105168248Y-76107214D01*
X105075000Y-76576001D01*
X100438100Y-76576001D01*
X100552583Y-76000459D01*
X100892194Y-75492194D01*
X101400460Y-75152582D01*
X102041860Y-75025000D01*
X123358140Y-75025000D01*
X123999541Y-75152583D01*
X123999541Y-75152583D01*
G37*
X123999541Y-75152583D02*
X124507806Y-75492194D01*
X124847418Y-76000460D01*
X124975000Y-76641860D01*
X124975000Y-97958140D01*
X124847418Y-98599540D01*
X124507806Y-99107806D01*
X123999541Y-99447417D01*
X123358140Y-99575000D01*
X100425000Y-99575000D01*
X100425000Y-96978236D01*
X102299844Y-96978236D01*
X102436572Y-97309143D01*
X102689525Y-97562538D01*
X103020194Y-97699843D01*
X103378236Y-97700156D01*
X103709143Y-97563428D01*
X103808527Y-97464217D01*
X112212560Y-97464217D01*
X112266785Y-97608932D01*
X112609326Y-97713141D01*
X112965673Y-97678331D01*
X113133215Y-97608932D01*
X113187440Y-97464217D01*
X112700000Y-96976777D01*
X112212560Y-97464217D01*
X103808527Y-97464217D01*
X103962538Y-97310475D01*
X104099843Y-96979806D01*
X104100079Y-96709326D01*
X111786859Y-96709326D01*
X111821669Y-97065673D01*
X111891068Y-97233215D01*
X112035783Y-97287440D01*
X112523223Y-96800000D01*
X112876777Y-96800000D01*
X113364217Y-97287440D01*
X113508932Y-97233215D01*
X113586502Y-96978236D01*
X121299844Y-96978236D01*
X121436572Y-97309143D01*
X121689525Y-97562538D01*
X122020194Y-97699843D01*
X122378236Y-97700156D01*
X122709143Y-97563428D01*
X122962538Y-97310475D01*
X123099843Y-96979806D01*
X123100156Y-96621764D01*
X122963428Y-96290857D01*
X122710475Y-96037462D01*
X122379806Y-95900157D01*
X122021764Y-95899844D01*
X121690857Y-96036572D01*
X121437462Y-96289525D01*
X121300157Y-96620194D01*
X121299844Y-96978236D01*
X113586502Y-96978236D01*
X113613141Y-96890674D01*
X113578331Y-96534327D01*
X113508932Y-96366785D01*
X113364217Y-96312560D01*
X112876777Y-96800000D01*
X112523223Y-96800000D01*
X112035783Y-96312560D01*
X111891068Y-96366785D01*
X111786859Y-96709326D01*
X104100079Y-96709326D01*
X104100156Y-96621764D01*
X103963428Y-96290857D01*
X103710475Y-96037462D01*
X103379806Y-95900157D01*
X103021764Y-95899844D01*
X102690857Y-96036572D01*
X102437462Y-96289525D01*
X102300157Y-96620194D01*
X102299844Y-96978236D01*
X100425000Y-96978236D01*
X100425000Y-95168750D01*
X105775000Y-95168750D01*
X105775000Y-96374592D01*
X105832090Y-96512420D01*
X105937579Y-96617910D01*
X106075408Y-96675000D01*
X107531250Y-96675000D01*
X107625000Y-96581250D01*
X107625000Y-95075000D01*
X107875000Y-95075000D01*
X107875000Y-96581250D01*
X107968750Y-96675000D01*
X109424592Y-96675000D01*
X109562421Y-96617910D01*
X109667910Y-96512420D01*
X109725000Y-96374592D01*
X109725000Y-96135783D01*
X112212560Y-96135783D01*
X112700000Y-96623223D01*
X113187440Y-96135783D01*
X113133215Y-95991068D01*
X112790674Y-95886859D01*
X112434327Y-95921669D01*
X112266785Y-95991068D01*
X112212560Y-96135783D01*
X109725000Y-96135783D01*
X109725000Y-95168750D01*
X115325000Y-95168750D01*
X115325000Y-96374592D01*
X115382090Y-96512420D01*
X115487579Y-96617910D01*
X115625408Y-96675000D01*
X117081250Y-96675000D01*
X117175000Y-96581250D01*
X117175000Y-95075000D01*
X117425000Y-95075000D01*
X117425000Y-96581250D01*
X117518750Y-96675000D01*
X118974592Y-96675000D01*
X119112421Y-96617910D01*
X119217910Y-96512420D01*
X119275000Y-96374592D01*
X119275000Y-95168750D01*
X119181250Y-95075000D01*
X117425000Y-95075000D01*
X117175000Y-95075000D01*
X115418750Y-95075000D01*
X115325000Y-95168750D01*
X109725000Y-95168750D01*
X109631250Y-95075000D01*
X107875000Y-95075000D01*
X107625000Y-95075000D01*
X105868750Y-95075000D01*
X105775000Y-95168750D01*
X100425000Y-95168750D01*
X100425000Y-93525408D01*
X105775000Y-93525408D01*
X105775000Y-94731250D01*
X105868750Y-94825000D01*
X107625000Y-94825000D01*
X107625000Y-93318750D01*
X107875000Y-93318750D01*
X107875000Y-94825000D01*
X109631250Y-94825000D01*
X109725000Y-94731250D01*
X109725000Y-93525408D01*
X115325000Y-93525408D01*
X115325000Y-94731250D01*
X115418750Y-94825000D01*
X117175000Y-94825000D01*
X117175000Y-93318750D01*
X117425000Y-93318750D01*
X117425000Y-94825000D01*
X119181250Y-94825000D01*
X119275000Y-94731250D01*
X119275000Y-93525408D01*
X119217910Y-93387580D01*
X119112421Y-93282090D01*
X118974592Y-93225000D01*
X117518750Y-93225000D01*
X117425000Y-93318750D01*
X117175000Y-93318750D01*
X117081250Y-93225000D01*
X115625408Y-93225000D01*
X115487579Y-93282090D01*
X115382090Y-93387580D01*
X115325000Y-93525408D01*
X109725000Y-93525408D01*
X109667910Y-93387580D01*
X109562421Y-93282090D01*
X109424592Y-93225000D01*
X107968750Y-93225000D01*
X107875000Y-93318750D01*
X107625000Y-93318750D01*
X107531250Y-93225000D01*
X106075408Y-93225000D01*
X105937579Y-93282090D01*
X105832090Y-93387580D01*
X105775000Y-93525408D01*
X100425000Y-93525408D01*
X100425000Y-91468750D01*
X110775000Y-91468750D01*
X110775000Y-92674592D01*
X110832090Y-92812420D01*
X110937579Y-92917910D01*
X111075408Y-92975000D01*
X112531250Y-92975000D01*
X112625000Y-92881250D01*
X112625000Y-91375000D01*
X112875000Y-91375000D01*
X112875000Y-92881250D01*
X112968750Y-92975000D01*
X114424592Y-92975000D01*
X114562421Y-92917910D01*
X114667910Y-92812420D01*
X114725000Y-92674592D01*
X114725000Y-91468750D01*
X114631250Y-91375000D01*
X112875000Y-91375000D01*
X112625000Y-91375000D01*
X110868750Y-91375000D01*
X110775000Y-91468750D01*
X100425000Y-91468750D01*
X100425000Y-89418750D01*
X100775000Y-89418750D01*
X100775000Y-90624592D01*
X100832090Y-90762420D01*
X100937579Y-90867910D01*
X101075408Y-90925000D01*
X102531250Y-90925000D01*
X102625000Y-90831250D01*
X102625000Y-89325000D01*
X102875000Y-89325000D01*
X102875000Y-90831250D01*
X102968750Y-90925000D01*
X104424592Y-90925000D01*
X104562421Y-90867910D01*
X104667910Y-90762420D01*
X104725000Y-90624592D01*
X104725000Y-89825408D01*
X110775000Y-89825408D01*
X110775000Y-91031250D01*
X110868750Y-91125000D01*
X112625000Y-91125000D01*
X112625000Y-89618750D01*
X112875000Y-89618750D01*
X112875000Y-91125000D01*
X114631250Y-91125000D01*
X114725000Y-91031250D01*
X114725000Y-89825408D01*
X114667910Y-89687580D01*
X114562421Y-89582090D01*
X114424592Y-89525000D01*
X112968750Y-89525000D01*
X112875000Y-89618750D01*
X112625000Y-89618750D01*
X112531250Y-89525000D01*
X111075408Y-89525000D01*
X110937579Y-89582090D01*
X110832090Y-89687580D01*
X110775000Y-89825408D01*
X104725000Y-89825408D01*
X104725000Y-89468750D01*
X120275000Y-89468750D01*
X120275000Y-90674592D01*
X120332090Y-90812420D01*
X120437579Y-90917910D01*
X120575408Y-90975000D01*
X122031250Y-90975000D01*
X122125000Y-90881250D01*
X122125000Y-89375000D01*
X122375000Y-89375000D01*
X122375000Y-90881250D01*
X122468750Y-90975000D01*
X123924592Y-90975000D01*
X124062421Y-90917910D01*
X124167910Y-90812420D01*
X124225000Y-90674592D01*
X124225000Y-89468750D01*
X124131250Y-89375000D01*
X122375000Y-89375000D01*
X122125000Y-89375000D01*
X120368750Y-89375000D01*
X120275000Y-89468750D01*
X104725000Y-89468750D01*
X104725000Y-89418750D01*
X104631250Y-89325000D01*
X102875000Y-89325000D01*
X102625000Y-89325000D01*
X100868750Y-89325000D01*
X100775000Y-89418750D01*
X100425000Y-89418750D01*
X100425000Y-87775408D01*
X100775000Y-87775408D01*
X100775000Y-88981250D01*
X100868750Y-89075000D01*
X102625000Y-89075000D01*
X102625000Y-87568750D01*
X102875000Y-87568750D01*
X102875000Y-89075000D01*
X104631250Y-89075000D01*
X104725000Y-88981250D01*
X104725000Y-87775408D01*
X104667910Y-87637580D01*
X104562421Y-87532090D01*
X104424592Y-87475000D01*
X102968750Y-87475000D01*
X102875000Y-87568750D01*
X102625000Y-87568750D01*
X102531250Y-87475000D01*
X101075408Y-87475000D01*
X100937579Y-87532090D01*
X100832090Y-87637580D01*
X100775000Y-87775408D01*
X100425000Y-87775408D01*
X100425000Y-85700000D01*
X105767654Y-85700000D01*
X105767654Y-88400000D01*
X105793802Y-88538966D01*
X105875931Y-88666599D01*
X106001246Y-88752223D01*
X106150000Y-88782346D01*
X109350000Y-88782346D01*
X109488966Y-88756198D01*
X109616599Y-88674069D01*
X109702223Y-88548754D01*
X109732346Y-88400000D01*
X109732346Y-85700000D01*
X109706198Y-85561034D01*
X109624069Y-85433401D01*
X109498754Y-85347777D01*
X109350000Y-85317654D01*
X108625000Y-85317654D01*
X108625000Y-83462436D01*
X109458719Y-82628718D01*
X109648395Y-82344848D01*
X109715000Y-82010000D01*
X109715000Y-80017044D01*
X109971752Y-79632786D01*
X110065000Y-79163999D01*
X110065000Y-79116001D01*
X110155000Y-79116001D01*
X110155000Y-79163999D01*
X110248248Y-79632786D01*
X110505000Y-80017044D01*
X110505000Y-80880000D01*
X110568971Y-81201605D01*
X110571605Y-81214848D01*
X110761282Y-81498718D01*
X110947347Y-81684783D01*
X110883401Y-81725931D01*
X110797777Y-81851246D01*
X110767654Y-82000000D01*
X110767654Y-84700000D01*
X110793802Y-84838966D01*
X110875931Y-84966599D01*
X111001246Y-85052223D01*
X111150000Y-85082346D01*
X114350000Y-85082346D01*
X114488966Y-85056198D01*
X114616599Y-84974069D01*
X114702223Y-84848754D01*
X114732346Y-84700000D01*
X114732346Y-82000000D01*
X114706198Y-81861034D01*
X114624069Y-81733401D01*
X114498754Y-81647777D01*
X114350000Y-81617654D01*
X113355091Y-81617654D01*
X112255000Y-80517564D01*
X112255000Y-80017044D01*
X112511752Y-79632786D01*
X112605000Y-79163999D01*
X112605000Y-79116001D01*
X112695000Y-79116001D01*
X112695000Y-79163999D01*
X112788248Y-79632786D01*
X113053794Y-80030205D01*
X113451213Y-80295751D01*
X113920000Y-80388999D01*
X113929644Y-80387081D01*
X116425000Y-82882437D01*
X116425000Y-85317654D01*
X115700000Y-85317654D01*
X115561034Y-85343802D01*
X115433401Y-85425931D01*
X115347777Y-85551246D01*
X115317654Y-85700000D01*
X115317654Y-88400000D01*
X115343802Y-88538966D01*
X115425931Y-88666599D01*
X115551246Y-88752223D01*
X115700000Y-88782346D01*
X118900000Y-88782346D01*
X119038966Y-88756198D01*
X119166599Y-88674069D01*
X119252223Y-88548754D01*
X119282346Y-88400000D01*
X119282346Y-87825408D01*
X120275000Y-87825408D01*
X120275000Y-89031250D01*
X120368750Y-89125000D01*
X122125000Y-89125000D01*
X122125000Y-87618750D01*
X122375000Y-87618750D01*
X122375000Y-89125000D01*
X124131250Y-89125000D01*
X124225000Y-89031250D01*
X124225000Y-87825408D01*
X124167910Y-87687580D01*
X124062421Y-87582090D01*
X123924592Y-87525000D01*
X122468750Y-87525000D01*
X122375000Y-87618750D01*
X122125000Y-87618750D01*
X122031250Y-87525000D01*
X120575408Y-87525000D01*
X120437579Y-87582090D01*
X120332090Y-87687580D01*
X120275000Y-87825408D01*
X119282346Y-87825408D01*
X119282346Y-85700000D01*
X119256198Y-85561034D01*
X119174069Y-85433401D01*
X119048754Y-85347777D01*
X118900000Y-85317654D01*
X118175000Y-85317654D01*
X118175000Y-82520000D01*
X118108395Y-82185152D01*
X118101611Y-82174999D01*
X117918719Y-81901282D01*
X116393135Y-80375699D01*
X116460000Y-80388999D01*
X116469645Y-80387081D01*
X118051282Y-81968718D01*
X118335152Y-82158395D01*
X118670000Y-82225000D01*
X120267654Y-82225000D01*
X120267654Y-82700000D01*
X120293802Y-82838966D01*
X120375931Y-82966599D01*
X120501246Y-83052223D01*
X120650000Y-83082346D01*
X123850000Y-83082346D01*
X123988966Y-83056198D01*
X124116599Y-82974069D01*
X124202223Y-82848754D01*
X124232346Y-82700000D01*
X124232346Y-80000000D01*
X124206198Y-79861034D01*
X124124069Y-79733401D01*
X123998754Y-79647777D01*
X123850000Y-79617654D01*
X120650000Y-79617654D01*
X120511034Y-79643802D01*
X120383401Y-79725931D01*
X120297777Y-79851246D01*
X120267654Y-80000000D01*
X120267654Y-80475000D01*
X119032436Y-80475000D01*
X118933135Y-80375699D01*
X119000000Y-80388999D01*
X119468787Y-80295751D01*
X119866206Y-80030205D01*
X120131752Y-79632786D01*
X120225000Y-79163999D01*
X120225000Y-79116001D01*
X120131752Y-78647214D01*
X119866206Y-78249795D01*
X119468787Y-77984249D01*
X119438558Y-77978236D01*
X121299844Y-77978236D01*
X121436572Y-78309143D01*
X121689525Y-78562538D01*
X122020194Y-78699843D01*
X122378236Y-78700156D01*
X122709143Y-78563428D01*
X122962538Y-78310475D01*
X123099843Y-77979806D01*
X123100156Y-77621764D01*
X122963428Y-77290857D01*
X122710475Y-77037462D01*
X122379806Y-76900157D01*
X122021764Y-76899844D01*
X121690857Y-77036572D01*
X121437462Y-77289525D01*
X121300157Y-77620194D01*
X121299844Y-77978236D01*
X119438558Y-77978236D01*
X119000000Y-77891001D01*
X118531213Y-77984249D01*
X118133794Y-78249795D01*
X117868248Y-78647214D01*
X117775000Y-79116001D01*
X117775000Y-79163999D01*
X117788300Y-79230864D01*
X117685000Y-79127564D01*
X117685000Y-79116001D01*
X117591752Y-78647214D01*
X117326206Y-78249795D01*
X116928787Y-77984249D01*
X116460000Y-77891001D01*
X115991213Y-77984249D01*
X115593794Y-78249795D01*
X115328248Y-78647214D01*
X115235000Y-79116001D01*
X115235000Y-79163999D01*
X115248300Y-79230864D01*
X115145000Y-79127564D01*
X115145000Y-79116001D01*
X115051752Y-78647214D01*
X114786206Y-78249795D01*
X114388787Y-77984249D01*
X113920000Y-77891001D01*
X113451213Y-77984249D01*
X113053794Y-78249795D01*
X112788248Y-78647214D01*
X112695000Y-79116001D01*
X112605000Y-79116001D01*
X112511752Y-78647214D01*
X112246206Y-78249795D01*
X111848787Y-77984249D01*
X111380000Y-77891001D01*
X110911213Y-77984249D01*
X110513794Y-78249795D01*
X110248248Y-78647214D01*
X110155000Y-79116001D01*
X110065000Y-79116001D01*
X109971752Y-78647214D01*
X109706206Y-78249795D01*
X109308787Y-77984249D01*
X108840000Y-77891001D01*
X108371213Y-77984249D01*
X107973794Y-78249795D01*
X107708248Y-78647214D01*
X107615000Y-79116001D01*
X107615000Y-79163999D01*
X107708248Y-79632786D01*
X107965000Y-80017044D01*
X107965000Y-81647563D01*
X107131282Y-82481282D01*
X106941605Y-82765152D01*
X106875000Y-83100000D01*
X106875000Y-85317654D01*
X106150000Y-85317654D01*
X106011034Y-85343802D01*
X105883401Y-85425931D01*
X105797777Y-85551246D01*
X105767654Y-85700000D01*
X100425000Y-85700000D01*
X100425000Y-79950000D01*
X100767654Y-79950000D01*
X100767654Y-82650000D01*
X100793802Y-82788966D01*
X100875931Y-82916599D01*
X101001246Y-83002223D01*
X101150000Y-83032346D01*
X104350000Y-83032346D01*
X104488966Y-83006198D01*
X104616599Y-82924069D01*
X104702223Y-82798754D01*
X104732346Y-82650000D01*
X104732346Y-82175000D01*
X105200000Y-82175000D01*
X105534848Y-82108395D01*
X105818718Y-81918718D01*
X106918718Y-80818718D01*
X107108395Y-80534848D01*
X107175000Y-80200000D01*
X107175000Y-80017044D01*
X107431752Y-79632786D01*
X107525000Y-79163999D01*
X107525000Y-79116001D01*
X107431752Y-78647214D01*
X107166206Y-78249795D01*
X106768787Y-77984249D01*
X106300000Y-77891001D01*
X105831213Y-77984249D01*
X105433794Y-78249795D01*
X105168248Y-78647214D01*
X105075000Y-79116001D01*
X105075000Y-79163999D01*
X105168248Y-79632786D01*
X105353111Y-79909453D01*
X104837564Y-80425000D01*
X104732346Y-80425000D01*
X104732346Y-79950000D01*
X104706198Y-79811034D01*
X104624069Y-79683401D01*
X104498754Y-79597777D01*
X104350000Y-79567654D01*
X101150000Y-79567654D01*
X101011034Y-79593802D01*
X100883401Y-79675931D01*
X100797777Y-79801246D01*
X100767654Y-79950000D01*
X100425000Y-79950000D01*
X100425000Y-77978236D01*
X102299844Y-77978236D01*
X102436572Y-78309143D01*
X102689525Y-78562538D01*
X103020194Y-78699843D01*
X103378236Y-78700156D01*
X103709143Y-78563428D01*
X103962538Y-78310475D01*
X104099843Y-77979806D01*
X104100156Y-77621764D01*
X103963428Y-77290857D01*
X103710475Y-77037462D01*
X103379806Y-76900157D01*
X103021764Y-76899844D01*
X102690857Y-77036572D01*
X102437462Y-77289525D01*
X102300157Y-77620194D01*
X102299844Y-77978236D01*
X100425000Y-77978236D01*
X100425000Y-76641860D01*
X100438100Y-76576001D01*
X105075000Y-76576001D01*
X105075000Y-76623999D01*
X105168248Y-77092786D01*
X105433794Y-77490205D01*
X105831213Y-77755751D01*
X106300000Y-77848999D01*
X106768787Y-77755751D01*
X107166206Y-77490205D01*
X107431752Y-77092786D01*
X107525000Y-76623999D01*
X107525000Y-76576001D01*
X107615000Y-76576001D01*
X107615000Y-76623999D01*
X107708248Y-77092786D01*
X107973794Y-77490205D01*
X108371213Y-77755751D01*
X108840000Y-77848999D01*
X109308787Y-77755751D01*
X109706206Y-77490205D01*
X109971752Y-77092786D01*
X110065000Y-76623999D01*
X110065000Y-76576001D01*
X110155000Y-76576001D01*
X110155000Y-76623999D01*
X110248248Y-77092786D01*
X110513794Y-77490205D01*
X110911213Y-77755751D01*
X111380000Y-77848999D01*
X111848787Y-77755751D01*
X112246206Y-77490205D01*
X112511752Y-77092786D01*
X112605000Y-76623999D01*
X112605000Y-76576001D01*
X112695000Y-76576001D01*
X112695000Y-76623999D01*
X112788248Y-77092786D01*
X113053794Y-77490205D01*
X113451213Y-77755751D01*
X113920000Y-77848999D01*
X114388787Y-77755751D01*
X114786206Y-77490205D01*
X115051752Y-77092786D01*
X115145000Y-76623999D01*
X115145000Y-76576001D01*
X115235000Y-76576001D01*
X115235000Y-76623999D01*
X115328248Y-77092786D01*
X115593794Y-77490205D01*
X115991213Y-77755751D01*
X116460000Y-77848999D01*
X116928787Y-77755751D01*
X117326206Y-77490205D01*
X117591752Y-77092786D01*
X117685000Y-76623999D01*
X117685000Y-76576001D01*
X117591752Y-76107214D01*
X117353071Y-75750000D01*
X117767654Y-75750000D01*
X117767654Y-77450000D01*
X117793802Y-77588966D01*
X117875931Y-77716599D01*
X118001246Y-77802223D01*
X118150000Y-77832346D01*
X119850000Y-77832346D01*
X119988966Y-77806198D01*
X120116599Y-77724069D01*
X120202223Y-77598754D01*
X120232346Y-77450000D01*
X120232346Y-75750000D01*
X120206198Y-75611034D01*
X120124069Y-75483401D01*
X119998754Y-75397777D01*
X119850000Y-75367654D01*
X118150000Y-75367654D01*
X118011034Y-75393802D01*
X117883401Y-75475931D01*
X117797777Y-75601246D01*
X117767654Y-75750000D01*
X117353071Y-75750000D01*
X117326206Y-75709795D01*
X116928787Y-75444249D01*
X116460000Y-75351001D01*
X115991213Y-75444249D01*
X115593794Y-75709795D01*
X115328248Y-76107214D01*
X115235000Y-76576001D01*
X115145000Y-76576001D01*
X115051752Y-76107214D01*
X114786206Y-75709795D01*
X114388787Y-75444249D01*
X113920000Y-75351001D01*
X113451213Y-75444249D01*
X113053794Y-75709795D01*
X112788248Y-76107214D01*
X112695000Y-76576001D01*
X112605000Y-76576001D01*
X112511752Y-76107214D01*
X112246206Y-75709795D01*
X111848787Y-75444249D01*
X111380000Y-75351001D01*
X110911213Y-75444249D01*
X110513794Y-75709795D01*
X110248248Y-76107214D01*
X110155000Y-76576001D01*
X110065000Y-76576001D01*
X109971752Y-76107214D01*
X109706206Y-75709795D01*
X109308787Y-75444249D01*
X108840000Y-75351001D01*
X108371213Y-75444249D01*
X107973794Y-75709795D01*
X107708248Y-76107214D01*
X107615000Y-76576001D01*
X107525000Y-76576001D01*
X107431752Y-76107214D01*
X107166206Y-75709795D01*
X106768787Y-75444249D01*
X106300000Y-75351001D01*
X105831213Y-75444249D01*
X105433794Y-75709795D01*
X105168248Y-76107214D01*
X105075000Y-76576001D01*
X100438100Y-76576001D01*
X100552583Y-76000459D01*
X100892194Y-75492194D01*
X101400460Y-75152582D01*
X102041860Y-75025000D01*
X123358140Y-75025000D01*
X123999541Y-75152583D01*
M02*
