G04 #@! TF.FileFunction,Legend,Top*
%FSLAX46Y46*%
G04 Gerber Fmt 4.6, Leading zero omitted, Abs format (unit mm)*
G04 Created by KiCad (PCBNEW 4.0.6) date Sat Aug 26 16:54:21 2017*
%MOMM*%
%LPD*%
G01*
G04 APERTURE LIST*
%ADD10C,0.100000*%
%ADD11C,0.200000*%
%ADD12C,0.150000*%
%ADD13C,0.125000*%
%ADD14C,0.120000*%
%ADD15R,0.900000X1.200000*%
%ADD16R,1.200000X0.900000*%
%ADD17C,1.050000*%
%ADD18R,1.350000X1.270000*%
%ADD19R,1.400000X1.400000*%
%ADD20R,1.970000X2.350000*%
%ADD21C,1.500000*%
%ADD22R,1.600000X1.000000*%
%ADD23R,0.800000X0.750000*%
%ADD24R,0.750000X0.800000*%
%ADD25R,1.700000X1.700000*%
%ADD26O,1.700000X1.700000*%
G04 APERTURE END LIST*
D10*
D11*
X123702381Y-85976191D02*
X123702381Y-85785714D01*
X123750000Y-85690476D01*
X123845238Y-85595238D01*
X124035714Y-85547619D01*
X124369048Y-85547619D01*
X124559524Y-85595238D01*
X124654762Y-85690476D01*
X124702381Y-85785714D01*
X124702381Y-85976191D01*
X124654762Y-86071429D01*
X124559524Y-86166667D01*
X124369048Y-86214286D01*
X124035714Y-86214286D01*
X123845238Y-86166667D01*
X123750000Y-86071429D01*
X123702381Y-85976191D01*
X124702381Y-85119048D02*
X123702381Y-85119048D01*
X124178571Y-85119048D02*
X124178571Y-84547619D01*
X124702381Y-84547619D02*
X123702381Y-84547619D01*
X124702381Y-83595238D02*
X124702381Y-84071429D01*
X123702381Y-84071429D01*
X124035714Y-82595238D02*
X124702381Y-82357143D01*
X124035714Y-82119047D01*
X124702381Y-81214285D02*
X124702381Y-81785714D01*
X124702381Y-81500000D02*
X123702381Y-81500000D01*
X123845238Y-81595238D01*
X123940476Y-81690476D01*
X123988095Y-81785714D01*
X124607143Y-80785714D02*
X124654762Y-80738095D01*
X124702381Y-80785714D01*
X124654762Y-80833333D01*
X124607143Y-80785714D01*
X124702381Y-80785714D01*
X123797619Y-80357143D02*
X123750000Y-80309524D01*
X123702381Y-80214286D01*
X123702381Y-79976190D01*
X123750000Y-79880952D01*
X123797619Y-79833333D01*
X123892857Y-79785714D01*
X123988095Y-79785714D01*
X124130952Y-79833333D01*
X124702381Y-80404762D01*
X124702381Y-79785714D01*
D12*
X121192857Y-75552381D02*
X121526190Y-76552381D01*
X121859524Y-75552381D01*
X122192857Y-76552381D02*
X122192857Y-75885714D01*
X122192857Y-76076190D02*
X122240476Y-75980952D01*
X122288095Y-75933333D01*
X122383333Y-75885714D01*
X122478572Y-75885714D01*
X123192858Y-76504762D02*
X123097620Y-76552381D01*
X122907143Y-76552381D01*
X122811905Y-76504762D01*
X122764286Y-76409524D01*
X122764286Y-76028571D01*
X122811905Y-75933333D01*
X122907143Y-75885714D01*
X123097620Y-75885714D01*
X123192858Y-75933333D01*
X123240477Y-76028571D01*
X123240477Y-76123810D01*
X122764286Y-76219048D01*
X123526191Y-75885714D02*
X123907143Y-75885714D01*
X123669048Y-76552381D02*
X123669048Y-75695238D01*
X123716667Y-75600000D01*
X123811905Y-75552381D01*
X123907143Y-75552381D01*
X101123810Y-75702381D02*
X101742858Y-75702381D01*
X101409524Y-76083333D01*
X101552382Y-76083333D01*
X101647620Y-76130952D01*
X101695239Y-76178571D01*
X101742858Y-76273810D01*
X101742858Y-76511905D01*
X101695239Y-76607143D01*
X101647620Y-76654762D01*
X101552382Y-76702381D01*
X101266667Y-76702381D01*
X101171429Y-76654762D01*
X101123810Y-76607143D01*
X102171429Y-76607143D02*
X102219048Y-76654762D01*
X102171429Y-76702381D01*
X102123810Y-76654762D01*
X102171429Y-76607143D01*
X102171429Y-76702381D01*
X102552381Y-75702381D02*
X103171429Y-75702381D01*
X102838095Y-76083333D01*
X102980953Y-76083333D01*
X103076191Y-76130952D01*
X103123810Y-76178571D01*
X103171429Y-76273810D01*
X103171429Y-76511905D01*
X103123810Y-76607143D01*
X103076191Y-76654762D01*
X102980953Y-76702381D01*
X102695238Y-76702381D01*
X102600000Y-76654762D01*
X102552381Y-76607143D01*
X103457143Y-75702381D02*
X103790476Y-76702381D01*
X104123810Y-75702381D01*
X122138095Y-98402381D02*
X122471428Y-99402381D01*
X122804762Y-98402381D01*
X123566667Y-99354762D02*
X123471429Y-99402381D01*
X123280952Y-99402381D01*
X123185714Y-99354762D01*
X123138095Y-99307143D01*
X123090476Y-99211905D01*
X123090476Y-98926190D01*
X123138095Y-98830952D01*
X123185714Y-98783333D01*
X123280952Y-98735714D01*
X123471429Y-98735714D01*
X123566667Y-98783333D01*
X110807143Y-98150000D02*
X110711905Y-98102381D01*
X110569048Y-98102381D01*
X110426190Y-98150000D01*
X110330952Y-98245238D01*
X110283333Y-98340476D01*
X110235714Y-98530952D01*
X110235714Y-98673810D01*
X110283333Y-98864286D01*
X110330952Y-98959524D01*
X110426190Y-99054762D01*
X110569048Y-99102381D01*
X110664286Y-99102381D01*
X110807143Y-99054762D01*
X110854762Y-99007143D01*
X110854762Y-98673810D01*
X110664286Y-98673810D01*
X111283333Y-98435714D02*
X111283333Y-99102381D01*
X111283333Y-98530952D02*
X111330952Y-98483333D01*
X111426190Y-98435714D01*
X111569048Y-98435714D01*
X111664286Y-98483333D01*
X111711905Y-98578571D01*
X111711905Y-99102381D01*
X112616667Y-99102381D02*
X112616667Y-98102381D01*
X112616667Y-99054762D02*
X112521429Y-99102381D01*
X112330952Y-99102381D01*
X112235714Y-99054762D01*
X112188095Y-99007143D01*
X112140476Y-98911905D01*
X112140476Y-98626190D01*
X112188095Y-98530952D01*
X112235714Y-98483333D01*
X112330952Y-98435714D01*
X112521429Y-98435714D01*
X112616667Y-98483333D01*
X103852381Y-98578571D02*
X103519047Y-98578571D01*
X103519047Y-99102381D02*
X103519047Y-98102381D01*
X103995238Y-98102381D01*
X104519047Y-99102381D02*
X104423809Y-99054762D01*
X104376190Y-99007143D01*
X104328571Y-98911905D01*
X104328571Y-98626190D01*
X104376190Y-98530952D01*
X104423809Y-98483333D01*
X104519047Y-98435714D01*
X104661905Y-98435714D01*
X104757143Y-98483333D01*
X104804762Y-98530952D01*
X104852381Y-98626190D01*
X104852381Y-98911905D01*
X104804762Y-99007143D01*
X104757143Y-99054762D01*
X104661905Y-99102381D01*
X104519047Y-99102381D01*
X105709524Y-98435714D02*
X105709524Y-99102381D01*
X105280952Y-98435714D02*
X105280952Y-98959524D01*
X105328571Y-99054762D01*
X105423809Y-99102381D01*
X105566667Y-99102381D01*
X105661905Y-99054762D01*
X105709524Y-99007143D01*
X106042857Y-98435714D02*
X106423809Y-98435714D01*
X106185714Y-98102381D02*
X106185714Y-98959524D01*
X106233333Y-99054762D01*
X106328571Y-99102381D01*
X106423809Y-99102381D01*
D11*
X101500000Y-99000000D02*
G75*
G03X101500000Y-99000000I-500000J0D01*
G01*
D12*
X123625000Y-96200000D02*
X123625000Y-95200000D01*
X124975000Y-95200000D02*
X124975000Y-96200000D01*
X119850000Y-97475000D02*
X118850000Y-97475000D01*
X118850000Y-96125000D02*
X119850000Y-96125000D01*
X118850000Y-98075000D02*
X119850000Y-98075000D01*
X119850000Y-99425000D02*
X118850000Y-99425000D01*
D13*
X103900000Y-96800000D02*
G75*
G03X103900000Y-96800000I-700000J0D01*
G01*
X113400000Y-96800000D02*
G75*
G03X113400000Y-96800000I-700000J0D01*
G01*
X122900000Y-96800000D02*
G75*
G03X122900000Y-96800000I-700000J0D01*
G01*
X122900000Y-77800000D02*
G75*
G03X122900000Y-77800000I-700000J0D01*
G01*
X103900000Y-77800000D02*
G75*
G03X103900000Y-77800000I-700000J0D01*
G01*
D12*
X108254138Y-88150000D02*
G75*
G03X108254138Y-88150000I-304138J0D01*
G01*
X107045000Y-92480000D02*
X107045000Y-87720000D01*
X107045000Y-87720000D02*
X100855000Y-87720000D01*
X100855000Y-87720000D02*
X100855000Y-92480000D01*
X100855000Y-92480000D02*
X107045000Y-92480000D01*
X117930789Y-81150000D02*
G75*
G03X117930789Y-81150000I-380789J0D01*
G01*
X116690000Y-87400000D02*
X116690000Y-81000000D01*
X116690000Y-81000000D02*
X109210000Y-81000000D01*
X109210000Y-81000000D02*
X109210000Y-87400000D01*
X109210000Y-87400000D02*
X116690000Y-87400000D01*
X122230789Y-81150000D02*
G75*
G03X122230789Y-81150000I-380789J0D01*
G01*
X121150000Y-95750000D02*
X121150000Y-80750000D01*
X121150000Y-80750000D02*
X100150000Y-80750000D01*
X100150000Y-80750000D02*
X100150000Y-95750000D01*
X100150000Y-95750000D02*
X121150000Y-95750000D01*
X118130789Y-88200000D02*
G75*
G03X118130789Y-88200000I-380789J0D01*
G01*
X117050000Y-95750000D02*
X117050000Y-87750000D01*
X117050000Y-87750000D02*
X107050000Y-87750000D01*
X107050000Y-87750000D02*
X107050000Y-95750000D01*
X107050000Y-95750000D02*
X117050000Y-95750000D01*
X122475000Y-88600000D02*
X122475000Y-90600000D01*
X124525000Y-90600000D02*
X124525000Y-88600000D01*
X115800000Y-97400000D02*
X115100000Y-97400000D01*
X115100000Y-96200000D02*
X115800000Y-96200000D01*
X106250000Y-92950000D02*
X106950000Y-92950000D01*
X106950000Y-94150000D02*
X106250000Y-94150000D01*
X117350000Y-85800000D02*
X117350000Y-85100000D01*
X118550000Y-85100000D02*
X118550000Y-85800000D01*
D14*
X104970000Y-75270000D02*
X104970000Y-80470000D01*
X117730000Y-75270000D02*
X104970000Y-75270000D01*
X120330000Y-80470000D02*
X104970000Y-80470000D01*
X117730000Y-75270000D02*
X117730000Y-77870000D01*
X117730000Y-77870000D02*
X120330000Y-77870000D01*
X120330000Y-77870000D02*
X120330000Y-80470000D01*
X119000000Y-75270000D02*
X120330000Y-75270000D01*
X120330000Y-75270000D02*
X120330000Y-76600000D01*
D12*
X105428572Y-86871429D02*
X105428572Y-87442857D01*
X105028572Y-86242857D02*
X105428572Y-86871429D01*
X105828572Y-86242857D01*
X106742857Y-86642857D02*
X106742857Y-87442857D01*
X106457143Y-86185714D02*
X106171428Y-87042857D01*
X106914286Y-87042857D01*
X107378572Y-81971429D02*
X107378572Y-82542857D01*
X106978572Y-81342857D02*
X107378572Y-81971429D01*
X107778572Y-81342857D01*
X108064286Y-81342857D02*
X108807143Y-81342857D01*
X108407143Y-81800000D01*
X108578571Y-81800000D01*
X108692857Y-81857143D01*
X108750000Y-81914286D01*
X108807143Y-82028571D01*
X108807143Y-82314286D01*
X108750000Y-82428571D01*
X108692857Y-82485714D01*
X108578571Y-82542857D01*
X108235714Y-82542857D01*
X108121428Y-82485714D01*
X108064286Y-82428571D01*
X121178572Y-79721429D02*
X121178572Y-80292857D01*
X120778572Y-79092857D02*
X121178572Y-79721429D01*
X121578572Y-79092857D01*
X122607143Y-80292857D02*
X121921428Y-80292857D01*
X122264286Y-80292857D02*
X122264286Y-79092857D01*
X122150000Y-79264286D01*
X122035714Y-79378571D01*
X121921428Y-79435714D01*
X117778572Y-89721429D02*
X117778572Y-90292857D01*
X117378572Y-89092857D02*
X117778572Y-89721429D01*
X118178572Y-89092857D01*
X118521428Y-89207143D02*
X118578571Y-89150000D01*
X118692857Y-89092857D01*
X118978571Y-89092857D01*
X119092857Y-89150000D01*
X119150000Y-89207143D01*
X119207143Y-89321429D01*
X119207143Y-89435714D01*
X119150000Y-89607143D01*
X118464286Y-90292857D01*
X119207143Y-90292857D01*
X120416667Y-77202381D02*
X120416667Y-77916667D01*
X120369047Y-78059524D01*
X120273809Y-78154762D01*
X120130952Y-78202381D01*
X120035714Y-78202381D01*
X121416667Y-78202381D02*
X120845238Y-78202381D01*
X121130952Y-78202381D02*
X121130952Y-77202381D01*
X121035714Y-77345238D01*
X120940476Y-77440476D01*
X120845238Y-77488095D01*
%LPC*%
D15*
X124300000Y-94600000D03*
X124300000Y-96800000D03*
D16*
X118250000Y-96800000D03*
X120450000Y-96800000D03*
X120450000Y-98750000D03*
X118250000Y-98750000D03*
D17*
X103200000Y-96800000D03*
X112700000Y-96800000D03*
X122200000Y-96800000D03*
X122200000Y-77800000D03*
X103200000Y-77800000D03*
D18*
X105870000Y-91345000D03*
X105870000Y-88855000D03*
X102030000Y-91345000D03*
X102030000Y-88855000D03*
D19*
X115490000Y-86200000D03*
X115490000Y-82200000D03*
X110410000Y-86200000D03*
X110410000Y-82200000D03*
D20*
X118270000Y-94310000D03*
X118270000Y-82190000D03*
X103030000Y-94310000D03*
X103030000Y-82190000D03*
D21*
X115050000Y-93750000D03*
X115050000Y-89750000D03*
X109050000Y-93750000D03*
X109050000Y-89750000D03*
D22*
X123500000Y-91100000D03*
X123500000Y-88100000D03*
D23*
X116200000Y-96800000D03*
X114700000Y-96800000D03*
X105850000Y-93550000D03*
X107350000Y-93550000D03*
D24*
X117950000Y-86200000D03*
X117950000Y-84700000D03*
D25*
X119000000Y-76600000D03*
D26*
X119000000Y-79140000D03*
X116460000Y-76600000D03*
X116460000Y-79140000D03*
X113920000Y-76600000D03*
X113920000Y-79140000D03*
X111380000Y-76600000D03*
X111380000Y-79140000D03*
X108840000Y-76600000D03*
X108840000Y-79140000D03*
X106300000Y-76600000D03*
X106300000Y-79140000D03*
M02*
