G04 #@! TF.FileFunction,Soldermask,Top*
%FSLAX46Y46*%
G04 Gerber Fmt 4.6, Leading zero omitted, Abs format (unit mm)*
G04 Created by KiCad (PCBNEW 4.0.6) date Sat Aug 26 16:54:21 2017*
%MOMM*%
%LPD*%
G01*
G04 APERTURE LIST*
%ADD10C,0.100000*%
%ADD11R,0.900000X1.200000*%
%ADD12R,1.200000X0.900000*%
%ADD13C,1.050000*%
%ADD14R,1.350000X1.270000*%
%ADD15R,1.400000X1.400000*%
%ADD16R,1.970000X2.350000*%
%ADD17C,1.500000*%
%ADD18R,1.600000X1.000000*%
%ADD19R,0.800000X0.750000*%
%ADD20R,0.750000X0.800000*%
%ADD21R,1.700000X1.700000*%
%ADD22O,1.700000X1.700000*%
G04 APERTURE END LIST*
D10*
D11*
X124300000Y-94600000D03*
X124300000Y-96800000D03*
D12*
X118250000Y-96800000D03*
X120450000Y-96800000D03*
X120450000Y-98750000D03*
X118250000Y-98750000D03*
D13*
X103200000Y-96800000D03*
X112700000Y-96800000D03*
X122200000Y-96800000D03*
X122200000Y-77800000D03*
X103200000Y-77800000D03*
D14*
X105870000Y-91345000D03*
X105870000Y-88855000D03*
X102030000Y-91345000D03*
X102030000Y-88855000D03*
D15*
X115490000Y-86200000D03*
X115490000Y-82200000D03*
X110410000Y-86200000D03*
X110410000Y-82200000D03*
D16*
X118270000Y-94310000D03*
X118270000Y-82190000D03*
X103030000Y-94310000D03*
X103030000Y-82190000D03*
D17*
X115050000Y-93750000D03*
X115050000Y-89750000D03*
X109050000Y-93750000D03*
X109050000Y-89750000D03*
D18*
X123500000Y-91100000D03*
X123500000Y-88100000D03*
D19*
X116200000Y-96800000D03*
X114700000Y-96800000D03*
X105850000Y-93550000D03*
X107350000Y-93550000D03*
D20*
X117950000Y-86200000D03*
X117950000Y-84700000D03*
D21*
X119000000Y-76600000D03*
D22*
X119000000Y-79140000D03*
X116460000Y-76600000D03*
X116460000Y-79140000D03*
X113920000Y-76600000D03*
X113920000Y-79140000D03*
X111380000Y-76600000D03*
X111380000Y-79140000D03*
X108840000Y-76600000D03*
X108840000Y-79140000D03*
X106300000Y-76600000D03*
X106300000Y-79140000D03*
M02*
