G04 #@! TF.FileFunction,Copper,L1,Top,Signal*
%FSLAX46Y46*%
G04 Gerber Fmt 4.6, Leading zero omitted, Abs format (unit mm)*
G04 Created by KiCad (PCBNEW 4.0.6) date Sat Aug 26 16:54:20 2017*
%MOMM*%
%LPD*%
G01*
G04 APERTURE LIST*
%ADD10C,0.100000*%
%ADD11R,0.900000X1.200000*%
%ADD12R,1.200000X0.900000*%
%ADD13C,1.050000*%
%ADD14R,1.350000X1.270000*%
%ADD15R,1.400000X1.400000*%
%ADD16R,1.970000X2.350000*%
%ADD17C,1.500000*%
%ADD18R,1.600000X1.000000*%
%ADD19R,0.800000X0.750000*%
%ADD20R,0.750000X0.800000*%
%ADD21R,1.700000X1.700000*%
%ADD22O,1.700000X1.700000*%
%ADD23C,0.600000*%
%ADD24C,1.000000*%
%ADD25C,0.250000*%
%ADD26C,0.500000*%
%ADD27C,0.400000*%
%ADD28C,0.200000*%
G04 APERTURE END LIST*
D10*
D11*
X124300000Y-94600000D03*
X124300000Y-96800000D03*
D12*
X118250000Y-96800000D03*
X120450000Y-96800000D03*
X120450000Y-98750000D03*
X118250000Y-98750000D03*
D13*
X103200000Y-96800000D03*
X112700000Y-96800000D03*
X122200000Y-96800000D03*
X122200000Y-77800000D03*
X103200000Y-77800000D03*
D14*
X105870000Y-91345000D03*
X105870000Y-88855000D03*
X102030000Y-91345000D03*
X102030000Y-88855000D03*
D15*
X115490000Y-86200000D03*
X115490000Y-82200000D03*
X110410000Y-86200000D03*
X110410000Y-82200000D03*
D16*
X118270000Y-94310000D03*
X118270000Y-82190000D03*
X103030000Y-94310000D03*
X103030000Y-82190000D03*
D17*
X115050000Y-93750000D03*
X115050000Y-89750000D03*
X109050000Y-93750000D03*
X109050000Y-89750000D03*
D18*
X123500000Y-91100000D03*
X123500000Y-88100000D03*
D19*
X116200000Y-96800000D03*
X114700000Y-96800000D03*
X105850000Y-93550000D03*
X107350000Y-93550000D03*
D20*
X117950000Y-86200000D03*
X117950000Y-84700000D03*
D21*
X119000000Y-76600000D03*
D22*
X119000000Y-79140000D03*
X116460000Y-76600000D03*
X116460000Y-79140000D03*
X113920000Y-76600000D03*
X113920000Y-79140000D03*
X111380000Y-76600000D03*
X111380000Y-79140000D03*
X108840000Y-76600000D03*
X108840000Y-79140000D03*
X106300000Y-76600000D03*
X106300000Y-79140000D03*
D23*
X123500000Y-86350000D03*
X119400000Y-84700000D03*
X107500000Y-89750000D03*
X107350000Y-92650000D03*
X102050000Y-87100000D03*
X105250000Y-83650000D03*
X124300000Y-93050000D03*
D24*
X121050000Y-81190000D02*
X119000000Y-79140000D01*
D25*
X120450000Y-96800000D02*
X120450000Y-94900000D01*
X119860000Y-94310000D02*
X118270000Y-94310000D01*
X120450000Y-94900000D02*
X119860000Y-94310000D01*
D26*
X117950000Y-86200000D02*
X119100000Y-86200000D01*
X119700000Y-91100000D02*
X119690000Y-91100000D01*
X119700000Y-86800000D02*
X119700000Y-91100000D01*
X119100000Y-86200000D02*
X119700000Y-86800000D01*
D24*
X123500000Y-91100000D02*
X121000000Y-91100000D01*
X121000000Y-91100000D02*
X121050000Y-91050000D01*
X121050000Y-91050000D02*
X121000000Y-91100000D01*
X121050000Y-81190000D02*
X121050000Y-91050000D01*
D26*
X121000000Y-91100000D02*
X119690000Y-91100000D01*
X119690000Y-91100000D02*
X118270000Y-92520000D01*
X105870000Y-91345000D02*
X105875000Y-91350000D01*
X105875000Y-91350000D02*
X117100000Y-91350000D01*
X118270000Y-92520000D02*
X118270000Y-94310000D01*
X117100000Y-91350000D02*
X118270000Y-92520000D01*
X105850000Y-93550000D02*
X105870000Y-93530000D01*
X105870000Y-93530000D02*
X105870000Y-91345000D01*
D27*
X115490000Y-86200000D02*
X117950000Y-86200000D01*
D24*
X119000000Y-79140000D02*
X119000000Y-79150000D01*
D26*
X115050000Y-93750000D02*
X115050000Y-93800000D01*
X115050000Y-93800000D02*
X116200000Y-94950000D01*
X116200000Y-96800000D02*
X116200000Y-94950000D01*
X116840000Y-94310000D02*
X118270000Y-94310000D01*
X116200000Y-94950000D02*
X116840000Y-94310000D01*
D24*
X123500000Y-88100000D02*
X123500000Y-86350000D01*
D27*
X117950000Y-84700000D02*
X119400000Y-84700000D01*
D24*
X109050000Y-89750000D02*
X107500000Y-89750000D01*
D27*
X107350000Y-93550000D02*
X107350000Y-92650000D01*
D24*
X102030000Y-88855000D02*
X102030000Y-87120000D01*
X102030000Y-87120000D02*
X102050000Y-87100000D01*
X105250000Y-82190000D02*
X105250000Y-83650000D01*
X103030000Y-82190000D02*
X105250000Y-82190000D01*
X105250000Y-82190000D02*
X110400000Y-82190000D01*
X110400000Y-82190000D02*
X110410000Y-82200000D01*
D26*
X124300000Y-94600000D02*
X124300000Y-93050000D01*
X114700000Y-96800000D02*
X112700000Y-96800000D01*
D28*
X109050000Y-93750000D02*
X106000000Y-96800000D01*
X106000000Y-96800000D02*
X103200000Y-96800000D01*
X110410000Y-86200000D02*
X105250000Y-86200000D01*
X102030000Y-90370000D02*
X102030000Y-91345000D01*
X102300000Y-90100000D02*
X102030000Y-90370000D01*
X102900000Y-90100000D02*
X102300000Y-90100000D01*
X103650000Y-89350000D02*
X102900000Y-90100000D01*
X103650000Y-87800000D02*
X103650000Y-89350000D01*
X105250000Y-86200000D02*
X103650000Y-87800000D01*
X103200000Y-96800000D02*
X103200000Y-94480000D01*
X103200000Y-94480000D02*
X103350000Y-94330000D01*
X103350000Y-94330000D02*
X103350000Y-91750000D01*
X103350000Y-91750000D02*
X102945000Y-91345000D01*
X102945000Y-91345000D02*
X102030000Y-91345000D01*
X103200000Y-96800000D02*
X103200000Y-96950000D01*
X120450000Y-98750000D02*
X121650000Y-98750000D01*
X122200000Y-98200000D02*
X122200000Y-96800000D01*
X121650000Y-98750000D02*
X122200000Y-98200000D01*
X124300000Y-96800000D02*
X122200000Y-96800000D01*
X118270000Y-82190000D02*
X115500000Y-82190000D01*
X115500000Y-82190000D02*
X114710000Y-82190000D01*
X114710000Y-82190000D02*
X112250000Y-84650000D01*
X118250000Y-98750000D02*
X102500000Y-98750000D01*
X112250000Y-84650000D02*
X113500000Y-85900000D01*
X102150000Y-84650000D02*
X112250000Y-84650000D01*
X100500000Y-86300000D02*
X102150000Y-84650000D01*
X100500000Y-96750000D02*
X100500000Y-86300000D01*
X102500000Y-98750000D02*
X100500000Y-96750000D01*
X118250000Y-96800000D02*
X118250000Y-98750000D01*
X115050000Y-89750000D02*
X115050000Y-89700000D01*
X115050000Y-89700000D02*
X113500000Y-88150000D01*
X113500000Y-88200000D02*
X113500000Y-88150000D01*
X113500000Y-88150000D02*
X113500000Y-85900000D01*
X118260000Y-82200000D02*
X118270000Y-82190000D01*
X107095000Y-88855000D02*
X105870000Y-88855000D01*
X107750000Y-88200000D02*
X107095000Y-88855000D01*
X113500000Y-88200000D02*
X107750000Y-88200000D01*
G36*
X120400000Y-77658677D02*
X120208342Y-77850979D01*
X105849663Y-77899162D01*
X105807709Y-77908544D01*
X105396492Y-78100456D01*
X105362353Y-78126586D01*
X104349039Y-79327551D01*
X103977903Y-79500000D01*
X100400000Y-79500000D01*
X100400000Y-78437341D01*
X102774791Y-78437341D01*
X102834854Y-78557776D01*
X103152637Y-78639829D01*
X103477631Y-78594026D01*
X103565146Y-78557776D01*
X103625209Y-78437341D01*
X103200000Y-78012132D01*
X102774791Y-78437341D01*
X100400000Y-78437341D01*
X100400000Y-77752637D01*
X102360171Y-77752637D01*
X102405974Y-78077631D01*
X102442224Y-78165146D01*
X102562659Y-78225209D01*
X102987868Y-77800000D01*
X103412132Y-77800000D01*
X103837341Y-78225209D01*
X103957776Y-78165146D01*
X104039829Y-77847363D01*
X103994026Y-77522369D01*
X103957776Y-77434854D01*
X103837341Y-77374791D01*
X103412132Y-77800000D01*
X102987868Y-77800000D01*
X102562659Y-77374791D01*
X102442224Y-77434854D01*
X102360171Y-77752637D01*
X100400000Y-77752637D01*
X100400000Y-77162659D01*
X102774791Y-77162659D01*
X103200000Y-77587868D01*
X103625209Y-77162659D01*
X103565146Y-77042224D01*
X103247363Y-76960171D01*
X102922369Y-77005974D01*
X102834854Y-77042224D01*
X102774791Y-77162659D01*
X100400000Y-77162659D01*
X100400000Y-76926518D01*
X105197313Y-76926518D01*
X105406203Y-77323643D01*
X105751165Y-77610600D01*
X105973484Y-77702672D01*
X106150000Y-77664483D01*
X106150000Y-76750000D01*
X106450000Y-76750000D01*
X106450000Y-77664483D01*
X106626516Y-77702672D01*
X106848835Y-77610600D01*
X107193797Y-77323643D01*
X107402687Y-76926518D01*
X107737313Y-76926518D01*
X107946203Y-77323643D01*
X108291165Y-77610600D01*
X108513484Y-77702672D01*
X108690000Y-77664483D01*
X108690000Y-76750000D01*
X108990000Y-76750000D01*
X108990000Y-77664483D01*
X109166516Y-77702672D01*
X109388835Y-77610600D01*
X109733797Y-77323643D01*
X109942687Y-76926518D01*
X110277313Y-76926518D01*
X110486203Y-77323643D01*
X110831165Y-77610600D01*
X111053484Y-77702672D01*
X111230000Y-77664483D01*
X111230000Y-76750000D01*
X111530000Y-76750000D01*
X111530000Y-77664483D01*
X111706516Y-77702672D01*
X111928835Y-77610600D01*
X112273797Y-77323643D01*
X112482687Y-76926518D01*
X112817313Y-76926518D01*
X113026203Y-77323643D01*
X113371165Y-77610600D01*
X113593484Y-77702672D01*
X113770000Y-77664483D01*
X113770000Y-76750000D01*
X114070000Y-76750000D01*
X114070000Y-77664483D01*
X114246516Y-77702672D01*
X114468835Y-77610600D01*
X114813797Y-77323643D01*
X115022687Y-76926518D01*
X115357313Y-76926518D01*
X115566203Y-77323643D01*
X115911165Y-77610600D01*
X116133484Y-77702672D01*
X116310000Y-77664483D01*
X116310000Y-76750000D01*
X116610000Y-76750000D01*
X116610000Y-77664483D01*
X116786516Y-77702672D01*
X117008835Y-77610600D01*
X117353797Y-77323643D01*
X117562687Y-76926518D01*
X117541122Y-76825000D01*
X117850000Y-76825000D01*
X117850000Y-77509674D01*
X117895672Y-77619937D01*
X117980064Y-77704328D01*
X118090327Y-77750000D01*
X118775000Y-77750000D01*
X118850000Y-77675000D01*
X118850000Y-76750000D01*
X119150000Y-76750000D01*
X119150000Y-77675000D01*
X119225000Y-77750000D01*
X119909673Y-77750000D01*
X120019936Y-77704328D01*
X120104328Y-77619937D01*
X120150000Y-77509674D01*
X120150000Y-76825000D01*
X120075000Y-76750000D01*
X119150000Y-76750000D01*
X118850000Y-76750000D01*
X117925000Y-76750000D01*
X117850000Y-76825000D01*
X117541122Y-76825000D01*
X117525190Y-76750000D01*
X116610000Y-76750000D01*
X116310000Y-76750000D01*
X115394810Y-76750000D01*
X115357313Y-76926518D01*
X115022687Y-76926518D01*
X114985190Y-76750000D01*
X114070000Y-76750000D01*
X113770000Y-76750000D01*
X112854810Y-76750000D01*
X112817313Y-76926518D01*
X112482687Y-76926518D01*
X112445190Y-76750000D01*
X111530000Y-76750000D01*
X111230000Y-76750000D01*
X110314810Y-76750000D01*
X110277313Y-76926518D01*
X109942687Y-76926518D01*
X109905190Y-76750000D01*
X108990000Y-76750000D01*
X108690000Y-76750000D01*
X107774810Y-76750000D01*
X107737313Y-76926518D01*
X107402687Y-76926518D01*
X107365190Y-76750000D01*
X106450000Y-76750000D01*
X106150000Y-76750000D01*
X105234810Y-76750000D01*
X105197313Y-76926518D01*
X100400000Y-76926518D01*
X100400000Y-76639396D01*
X100472785Y-76273482D01*
X105197313Y-76273482D01*
X105234810Y-76450000D01*
X106150000Y-76450000D01*
X106150000Y-75535517D01*
X106450000Y-75535517D01*
X106450000Y-76450000D01*
X107365190Y-76450000D01*
X107402687Y-76273482D01*
X107737313Y-76273482D01*
X107774810Y-76450000D01*
X108690000Y-76450000D01*
X108690000Y-75535517D01*
X108990000Y-75535517D01*
X108990000Y-76450000D01*
X109905190Y-76450000D01*
X109942687Y-76273482D01*
X110277313Y-76273482D01*
X110314810Y-76450000D01*
X111230000Y-76450000D01*
X111230000Y-75535517D01*
X111530000Y-75535517D01*
X111530000Y-76450000D01*
X112445190Y-76450000D01*
X112482687Y-76273482D01*
X112817313Y-76273482D01*
X112854810Y-76450000D01*
X113770000Y-76450000D01*
X113770000Y-75535517D01*
X114070000Y-75535517D01*
X114070000Y-76450000D01*
X114985190Y-76450000D01*
X115022687Y-76273482D01*
X115357313Y-76273482D01*
X115394810Y-76450000D01*
X116310000Y-76450000D01*
X116310000Y-75535517D01*
X116610000Y-75535517D01*
X116610000Y-76450000D01*
X117525190Y-76450000D01*
X117562687Y-76273482D01*
X117353797Y-75876357D01*
X117130163Y-75690326D01*
X117850000Y-75690326D01*
X117850000Y-76375000D01*
X117925000Y-76450000D01*
X118850000Y-76450000D01*
X118850000Y-75525000D01*
X119150000Y-75525000D01*
X119150000Y-76450000D01*
X120075000Y-76450000D01*
X120150000Y-76375000D01*
X120150000Y-75690326D01*
X120104328Y-75580063D01*
X120019936Y-75495672D01*
X119909673Y-75450000D01*
X119225000Y-75450000D01*
X119150000Y-75525000D01*
X118850000Y-75525000D01*
X118775000Y-75450000D01*
X118090327Y-75450000D01*
X117980064Y-75495672D01*
X117895672Y-75580063D01*
X117850000Y-75690326D01*
X117130163Y-75690326D01*
X117008835Y-75589400D01*
X116786516Y-75497328D01*
X116610000Y-75535517D01*
X116310000Y-75535517D01*
X116133484Y-75497328D01*
X115911165Y-75589400D01*
X115566203Y-75876357D01*
X115357313Y-76273482D01*
X115022687Y-76273482D01*
X114813797Y-75876357D01*
X114468835Y-75589400D01*
X114246516Y-75497328D01*
X114070000Y-75535517D01*
X113770000Y-75535517D01*
X113593484Y-75497328D01*
X113371165Y-75589400D01*
X113026203Y-75876357D01*
X112817313Y-76273482D01*
X112482687Y-76273482D01*
X112273797Y-75876357D01*
X111928835Y-75589400D01*
X111706516Y-75497328D01*
X111530000Y-75535517D01*
X111230000Y-75535517D01*
X111053484Y-75497328D01*
X110831165Y-75589400D01*
X110486203Y-75876357D01*
X110277313Y-76273482D01*
X109942687Y-76273482D01*
X109733797Y-75876357D01*
X109388835Y-75589400D01*
X109166516Y-75497328D01*
X108990000Y-75535517D01*
X108690000Y-75535517D01*
X108513484Y-75497328D01*
X108291165Y-75589400D01*
X107946203Y-75876357D01*
X107737313Y-76273482D01*
X107402687Y-76273482D01*
X107193797Y-75876357D01*
X106848835Y-75589400D01*
X106626516Y-75497328D01*
X106450000Y-75535517D01*
X106150000Y-75535517D01*
X105973484Y-75497328D01*
X105751165Y-75589400D01*
X105406203Y-75876357D01*
X105197313Y-76273482D01*
X100472785Y-76273482D01*
X100529033Y-75990705D01*
X100874170Y-75474170D01*
X101390706Y-75129033D01*
X102039396Y-75000000D01*
X120400000Y-75000000D01*
X120400000Y-77658677D01*
X120400000Y-77658677D01*
G37*
X120400000Y-77658677D02*
X120208342Y-77850979D01*
X105849663Y-77899162D01*
X105807709Y-77908544D01*
X105396492Y-78100456D01*
X105362353Y-78126586D01*
X104349039Y-79327551D01*
X103977903Y-79500000D01*
X100400000Y-79500000D01*
X100400000Y-78437341D01*
X102774791Y-78437341D01*
X102834854Y-78557776D01*
X103152637Y-78639829D01*
X103477631Y-78594026D01*
X103565146Y-78557776D01*
X103625209Y-78437341D01*
X103200000Y-78012132D01*
X102774791Y-78437341D01*
X100400000Y-78437341D01*
X100400000Y-77752637D01*
X102360171Y-77752637D01*
X102405974Y-78077631D01*
X102442224Y-78165146D01*
X102562659Y-78225209D01*
X102987868Y-77800000D01*
X103412132Y-77800000D01*
X103837341Y-78225209D01*
X103957776Y-78165146D01*
X104039829Y-77847363D01*
X103994026Y-77522369D01*
X103957776Y-77434854D01*
X103837341Y-77374791D01*
X103412132Y-77800000D01*
X102987868Y-77800000D01*
X102562659Y-77374791D01*
X102442224Y-77434854D01*
X102360171Y-77752637D01*
X100400000Y-77752637D01*
X100400000Y-77162659D01*
X102774791Y-77162659D01*
X103200000Y-77587868D01*
X103625209Y-77162659D01*
X103565146Y-77042224D01*
X103247363Y-76960171D01*
X102922369Y-77005974D01*
X102834854Y-77042224D01*
X102774791Y-77162659D01*
X100400000Y-77162659D01*
X100400000Y-76926518D01*
X105197313Y-76926518D01*
X105406203Y-77323643D01*
X105751165Y-77610600D01*
X105973484Y-77702672D01*
X106150000Y-77664483D01*
X106150000Y-76750000D01*
X106450000Y-76750000D01*
X106450000Y-77664483D01*
X106626516Y-77702672D01*
X106848835Y-77610600D01*
X107193797Y-77323643D01*
X107402687Y-76926518D01*
X107737313Y-76926518D01*
X107946203Y-77323643D01*
X108291165Y-77610600D01*
X108513484Y-77702672D01*
X108690000Y-77664483D01*
X108690000Y-76750000D01*
X108990000Y-76750000D01*
X108990000Y-77664483D01*
X109166516Y-77702672D01*
X109388835Y-77610600D01*
X109733797Y-77323643D01*
X109942687Y-76926518D01*
X110277313Y-76926518D01*
X110486203Y-77323643D01*
X110831165Y-77610600D01*
X111053484Y-77702672D01*
X111230000Y-77664483D01*
X111230000Y-76750000D01*
X111530000Y-76750000D01*
X111530000Y-77664483D01*
X111706516Y-77702672D01*
X111928835Y-77610600D01*
X112273797Y-77323643D01*
X112482687Y-76926518D01*
X112817313Y-76926518D01*
X113026203Y-77323643D01*
X113371165Y-77610600D01*
X113593484Y-77702672D01*
X113770000Y-77664483D01*
X113770000Y-76750000D01*
X114070000Y-76750000D01*
X114070000Y-77664483D01*
X114246516Y-77702672D01*
X114468835Y-77610600D01*
X114813797Y-77323643D01*
X115022687Y-76926518D01*
X115357313Y-76926518D01*
X115566203Y-77323643D01*
X115911165Y-77610600D01*
X116133484Y-77702672D01*
X116310000Y-77664483D01*
X116310000Y-76750000D01*
X116610000Y-76750000D01*
X116610000Y-77664483D01*
X116786516Y-77702672D01*
X117008835Y-77610600D01*
X117353797Y-77323643D01*
X117562687Y-76926518D01*
X117541122Y-76825000D01*
X117850000Y-76825000D01*
X117850000Y-77509674D01*
X117895672Y-77619937D01*
X117980064Y-77704328D01*
X118090327Y-77750000D01*
X118775000Y-77750000D01*
X118850000Y-77675000D01*
X118850000Y-76750000D01*
X119150000Y-76750000D01*
X119150000Y-77675000D01*
X119225000Y-77750000D01*
X119909673Y-77750000D01*
X120019936Y-77704328D01*
X120104328Y-77619937D01*
X120150000Y-77509674D01*
X120150000Y-76825000D01*
X120075000Y-76750000D01*
X119150000Y-76750000D01*
X118850000Y-76750000D01*
X117925000Y-76750000D01*
X117850000Y-76825000D01*
X117541122Y-76825000D01*
X117525190Y-76750000D01*
X116610000Y-76750000D01*
X116310000Y-76750000D01*
X115394810Y-76750000D01*
X115357313Y-76926518D01*
X115022687Y-76926518D01*
X114985190Y-76750000D01*
X114070000Y-76750000D01*
X113770000Y-76750000D01*
X112854810Y-76750000D01*
X112817313Y-76926518D01*
X112482687Y-76926518D01*
X112445190Y-76750000D01*
X111530000Y-76750000D01*
X111230000Y-76750000D01*
X110314810Y-76750000D01*
X110277313Y-76926518D01*
X109942687Y-76926518D01*
X109905190Y-76750000D01*
X108990000Y-76750000D01*
X108690000Y-76750000D01*
X107774810Y-76750000D01*
X107737313Y-76926518D01*
X107402687Y-76926518D01*
X107365190Y-76750000D01*
X106450000Y-76750000D01*
X106150000Y-76750000D01*
X105234810Y-76750000D01*
X105197313Y-76926518D01*
X100400000Y-76926518D01*
X100400000Y-76639396D01*
X100472785Y-76273482D01*
X105197313Y-76273482D01*
X105234810Y-76450000D01*
X106150000Y-76450000D01*
X106150000Y-75535517D01*
X106450000Y-75535517D01*
X106450000Y-76450000D01*
X107365190Y-76450000D01*
X107402687Y-76273482D01*
X107737313Y-76273482D01*
X107774810Y-76450000D01*
X108690000Y-76450000D01*
X108690000Y-75535517D01*
X108990000Y-75535517D01*
X108990000Y-76450000D01*
X109905190Y-76450000D01*
X109942687Y-76273482D01*
X110277313Y-76273482D01*
X110314810Y-76450000D01*
X111230000Y-76450000D01*
X111230000Y-75535517D01*
X111530000Y-75535517D01*
X111530000Y-76450000D01*
X112445190Y-76450000D01*
X112482687Y-76273482D01*
X112817313Y-76273482D01*
X112854810Y-76450000D01*
X113770000Y-76450000D01*
X113770000Y-75535517D01*
X114070000Y-75535517D01*
X114070000Y-76450000D01*
X114985190Y-76450000D01*
X115022687Y-76273482D01*
X115357313Y-76273482D01*
X115394810Y-76450000D01*
X116310000Y-76450000D01*
X116310000Y-75535517D01*
X116610000Y-75535517D01*
X116610000Y-76450000D01*
X117525190Y-76450000D01*
X117562687Y-76273482D01*
X117353797Y-75876357D01*
X117130163Y-75690326D01*
X117850000Y-75690326D01*
X117850000Y-76375000D01*
X117925000Y-76450000D01*
X118850000Y-76450000D01*
X118850000Y-75525000D01*
X119150000Y-75525000D01*
X119150000Y-76450000D01*
X120075000Y-76450000D01*
X120150000Y-76375000D01*
X120150000Y-75690326D01*
X120104328Y-75580063D01*
X120019936Y-75495672D01*
X119909673Y-75450000D01*
X119225000Y-75450000D01*
X119150000Y-75525000D01*
X118850000Y-75525000D01*
X118775000Y-75450000D01*
X118090327Y-75450000D01*
X117980064Y-75495672D01*
X117895672Y-75580063D01*
X117850000Y-75690326D01*
X117130163Y-75690326D01*
X117008835Y-75589400D01*
X116786516Y-75497328D01*
X116610000Y-75535517D01*
X116310000Y-75535517D01*
X116133484Y-75497328D01*
X115911165Y-75589400D01*
X115566203Y-75876357D01*
X115357313Y-76273482D01*
X115022687Y-76273482D01*
X114813797Y-75876357D01*
X114468835Y-75589400D01*
X114246516Y-75497328D01*
X114070000Y-75535517D01*
X113770000Y-75535517D01*
X113593484Y-75497328D01*
X113371165Y-75589400D01*
X113026203Y-75876357D01*
X112817313Y-76273482D01*
X112482687Y-76273482D01*
X112273797Y-75876357D01*
X111928835Y-75589400D01*
X111706516Y-75497328D01*
X111530000Y-75535517D01*
X111230000Y-75535517D01*
X111053484Y-75497328D01*
X110831165Y-75589400D01*
X110486203Y-75876357D01*
X110277313Y-76273482D01*
X109942687Y-76273482D01*
X109733797Y-75876357D01*
X109388835Y-75589400D01*
X109166516Y-75497328D01*
X108990000Y-75535517D01*
X108690000Y-75535517D01*
X108513484Y-75497328D01*
X108291165Y-75589400D01*
X107946203Y-75876357D01*
X107737313Y-76273482D01*
X107402687Y-76273482D01*
X107193797Y-75876357D01*
X106848835Y-75589400D01*
X106626516Y-75497328D01*
X106450000Y-75535517D01*
X106150000Y-75535517D01*
X105973484Y-75497328D01*
X105751165Y-75589400D01*
X105406203Y-75876357D01*
X105197313Y-76273482D01*
X100472785Y-76273482D01*
X100529033Y-75990705D01*
X100874170Y-75474170D01*
X101390706Y-75129033D01*
X102039396Y-75000000D01*
X120400000Y-75000000D01*
X120400000Y-77658677D01*
M02*
