M48
;DRILL file {KiCad 4.0.6} date Sat Aug 26 16:47:33 2017
;FORMAT={-:-/ absolute / metric / decimal}
FMAT,2
METRIC,TZ
T1C0.250
T2C0.650
T3C1.000
%
G90
G05
M71
T1
X102.05Y-87.1
X105.25Y-83.65
X107.35Y-92.65
X107.5Y-89.75
X119.4Y-84.7
X123.5Y-86.35
X124.3Y-93.05
T2
X103.2Y-77.8
X103.2Y-96.8
X112.7Y-96.8
X122.2Y-77.8
X122.2Y-96.8
T3
X106.3Y-76.6
X106.3Y-79.14
X108.84Y-76.6
X108.84Y-79.14
X111.38Y-76.6
X111.38Y-79.14
X113.92Y-76.6
X113.92Y-79.14
X116.46Y-76.6
X116.46Y-79.14
X119.Y-76.6
X119.Y-79.14
T0
M30
